<svg xmlns="http://www.w3.org/2000/svg" xmlns:xlink="http://www.w3.org/1999/xlink" width="728" zoomAndPan="magnify" viewBox="0 0 546 67.499998" height="90" preserveAspectRatio="xMidYMid meet" version="1.0"><defs><filter x="0%" y="0%" width="100%" height="100%" id="136f92ab77"><feColorMatrix values="0 0 0 0 1 0 0 0 0 1 0 0 0 0 1 0 0 0 1 0" color-interpolation-filters="sRGB"/></filter><g/><clipPath id="0dab77caf2"><path d="M 2.007812 0 L 543.992188 0 L 543.992188 67.003906 L 2.007812 67.003906 Z M 2.007812 0 " clip-rule="nonzero"/></clipPath><mask id="6641afff5e"><g filter="url(#136f92ab77)"><rect x="-54.6" width="655.2" fill="#000000" y="-6.75" height="80.999998" fill-opacity="0.7373"/></g></mask><clipPath id="5ea07d616d"><path d="M 1 1 L 19.261719 1 L 19.261719 15 L 1 15 Z M 1 1 " clip-rule="nonzero"/></clipPath><clipPath id="b359387c25"><path d="M 1.820312 3.625 C 0.359375 6.03125 1.386719 8.371094 2.679688 9.617188 L 6.507812 13.285156 C 8.585938 15.28125 11.875 15.269531 13.9375 13.253906 L 17.636719 9.640625 C 18.839844 8.304688 19.300781 6.886719 19.042969 5.308594 C 18.691406 3.125 16.890625 1.429688 14.667969 1.1875 C 13.304688 1.042969 11.984375 1.425781 10.957031 2.28125 C 10.679688 2.511719 10.433594 2.769531 10.21875 3.046875 C 9.960938 2.730469 9.664062 2.4375 9.324219 2.179688 C 8.140625 1.28125 6.636719 0.925781 5.191406 1.203125 C 3.820312 1.46875 2.59375 2.351562 1.820312 3.625 " clip-rule="nonzero"/></clipPath><clipPath id="ce6e5b7c94"><rect x="0" width="20" y="0" height="18"/></clipPath><mask id="f5a1e410da"><g filter="url(#136f92ab77)"><rect x="-54.6" width="655.2" fill="#000000" y="-6.75" height="80.999998" fill-opacity="0.7373"/></g></mask><clipPath id="c6169f5df9"><path d="M 0.738281 1 L 18.84375 1 L 18.84375 15 L 0.738281 15 Z M 0.738281 1 " clip-rule="nonzero"/></clipPath><clipPath id="e9013dac9b"><path d="M 1.523438 3.625 C 0.0625 6.03125 1.09375 8.371094 2.382812 9.617188 L 6.210938 13.285156 C 8.292969 15.28125 11.578125 15.269531 13.640625 13.253906 L 17.339844 9.640625 C 18.542969 8.304688 19.003906 6.886719 18.746094 5.308594 C 18.394531 3.125 16.59375 1.429688 14.371094 1.1875 C 13.007812 1.042969 11.691406 1.425781 10.664062 2.28125 C 10.386719 2.511719 10.136719 2.769531 9.921875 3.046875 C 9.667969 2.730469 9.367188 2.4375 9.027344 2.179688 C 7.847656 1.28125 6.339844 0.925781 4.894531 1.203125 C 3.527344 1.46875 2.296875 2.351562 1.523438 3.625 " clip-rule="nonzero"/></clipPath><clipPath id="330d761ddc"><rect x="0" width="19" y="0" height="18"/></clipPath></defs><g clip-path="url(#0dab77caf2)"><path fill="#ffffff" d="M 2.007812 0 L 543.992188 0 L 543.992188 74.449219 L 2.007812 74.449219 Z M 2.007812 0 " fill-opacity="1" fill-rule="nonzero"/><path fill="#ffffff" d="M 2.007812 0 L 543.992188 0 L 543.992188 67.003906 L 2.007812 67.003906 Z M 2.007812 0 " fill-opacity="1" fill-rule="nonzero"/><path fill="#fef6ff" d="M 2.007812 0 L 543.992188 0 L 543.992188 67.003906 L 2.007812 67.003906 Z M 2.007812 0 " fill-opacity="1" fill-rule="nonzero"/></g><g fill="#ffb3e1" fill-opacity="1"><g transform="translate(160.860198, 40.495847)"><g><path d="M 5 0.921875 C 5.289062 1.015625 5.582031 1.0625 5.875 1.0625 C 6.582031 1.0625 7.160156 0.472656 7.609375 -0.703125 L 8.21875 -2.296875 L 1.5 -16.09375 L 1.1875 -16.671875 C 0.894531 -17.347656 0.75 -17.9375 0.75 -18.4375 C 0.75 -19.195312 1.050781 -19.847656 1.65625 -20.390625 C 2.257812 -20.941406 2.945312 -21.21875 3.71875 -21.21875 C 4.976562 -21.21875 5.921875 -20.539062 6.546875 -19.1875 L 6.8125 -18.609375 L 11.140625 -9.015625 L 15.125 -18.390625 L 15.375 -19.046875 C 16.03125 -20.492188 17.019531 -21.21875 18.34375 -21.21875 C 19.132812 -21.21875 19.835938 -20.921875 20.453125 -20.328125 C 21.078125 -19.742188 21.390625 -19.066406 21.390625 -18.296875 C 21.390625 -17.972656 21.335938 -17.640625 21.234375 -17.296875 C 21.128906 -16.960938 20.945312 -16.515625 20.6875 -15.953125 L 12.25 1.8125 C 11.832031 2.664062 11.515625 3.285156 11.296875 3.671875 C 11.078125 4.054688 10.800781 4.453125 10.46875 4.859375 C 9.882812 5.597656 9.148438 6.179688 8.265625 6.609375 C 7.378906 7.035156 6.46875 7.25 5.53125 7.25 C 4.820312 7.25 4.148438 7.144531 3.515625 6.9375 C 2.878906 6.726562 2.328125 6.445312 1.859375 6.09375 C 1.390625 5.738281 1.015625 5.332031 0.734375 4.875 C 0.453125 4.425781 0.3125 3.9375 0.3125 3.40625 C 0.3125 2.632812 0.566406 1.960938 1.078125 1.390625 C 1.597656 0.816406 2.210938 0.53125 2.921875 0.53125 C 3.359375 0.53125 3.769531 0.585938 4.15625 0.703125 Z M 5 0.921875 "/></g></g></g><g fill="#ffb3e1" fill-opacity="1"><g transform="translate(184.111568, 40.495847)"><g><path d="M 19.265625 -3.625 C 19.265625 -2.851562 19.21875 -2.285156 19.125 -1.921875 C 19.039062 -1.554688 18.867188 -1.195312 18.609375 -0.84375 C 18.015625 -0.0703125 17.21875 0.3125 16.21875 0.3125 C 15.601562 0.3125 15.070312 0.171875 14.625 -0.109375 C 14.1875 -0.390625 13.804688 -0.851562 13.484375 -1.5 C 12.628906 -0.820312 11.800781 -0.335938 11 -0.046875 C 10.207031 0.242188 9.367188 0.390625 8.484375 0.390625 C 7.453125 0.390625 6.492188 0.203125 5.609375 -0.171875 C 4.722656 -0.554688 3.945312 -1.09375 3.28125 -1.78125 C 2.625 -2.476562 2.109375 -3.28125 1.734375 -4.1875 C 1.367188 -5.101562 1.1875 -6.09375 1.1875 -7.15625 C 1.1875 -8.25 1.382812 -9.265625 1.78125 -10.203125 C 2.1875 -11.148438 2.734375 -11.96875 3.421875 -12.65625 C 4.117188 -13.351562 4.929688 -13.898438 5.859375 -14.296875 C 6.785156 -14.691406 7.796875 -14.890625 8.890625 -14.890625 C 9.617188 -14.890625 10.328125 -14.785156 11.015625 -14.578125 C 11.710938 -14.378906 12.460938 -14.070312 13.265625 -13.65625 C 13.265625 -14.75 13.0625 -15.515625 12.65625 -15.953125 C 12.257812 -16.398438 11.59375 -16.625 10.65625 -16.625 C 10.1875 -16.625 9.65625 -16.550781 9.0625 -16.40625 L 7.640625 -16 C 7.234375 -15.851562 6.890625 -15.753906 6.609375 -15.703125 C 6.328125 -15.660156 6.066406 -15.640625 5.828125 -15.640625 C 5.148438 -15.640625 4.597656 -15.859375 4.171875 -16.296875 C 3.742188 -16.742188 3.53125 -17.304688 3.53125 -17.984375 C 3.53125 -19.140625 4.175781 -20.0625 5.46875 -20.75 C 6.769531 -21.445312 8.46875 -21.796875 10.5625 -21.796875 C 12.007812 -21.796875 13.328125 -21.59375 14.515625 -21.1875 C 15.710938 -20.789062 16.691406 -20.210938 17.453125 -19.453125 C 18.109375 -18.773438 18.570312 -17.941406 18.84375 -16.953125 C 19.125 -15.960938 19.265625 -14.671875 19.265625 -13.078125 Z M 13.265625 -7.34375 C 13.265625 -8.195312 12.988281 -8.914062 12.4375 -9.5 C 11.894531 -10.09375 11.195312 -10.390625 10.34375 -10.390625 C 9.550781 -10.390625 8.875 -10.097656 8.3125 -9.515625 C 7.75 -8.941406 7.46875 -8.242188 7.46875 -7.421875 C 7.46875 -6.566406 7.75 -5.859375 8.3125 -5.296875 C 8.875 -4.742188 9.582031 -4.46875 10.4375 -4.46875 C 11.257812 -4.46875 11.9375 -4.738281 12.46875 -5.28125 C 13 -5.820312 13.265625 -6.507812 13.265625 -7.34375 Z M 13.265625 -7.34375 "/></g></g></g><g fill="#ffb3e1" fill-opacity="1"><g transform="translate(207.451341, 40.495847)"><g><path d="M 2.65625 -3.625 L 2.65625 -16.9375 C 2.65625 -17.375 2.660156 -17.734375 2.671875 -18.015625 C 2.691406 -18.296875 2.707031 -18.53125 2.71875 -18.71875 C 2.726562 -18.90625 2.765625 -19.070312 2.828125 -19.21875 C 2.890625 -19.375 2.960938 -19.523438 3.046875 -19.671875 C 3.640625 -20.703125 4.476562 -21.21875 5.5625 -21.21875 C 6.769531 -21.21875 7.671875 -20.644531 8.265625 -19.5 C 9.679688 -20.726562 11.195312 -21.34375 12.8125 -21.34375 C 13.34375 -21.34375 13.835938 -21.25 14.296875 -21.0625 C 14.753906 -20.875 15.148438 -20.613281 15.484375 -20.28125 C 15.828125 -19.957031 16.101562 -19.578125 16.3125 -19.140625 C 16.519531 -18.703125 16.625 -18.226562 16.625 -17.71875 C 16.625 -16.75 16.273438 -15.925781 15.578125 -15.25 C 14.890625 -14.570312 14.054688 -14.234375 13.078125 -14.234375 C 12.671875 -14.234375 12.351562 -14.273438 12.125 -14.359375 C 11.90625 -14.453125 11.519531 -14.660156 10.96875 -14.984375 C 10.519531 -15.242188 10.132812 -15.375 9.8125 -15.375 C 9.34375 -15.375 9.007812 -15.164062 8.8125 -14.75 C 8.625 -14.34375 8.53125 -13.65625 8.53125 -12.6875 L 8.53125 -2.96875 C 8.5 -1.957031 8.222656 -1.15625 7.703125 -0.5625 C 7.191406 0.0195312 6.492188 0.3125 5.609375 0.3125 C 4.722656 0.3125 4.007812 0.0078125 3.46875 -0.59375 C 2.925781 -1.195312 2.65625 -1.988281 2.65625 -2.96875 Z M 2.65625 -3.625 "/></g></g></g><g fill="#ffb3e1" fill-opacity="1"><g transform="translate(225.66346, 40.495847)"><g><path d="M 2.515625 -3.625 L 2.515625 -11.09375 C 2.515625 -12.539062 2.675781 -13.785156 3 -14.828125 C 3.320312 -15.878906 3.851562 -16.875 4.59375 -17.8125 C 5.476562 -18.9375 6.566406 -19.804688 7.859375 -20.421875 C 9.160156 -21.035156 10.519531 -21.34375 11.9375 -21.34375 C 13.582031 -21.34375 15.148438 -20.921875 16.640625 -20.078125 C 18.128906 -19.242188 19.316406 -18.109375 20.203125 -16.671875 C 20.609375 -15.984375 20.921875 -15.144531 21.140625 -14.15625 C 21.367188 -13.175781 21.484375 -12.097656 21.484375 -10.921875 L 21.484375 -2.96875 C 21.453125 -1.957031 21.171875 -1.15625 20.640625 -0.5625 C 20.109375 0.0195312 19.414062 0.3125 18.5625 0.3125 C 17.675781 0.3125 16.960938 0.0078125 16.421875 -0.59375 C 15.878906 -1.195312 15.609375 -1.988281 15.609375 -2.96875 L 15.609375 -10.390625 C 15.609375 -11.273438 15.578125 -11.90625 15.515625 -12.28125 C 15.453125 -12.664062 15.347656 -13.050781 15.203125 -13.4375 C 14.941406 -14.03125 14.507812 -14.515625 13.90625 -14.890625 C 13.300781 -15.273438 12.660156 -15.46875 11.984375 -15.46875 C 10.953125 -15.46875 10.097656 -15.097656 9.421875 -14.359375 C 8.742188 -13.628906 8.40625 -12.734375 8.40625 -11.671875 L 8.40625 -2.96875 C 8.375 -1.957031 8.09375 -1.15625 7.5625 -0.5625 C 7.03125 0.0195312 6.320312 0.3125 5.4375 0.3125 C 4.582031 0.3125 3.878906 0.0078125 3.328125 -0.59375 C 2.785156 -1.195312 2.515625 -1.988281 2.515625 -2.96875 Z M 2.515625 -3.625 "/></g></g></g><g fill="#ffb3e1" fill-opacity="1"><g transform="translate(251.257628, 40.495847)"><g><path d="M 9.984375 -21.390625 C 10.929688 -21.390625 11.832031 -21.28125 12.6875 -21.0625 C 13.539062 -20.84375 14.285156 -20.539062 14.921875 -20.15625 C 15.554688 -19.769531 16.0625 -19.328125 16.4375 -18.828125 C 16.820312 -18.328125 17.015625 -17.796875 17.015625 -17.234375 C 17.015625 -16.554688 16.75 -15.953125 16.21875 -15.421875 C 15.6875 -14.890625 15.066406 -14.625 14.359375 -14.625 C 13.984375 -14.625 13.609375 -14.691406 13.234375 -14.828125 C 12.867188 -14.960938 12.40625 -15.191406 11.84375 -15.515625 C 11.132812 -15.929688 10.632812 -16.203125 10.34375 -16.328125 C 10.050781 -16.460938 9.742188 -16.53125 9.421875 -16.53125 C 9.085938 -16.53125 8.816406 -16.425781 8.609375 -16.21875 C 8.410156 -16.007812 8.3125 -15.773438 8.3125 -15.515625 C 8.3125 -15.015625 8.5625 -14.613281 9.0625 -14.3125 C 9.5625 -14.019531 10.488281 -13.695312 11.84375 -13.34375 C 12.84375 -13.082031 13.609375 -12.851562 14.140625 -12.65625 C 14.671875 -12.46875 15.171875 -12.253906 15.640625 -12.015625 C 16.554688 -11.515625 17.265625 -10.816406 17.765625 -9.921875 C 18.265625 -9.023438 18.515625 -8.015625 18.515625 -6.890625 C 18.515625 -5.804688 18.304688 -4.8125 17.890625 -3.90625 C 17.484375 -3.007812 16.90625 -2.238281 16.15625 -1.59375 C 15.40625 -0.945312 14.503906 -0.445312 13.453125 -0.09375 C 12.410156 0.257812 11.269531 0.4375 10.03125 0.4375 C 8.882812 0.4375 7.78125 0.273438 6.71875 -0.046875 C 5.65625 -0.367188 4.710938 -0.796875 3.890625 -1.328125 C 3.066406 -1.859375 2.410156 -2.46875 1.921875 -3.15625 C 1.429688 -3.851562 1.1875 -4.582031 1.1875 -5.34375 C 1.1875 -6.144531 1.453125 -6.847656 1.984375 -7.453125 C 2.515625 -8.054688 3.148438 -8.359375 3.890625 -8.359375 C 4.390625 -8.359375 4.878906 -8.234375 5.359375 -7.984375 C 5.847656 -7.734375 6.390625 -7.351562 6.984375 -6.84375 C 7.421875 -6.46875 7.796875 -6.160156 8.109375 -5.921875 C 8.421875 -5.679688 8.703125 -5.492188 8.953125 -5.359375 C 9.203125 -5.234375 9.441406 -5.148438 9.671875 -5.109375 C 9.910156 -5.066406 10.175781 -5.046875 10.46875 -5.046875 C 11.0625 -5.046875 11.550781 -5.191406 11.9375 -5.484375 C 12.320312 -5.773438 12.515625 -6.144531 12.515625 -6.59375 C 12.515625 -7.289062 11.863281 -7.789062 10.5625 -8.09375 C 9.738281 -8.300781 8.835938 -8.566406 7.859375 -8.890625 C 6.890625 -9.210938 6.097656 -9.519531 5.484375 -9.8125 C 4.503906 -10.3125 3.71875 -11.03125 3.125 -11.96875 C 2.539062 -12.914062 2.25 -13.9375 2.25 -15.03125 C 2.25 -16.269531 2.625 -17.414062 3.375 -18.46875 C 4.132812 -19.53125 5.144531 -20.3125 6.40625 -20.8125 C 7.40625 -21.195312 8.597656 -21.390625 9.984375 -21.390625 Z M 9.984375 -21.390625 "/></g></g></g><g fill="#ffb3e1" fill-opacity="1"><g transform="translate(272.564031, 40.495847)"><g><path d="M 2.65625 -3.625 L 2.65625 -26.21875 C 2.6875 -27.21875 2.960938 -28.007812 3.484375 -28.59375 C 4.015625 -29.1875 4.722656 -29.484375 5.609375 -29.484375 C 6.492188 -29.484375 7.203125 -29.179688 7.734375 -28.578125 C 8.265625 -27.972656 8.53125 -27.1875 8.53125 -26.21875 L 8.53125 -20.296875 C 9.207031 -20.703125 9.835938 -20.976562 10.421875 -21.125 C 11.015625 -21.269531 11.695312 -21.34375 12.46875 -21.34375 C 14.082031 -21.34375 15.550781 -20.992188 16.875 -20.296875 C 18.207031 -19.609375 19.269531 -18.632812 20.0625 -17.375 C 20.363281 -16.925781 20.601562 -16.507812 20.78125 -16.125 C 20.957031 -15.75 21.09375 -15.335938 21.1875 -14.890625 C 21.289062 -14.453125 21.363281 -13.96875 21.40625 -13.4375 C 21.457031 -12.90625 21.484375 -12.269531 21.484375 -11.53125 L 21.484375 -2.96875 C 21.453125 -1.957031 21.171875 -1.15625 20.640625 -0.5625 C 20.109375 0.0195312 19.398438 0.3125 18.515625 0.3125 C 17.628906 0.3125 16.921875 0.0078125 16.390625 -0.59375 C 15.867188 -1.195312 15.609375 -1.988281 15.609375 -2.96875 L 15.609375 -10.96875 C 15.609375 -11.644531 15.566406 -12.160156 15.484375 -12.515625 C 15.410156 -12.867188 15.289062 -13.222656 15.125 -13.578125 C 14.851562 -14.160156 14.4375 -14.613281 13.875 -14.9375 C 13.320312 -15.257812 12.734375 -15.421875 12.109375 -15.421875 C 11.523438 -15.421875 10.953125 -15.265625 10.390625 -14.953125 C 9.828125 -14.648438 9.398438 -14.25 9.109375 -13.75 C 8.898438 -13.394531 8.75 -13.003906 8.65625 -12.578125 C 8.570312 -12.148438 8.53125 -11.613281 8.53125 -10.96875 L 8.53125 -2.96875 C 8.5 -1.957031 8.222656 -1.15625 7.703125 -0.5625 C 7.191406 0.0195312 6.492188 0.3125 5.609375 0.3125 C 4.722656 0.3125 4.007812 0.0078125 3.46875 -0.59375 C 2.925781 -1.195312 2.65625 -1.988281 2.65625 -2.96875 Z M 2.65625 -3.625 "/></g></g></g><g fill="#ffb3e1" fill-opacity="1"><g transform="translate(298.113998, 40.495847)"><g><path d="M 19.265625 -3.625 C 19.265625 -2.851562 19.21875 -2.285156 19.125 -1.921875 C 19.039062 -1.554688 18.867188 -1.195312 18.609375 -0.84375 C 18.015625 -0.0703125 17.21875 0.3125 16.21875 0.3125 C 15.601562 0.3125 15.070312 0.171875 14.625 -0.109375 C 14.1875 -0.390625 13.804688 -0.851562 13.484375 -1.5 C 12.628906 -0.820312 11.800781 -0.335938 11 -0.046875 C 10.207031 0.242188 9.367188 0.390625 8.484375 0.390625 C 7.453125 0.390625 6.492188 0.203125 5.609375 -0.171875 C 4.722656 -0.554688 3.945312 -1.09375 3.28125 -1.78125 C 2.625 -2.476562 2.109375 -3.28125 1.734375 -4.1875 C 1.367188 -5.101562 1.1875 -6.09375 1.1875 -7.15625 C 1.1875 -8.25 1.382812 -9.265625 1.78125 -10.203125 C 2.1875 -11.148438 2.734375 -11.96875 3.421875 -12.65625 C 4.117188 -13.351562 4.929688 -13.898438 5.859375 -14.296875 C 6.785156 -14.691406 7.796875 -14.890625 8.890625 -14.890625 C 9.617188 -14.890625 10.328125 -14.785156 11.015625 -14.578125 C 11.710938 -14.378906 12.460938 -14.070312 13.265625 -13.65625 C 13.265625 -14.75 13.0625 -15.515625 12.65625 -15.953125 C 12.257812 -16.398438 11.59375 -16.625 10.65625 -16.625 C 10.1875 -16.625 9.65625 -16.550781 9.0625 -16.40625 L 7.640625 -16 C 7.234375 -15.851562 6.890625 -15.753906 6.609375 -15.703125 C 6.328125 -15.660156 6.066406 -15.640625 5.828125 -15.640625 C 5.148438 -15.640625 4.597656 -15.859375 4.171875 -16.296875 C 3.742188 -16.742188 3.53125 -17.304688 3.53125 -17.984375 C 3.53125 -19.140625 4.175781 -20.0625 5.46875 -20.75 C 6.769531 -21.445312 8.46875 -21.796875 10.5625 -21.796875 C 12.007812 -21.796875 13.328125 -21.59375 14.515625 -21.1875 C 15.710938 -20.789062 16.691406 -20.210938 17.453125 -19.453125 C 18.109375 -18.773438 18.570312 -17.941406 18.84375 -16.953125 C 19.125 -15.960938 19.265625 -14.671875 19.265625 -13.078125 Z M 13.265625 -7.34375 C 13.265625 -8.195312 12.988281 -8.914062 12.4375 -9.5 C 11.894531 -10.09375 11.195312 -10.390625 10.34375 -10.390625 C 9.550781 -10.390625 8.875 -10.097656 8.3125 -9.515625 C 7.75 -8.941406 7.46875 -8.242188 7.46875 -7.421875 C 7.46875 -6.566406 7.75 -5.859375 8.3125 -5.296875 C 8.875 -4.742188 9.582031 -4.46875 10.4375 -4.46875 C 11.257812 -4.46875 11.9375 -4.738281 12.46875 -5.28125 C 13 -5.820312 13.265625 -6.507812 13.265625 -7.34375 Z M 13.265625 -7.34375 "/></g></g></g><g fill="#ffb3e1" fill-opacity="1"><g transform="translate(321.453774, 40.495847)"><g><path d="M 2.65625 4.59375 L 2.65625 -17.421875 C 2.65625 -18.128906 2.679688 -18.65625 2.734375 -19 C 2.796875 -19.351562 2.914062 -19.679688 3.09375 -19.984375 C 3.5625 -20.804688 4.359375 -21.21875 5.484375 -21.21875 C 6.867188 -21.21875 7.796875 -20.507812 8.265625 -19.09375 C 9.210938 -19.914062 10.140625 -20.492188 11.046875 -20.828125 C 11.960938 -21.171875 13.039062 -21.34375 14.28125 -21.34375 C 15.75 -21.34375 17.109375 -21.070312 18.359375 -20.53125 C 19.617188 -19.988281 20.695312 -19.226562 21.59375 -18.25 C 22.488281 -17.28125 23.191406 -16.125 23.703125 -14.78125 C 24.222656 -13.445312 24.484375 -12 24.484375 -10.4375 C 24.484375 -8.875 24.222656 -7.425781 23.703125 -6.09375 C 23.191406 -4.769531 22.488281 -3.617188 21.59375 -2.640625 C 20.695312 -1.671875 19.632812 -0.914062 18.40625 -0.375 C 17.1875 0.164062 15.851562 0.4375 14.40625 0.4375 C 13.257812 0.4375 12.222656 0.273438 11.296875 -0.046875 C 10.367188 -0.367188 9.445312 -0.898438 8.53125 -1.640625 L 8.53125 5.265625 C 8.5 6.296875 8.222656 7.097656 7.703125 7.671875 C 7.191406 8.242188 6.492188 8.53125 5.609375 8.53125 C 4.722656 8.53125 4.007812 8.234375 3.46875 7.640625 C 2.925781 7.054688 2.65625 6.265625 2.65625 5.265625 Z M 13.34375 -5.484375 C 14.019531 -5.484375 14.660156 -5.613281 15.265625 -5.875 C 15.867188 -6.144531 16.398438 -6.5 16.859375 -6.9375 C 17.316406 -7.382812 17.675781 -7.898438 17.9375 -8.484375 C 18.207031 -9.078125 18.34375 -9.710938 18.34375 -10.390625 C 18.34375 -11.097656 18.207031 -11.757812 17.9375 -12.375 C 17.675781 -13 17.320312 -13.53125 16.875 -13.96875 C 16.4375 -14.40625 15.914062 -14.753906 15.3125 -15.015625 C 14.707031 -15.285156 14.050781 -15.421875 13.34375 -15.421875 C 12.664062 -15.421875 12.023438 -15.285156 11.421875 -15.015625 C 10.816406 -14.753906 10.289062 -14.40625 9.84375 -13.96875 C 9.40625 -13.53125 9.054688 -13.007812 8.796875 -12.40625 C 8.535156 -11.800781 8.40625 -11.144531 8.40625 -10.4375 C 8.40625 -9.757812 8.535156 -9.117188 8.796875 -8.515625 C 9.054688 -7.910156 9.40625 -7.382812 9.84375 -6.9375 C 10.289062 -6.5 10.816406 -6.144531 11.421875 -5.875 C 12.023438 -5.613281 12.664062 -5.484375 13.34375 -5.484375 Z M 13.34375 -5.484375 "/></g></g></g><g fill="#ffb3e1" fill-opacity="1"><g transform="translate(348.727692, 40.495847)"><g><path d="M 8.96875 -6.8125 C 9.882812 -6.007812 10.945312 -5.609375 12.15625 -5.609375 C 12.75 -5.609375 13.316406 -5.703125 13.859375 -5.890625 C 14.398438 -6.085938 14.96875 -6.40625 15.5625 -6.84375 C 15.914062 -7.113281 16.234375 -7.300781 16.515625 -7.40625 C 16.796875 -7.507812 17.097656 -7.5625 17.421875 -7.5625 C 18.273438 -7.5625 18.976562 -7.28125 19.53125 -6.71875 C 20.09375 -6.15625 20.375 -5.460938 20.375 -4.640625 C 20.375 -4.023438 20.195312 -3.457031 19.84375 -2.9375 C 19.488281 -2.425781 18.929688 -1.90625 18.171875 -1.375 C 17.347656 -0.78125 16.40625 -0.328125 15.34375 -0.015625 C 14.28125 0.285156 13.21875 0.4375 12.15625 0.4375 C 10.6875 0.4375 9.285156 0.144531 7.953125 -0.4375 C 6.628906 -1.03125 5.46875 -1.828125 4.46875 -2.828125 C 3.46875 -3.828125 2.671875 -4.988281 2.078125 -6.3125 C 1.484375 -7.644531 1.1875 -9.046875 1.1875 -10.515625 C 1.1875 -11.992188 1.472656 -13.390625 2.046875 -14.703125 C 2.628906 -16.015625 3.410156 -17.160156 4.390625 -18.140625 C 5.378906 -19.128906 6.519531 -19.910156 7.8125 -20.484375 C 9.113281 -21.054688 10.503906 -21.34375 11.984375 -21.34375 C 13.160156 -21.34375 14.304688 -21.144531 15.421875 -20.75 C 16.546875 -20.351562 17.535156 -19.816406 18.390625 -19.140625 C 19.242188 -18.460938 19.925781 -17.679688 20.4375 -16.796875 C 20.957031 -15.910156 21.21875 -14.984375 21.21875 -14.015625 C 21.21875 -13.367188 21.03125 -12.832031 20.65625 -12.40625 C 20.289062 -11.976562 19.664062 -11.554688 18.78125 -11.140625 Z M 14.765625 -14.359375 C 14.234375 -15.191406 13.363281 -15.609375 12.15625 -15.609375 C 10.851562 -15.609375 9.738281 -15.179688 8.8125 -14.328125 C 7.882812 -13.472656 7.363281 -12.410156 7.25 -11.140625 Z M 14.765625 -14.359375 "/></g></g></g><g fill="#ffb3e1" fill-opacity="1"><g transform="translate(372.421103, 40.495847)"><g><path d="M 2.65625 -3.625 L 2.65625 -16.9375 C 2.65625 -17.375 2.660156 -17.734375 2.671875 -18.015625 C 2.691406 -18.296875 2.707031 -18.53125 2.71875 -18.71875 C 2.726562 -18.90625 2.765625 -19.070312 2.828125 -19.21875 C 2.890625 -19.375 2.960938 -19.523438 3.046875 -19.671875 C 3.640625 -20.703125 4.476562 -21.21875 5.5625 -21.21875 C 6.769531 -21.21875 7.671875 -20.644531 8.265625 -19.5 C 9.679688 -20.726562 11.195312 -21.34375 12.8125 -21.34375 C 13.34375 -21.34375 13.835938 -21.25 14.296875 -21.0625 C 14.753906 -20.875 15.148438 -20.613281 15.484375 -20.28125 C 15.828125 -19.957031 16.101562 -19.578125 16.3125 -19.140625 C 16.519531 -18.703125 16.625 -18.226562 16.625 -17.71875 C 16.625 -16.75 16.273438 -15.925781 15.578125 -15.25 C 14.890625 -14.570312 14.054688 -14.234375 13.078125 -14.234375 C 12.671875 -14.234375 12.351562 -14.273438 12.125 -14.359375 C 11.90625 -14.453125 11.519531 -14.660156 10.96875 -14.984375 C 10.519531 -15.242188 10.132812 -15.375 9.8125 -15.375 C 9.34375 -15.375 9.007812 -15.164062 8.8125 -14.75 C 8.625 -14.34375 8.53125 -13.65625 8.53125 -12.6875 L 8.53125 -2.96875 C 8.5 -1.957031 8.222656 -1.15625 7.703125 -0.5625 C 7.191406 0.0195312 6.492188 0.3125 5.609375 0.3125 C 4.722656 0.3125 4.007812 0.0078125 3.46875 -0.59375 C 2.925781 -1.195312 2.65625 -1.988281 2.65625 -2.96875 Z M 2.65625 -3.625 "/></g></g></g><path stroke-linecap="butt" transform="matrix(0.744485, 0, 0, 0.744485, 125.299949, -6.871478)" fill="none" stroke-linejoin="miter" d="M 51.851122 62.244656 C 52.249887 62.365335 52.643406 62.423051 53.042171 62.423051 C 53.986616 62.423051 54.763159 61.630767 55.361307 60.040952 L 56.185073 57.910705 L 47.155134 39.383852 L 46.751121 38.617803 C 46.352356 37.710087 46.152973 36.917803 46.152973 36.240951 C 46.152973 35.207309 46.562232 34.325827 47.375504 33.601753 C 48.183529 32.867185 49.101739 32.499901 50.130134 32.499901 C 51.830134 32.499901 53.09464 33.407617 53.923653 35.223049 L 54.28569 36.00484 L 60.09927 48.880767 L 65.451123 36.298667 L 65.797419 35.411938 C 66.678901 33.47058 68.00637 32.499901 69.785074 32.499901 C 70.850197 32.499901 71.794642 32.89342 72.628901 33.685704 C 73.457913 34.477988 73.87242 35.390951 73.87242 36.414099 C 73.87242 36.849593 73.80421 37.295581 73.673037 37.762556 C 73.536617 38.21379 73.290012 38.817186 72.933222 39.557 L 61.594641 63.435706 C 61.033221 64.58478 60.602974 65.419039 60.3039 65.92799 C 60.01532 66.442188 59.653283 66.977373 59.217789 67.538793 C 58.425505 68.525212 57.433838 69.301756 56.242789 69.873669 C 55.056986 70.45083 53.829208 70.744657 52.564702 70.744657 C 51.615011 70.744657 50.717788 70.60299 49.867788 70.319657 C 49.017788 70.04157 48.272726 69.663793 47.632603 69.19157 C 46.997726 68.719348 46.488776 68.173669 46.110998 67.554533 C 45.743714 66.945891 45.560072 66.279533 45.560072 65.565953 C 45.560072 64.542805 45.906368 63.645582 46.588467 62.869039 C 47.286307 62.097743 48.110072 61.709471 49.054517 61.709471 C 49.652665 61.709471 50.208838 61.793422 50.723035 61.956076 Z M 102.263471 56.126755 C 102.263471 57.165644 102.200508 57.926446 102.074582 58.419656 C 101.95915 58.912866 101.723039 59.395582 101.366249 59.867804 C 100.573965 60.901446 99.503594 61.420891 98.160384 61.420891 C 97.331372 61.420891 96.612545 61.232002 96.014396 60.854224 C 95.426742 60.476446 94.912545 59.857311 94.477051 58.986323 C 93.327977 59.894039 92.215631 60.544656 91.14526 60.943422 C 90.080137 61.33694 88.957297 61.536323 87.766248 61.536323 C 86.386309 61.536323 85.100815 61.279224 83.909766 60.770274 C 82.723963 60.245582 81.685074 59.521508 80.793099 58.592804 C 79.906371 57.6641 79.213778 56.588483 78.720568 55.360705 C 78.227358 54.132927 77.980753 52.805458 77.980753 51.373051 C 77.980753 49.914409 78.248346 48.550211 78.778284 47.285705 C 79.308222 46.021198 80.037543 44.924593 80.966247 43.99589 C 81.905445 43.056692 82.996803 42.322124 84.245568 41.792186 C 85.489087 41.262247 86.842791 40.994655 88.301433 40.994655 C 89.298347 40.994655 90.258532 41.136322 91.187236 41.414408 C 92.115939 41.687247 93.1181 42.096507 94.18847 42.647433 C 94.18847 41.188791 93.920878 40.160396 93.375199 39.572741 C 92.84526 38.974593 91.948038 38.675519 90.678285 38.675519 C 90.053902 38.675519 89.340322 38.769963 88.548038 38.964099 L 86.648655 39.499284 C 86.092482 39.703914 85.62026 39.835087 85.242482 39.892803 C 84.869951 39.950519 84.523655 39.976754 84.214087 39.976754 C 83.295877 39.976754 82.550815 39.682926 81.984149 39.095272 C 81.412235 38.497124 81.128902 37.741568 81.128902 36.833852 C 81.128902 35.286012 81.994642 34.047741 83.736618 33.124284 C 85.478593 32.19558 87.750507 31.728605 90.562853 31.728605 C 92.509458 31.728605 94.277668 31.996197 95.87273 32.526136 C 97.473039 33.061321 98.795261 33.843111 99.828903 34.876753 C 100.699891 35.784469 101.319026 36.902062 101.696804 38.224284 C 102.074582 39.551754 102.263471 41.283235 102.263471 43.429223 Z M 94.18847 51.142186 C 94.18847 49.993112 93.821186 49.022433 93.086619 48.230149 C 92.352051 47.437865 91.412853 47.0391 90.258532 47.0391 C 89.198655 47.0391 88.290939 47.427371 87.535384 48.198668 C 86.779828 48.969964 86.40205 49.914409 86.40205 51.026754 C 86.40205 52.175828 86.779828 53.12552 87.535384 53.881076 C 88.290939 54.626137 89.240631 54.998668 90.389705 54.998668 C 91.491557 54.998668 92.399273 54.636631 93.1181 53.912557 C 93.83168 53.177989 94.18847 52.254532 94.18847 51.142186 Z M 111.288163 56.126755 L 111.288163 38.255766 C 111.288163 37.662864 111.298657 37.180148 111.319644 36.802371 C 111.335385 36.42984 111.356373 36.115025 111.377361 35.863173 C 111.393101 35.600827 111.44557 35.37521 111.519027 35.181074 C 111.597731 34.976445 111.697422 34.777062 111.823348 34.572432 C 112.615632 33.187247 113.743719 32.499901 115.202361 32.499901 C 116.828904 32.499901 118.035694 33.271197 118.827978 34.819037 C 120.732608 33.155765 122.768411 32.326753 124.94588 32.326753 C 125.65946 32.326753 126.320571 32.452679 126.929214 32.715025 C 127.548349 32.966876 128.083535 33.313173 128.540016 33.74342 C 128.996498 34.178914 129.358535 34.698358 129.626127 35.296506 C 129.909461 35.884161 130.04588 36.519037 130.04588 37.195889 C 130.04588 38.502371 129.584152 39.60947 128.655448 40.517186 C 127.726744 41.424902 126.609152 41.876136 125.292176 41.876136 C 124.74125 41.876136 124.31625 41.81842 124.017176 41.702988 C 123.728596 41.587556 123.203905 41.30947 122.453596 40.863482 C 121.850201 40.517186 121.336003 40.344038 120.900509 40.344038 C 120.27088 40.344038 119.824892 40.616877 119.567793 41.167803 C 119.315941 41.718729 119.190015 42.647433 119.190015 43.953914 L 119.190015 57.029224 C 119.142793 58.372434 118.770262 59.437557 118.072423 60.229841 C 117.385077 61.022125 116.451126 61.420891 115.260077 61.420891 C 114.074274 61.420891 113.108842 61.016878 112.374274 60.203607 C 111.6502 59.390335 111.288163 58.330459 111.288163 57.029224 Z M 135.560387 56.126755 L 135.560387 46.094655 C 135.560387 44.153297 135.780757 42.484778 136.216251 41.078605 C 136.662239 39.672433 137.375819 38.329223 138.362239 37.064716 C 139.548042 35.569346 141.011931 34.404531 142.753906 33.570272 C 144.490635 32.741259 146.316561 32.326753 148.22119 32.326753 C 150.430141 32.326753 152.539401 32.888173 154.538475 34.021506 C 156.537549 35.144346 158.132611 36.676445 159.32366 38.617803 C 159.874586 39.525519 160.299586 40.643112 160.59866 41.965334 C 160.897734 43.287556 161.049895 44.746198 161.049895 46.330766 L 161.049895 57.029224 C 161.00792 58.372434 160.635389 59.437557 159.916562 60.229841 C 159.202981 61.022125 158.269031 61.420891 157.119956 61.420891 C 155.928907 61.420891 154.968722 61.016878 154.234154 60.203607 C 153.51008 59.390335 153.148043 58.330459 153.148043 57.029224 L 153.148043 47.0391 C 153.148043 45.858544 153.111314 45.013791 153.03261 44.50484 C 152.953907 43.980149 152.81224 43.465951 152.612857 42.951754 C 152.256067 42.15947 151.668413 41.508852 150.855141 40.994655 C 150.047116 40.469963 149.186623 40.212865 148.278906 40.212865 C 146.893721 40.212865 145.744647 40.711321 144.826437 41.702988 C 143.918721 42.689408 143.462239 43.896198 143.462239 45.328606 L 143.462239 57.029224 C 143.425511 58.372434 143.047733 59.437557 142.334153 60.229841 C 141.625819 61.022125 140.681375 61.420891 139.490326 61.420891 C 138.341251 61.420891 137.396807 61.016878 136.662239 60.203607 C 135.927671 59.390335 135.560387 58.330459 135.560387 57.029224 Z M 179.986007 32.269037 C 181.255761 32.269037 182.457304 32.415951 183.595884 32.715025 C 184.744958 33.003605 185.747119 33.407617 186.597119 33.921815 C 187.447119 34.430765 188.129218 35.023667 188.643415 35.700519 C 189.16286 36.377371 189.425206 37.096198 189.425206 37.846506 C 189.425206 38.754223 189.068415 39.567494 188.354835 40.281075 C 187.646502 40.989408 186.817489 41.340951 185.857304 41.340951 C 185.348353 41.340951 184.84465 41.257001 184.35144 41.078605 C 183.85823 40.894963 183.233847 40.590642 182.483538 40.155149 C 181.523353 39.604223 180.846501 39.242186 180.452983 39.063791 C 180.064711 38.880149 179.650205 38.790951 179.204217 38.790951 C 178.768723 38.790951 178.411933 38.932618 178.133847 39.210704 C 177.861007 39.483544 177.724588 39.793112 177.724588 40.155149 C 177.724588 40.832001 178.06039 41.367186 178.726748 41.760704 C 179.4036 42.15947 180.652365 42.594964 182.483538 43.067186 C 183.826748 43.423976 184.849897 43.733544 185.552983 43.99589 C 186.27181 44.247741 186.948662 44.531075 187.583539 44.851137 C 188.811317 45.527988 189.761008 46.467186 190.427366 47.679223 C 191.104218 48.87552 191.440021 50.229223 191.440021 51.735088 C 191.440021 53.204224 191.167181 54.542187 190.616255 55.754224 C 190.065329 56.95052 189.278292 57.989409 188.265638 58.870891 C 187.25823 59.736631 186.05144 60.408236 184.64002 60.885706 C 183.239094 61.357928 181.706995 61.594039 180.043723 61.594039 C 178.501131 61.594039 177.011007 61.378916 175.5786 60.943422 C 174.161933 60.507928 172.89218 59.930767 171.779834 59.217187 C 170.677982 58.503607 169.801747 57.679841 169.145883 56.751137 C 168.495266 55.822434 168.169957 54.841261 168.169957 53.807619 C 168.169957 52.747742 168.526747 51.808544 169.229834 50.995273 C 169.943414 50.187248 170.798661 49.777989 171.779834 49.777989 C 172.456686 49.777989 173.123044 49.94589 173.768414 50.286939 C 174.424279 50.617495 175.148353 51.115952 175.940637 51.792804 C 176.544032 52.307001 177.047736 52.721508 177.467489 53.041569 C 177.881995 53.361631 178.254526 53.613483 178.579834 53.797125 C 178.920884 53.970273 179.246193 54.085705 179.566254 54.143421 C 179.886316 54.201137 180.243106 54.227372 180.641872 54.227372 C 181.434156 54.227372 182.084773 54.033236 182.598971 53.634471 C 183.107921 53.240952 183.36502 52.747742 183.36502 52.154841 C 183.36502 51.199902 182.494032 50.523051 180.757304 50.129532 C 179.644958 49.856693 178.438168 49.505149 177.131686 49.069655 C 175.825205 48.634162 174.760081 48.219655 173.925822 47.82089 C 172.624587 47.144038 171.575204 46.173359 170.78292 44.908853 C 169.990636 43.644346 169.591871 42.274902 169.591871 40.805766 C 169.591871 39.142494 170.095575 37.599902 171.102982 36.183235 C 172.115636 34.750827 173.474587 33.701444 175.174587 33.035086 C 176.517797 32.520889 178.123353 32.269037 179.986007 32.269037 Z M 198.748972 56.126755 L 198.748972 25.789098 C 198.7857 24.440641 199.158231 23.375518 199.866564 22.583234 C 200.580145 21.79095 201.529836 21.392184 202.720886 21.392184 C 203.911935 21.392184 204.861626 21.801444 205.575207 22.609468 C 206.294034 23.42274 206.650824 24.482617 206.650824 25.789098 L 206.650824 33.74342 C 207.55854 33.192494 208.40854 32.819963 209.200824 32.631074 C 209.993108 32.426444 210.900824 32.326753 211.923973 32.326753 C 214.101442 32.326753 216.079529 32.788481 217.858232 33.717185 C 219.642183 34.645889 221.074591 35.957617 222.144961 37.657618 C 222.543726 38.261013 222.858541 38.817186 223.089406 39.326136 C 223.330764 39.840334 223.519652 40.396507 223.656072 40.994655 C 223.792492 41.582309 223.886936 42.238173 223.944653 42.951754 C 224.012862 43.665334 224.044344 44.515334 224.044344 45.501754 L 224.044344 57.029224 C 224.007615 58.372434 223.629838 59.437557 222.916257 60.229841 C 222.19743 61.022125 221.247739 61.420891 220.056689 61.420891 C 218.870887 61.420891 217.915948 61.016878 217.202368 60.203607 C 216.499282 59.390335 216.142491 58.330459 216.142491 57.029224 L 216.142491 46.27305 C 216.142491 45.360087 216.090022 44.672742 215.985084 44.195272 C 215.89064 43.72305 215.722738 43.250828 215.491874 42.778606 C 215.135084 41.986322 214.578911 41.372433 213.823356 40.936939 C 213.073047 40.490951 212.280763 40.270581 211.446503 40.270581 C 210.654219 40.270581 209.882923 40.480457 209.127368 40.905457 C 208.382306 41.32521 207.815639 41.865643 207.416874 42.532001 C 207.138787 43.004223 206.939404 43.528914 206.823972 44.111322 C 206.70854 44.683235 206.650824 45.402063 206.650824 46.27305 L 206.650824 57.029224 C 206.603602 58.372434 206.231071 59.437557 205.533231 60.229841 C 204.845886 61.022125 203.911935 61.420891 202.720886 61.420891 C 201.529836 61.420891 200.569651 61.016878 199.835083 60.203607 C 199.111009 59.390335 198.748972 58.330459 198.748972 57.029224 Z M 255.394655 56.126755 C 255.394655 57.165644 255.331692 57.926446 255.205766 58.419656 C 255.090334 58.912866 254.854223 59.395582 254.492186 59.867804 C 253.699902 60.901446 252.634778 61.420891 251.291568 61.420891 C 250.457309 61.420891 249.743728 61.232002 249.14558 60.854224 C 248.552679 60.476446 248.043728 59.857311 247.608234 58.986323 C 246.45916 59.894039 245.346815 60.544656 244.271197 60.943422 C 243.211321 61.33694 242.083234 61.536323 240.897432 61.536323 C 239.512246 61.536323 238.226752 61.279224 237.04095 60.770274 C 235.8499 60.245582 234.811011 59.521508 233.924283 58.592804 C 233.032307 57.6641 232.344962 56.588483 231.851752 55.360705 C 231.358542 54.132927 231.111937 52.805458 231.111937 51.373051 C 231.111937 49.914409 231.374283 48.550211 231.909468 47.285705 C 232.439406 46.021198 233.168727 44.924593 234.097431 43.99589 C 235.036629 43.056692 236.127987 42.322124 237.371505 41.792186 C 238.620271 41.262247 239.973975 40.994655 241.432617 40.994655 C 242.42953 40.994655 243.389716 41.136322 244.318419 41.414408 C 245.247123 41.687247 246.244037 42.096507 247.319654 42.647433 C 247.319654 41.188791 247.046815 40.160396 246.506383 39.572741 C 245.976444 38.974593 245.073975 38.675519 243.809469 38.675519 C 243.179839 38.675519 242.471506 38.769963 241.679222 38.964099 L 239.779839 39.499284 C 239.218419 39.703914 238.751444 39.835087 238.373666 39.892803 C 237.995888 39.950519 237.654839 39.976754 237.345271 39.976754 C 236.427061 39.976754 235.681999 39.682926 235.110085 39.095272 C 234.543419 38.497124 234.254838 37.741568 234.254838 36.833852 C 234.254838 35.286012 235.125826 34.047741 236.867802 33.124284 C 238.60453 32.19558 240.881691 31.728605 243.694037 31.728605 C 245.635395 31.728605 247.403605 31.996197 248.998667 32.526136 C 250.604222 33.061321 251.921198 33.843111 252.960087 34.876753 C 253.825827 35.784469 254.45021 36.902062 254.827988 38.224284 C 255.205766 39.551754 255.394655 41.283235 255.394655 43.429223 Z M 247.319654 51.142186 C 247.319654 49.993112 246.95237 49.022433 246.217802 48.230149 C 245.483234 47.437865 244.53879 47.0391 243.389716 47.0391 C 242.324592 47.0391 241.416876 47.427371 240.666567 48.198668 C 239.911012 48.969964 239.533234 49.914409 239.533234 51.026754 C 239.533234 52.175828 239.911012 53.12552 240.666567 53.881076 C 241.416876 54.626137 242.371814 54.998668 243.520888 54.998668 C 244.62274 54.998668 245.530457 54.636631 246.244037 53.912557 C 246.962864 53.177989 247.319654 52.254532 247.319654 51.142186 Z M 264.419347 67.176755 L 264.419347 37.599902 C 264.419347 36.655457 264.456075 35.941877 264.534779 35.469654 C 264.613483 34.997432 264.77089 34.561938 265.012248 34.16842 C 265.641878 33.056074 266.707001 32.499901 268.218112 32.499901 C 270.070273 32.499901 271.319039 33.449593 271.953915 35.354222 C 273.223668 34.241877 274.467187 33.460086 275.694965 33.003605 C 276.922743 32.55237 278.370891 32.326753 280.028916 32.326753 C 282.012249 32.326753 283.843422 32.694037 285.527682 33.428605 C 287.206694 34.152679 288.649595 35.17058 289.861633 36.487556 C 291.068423 37.78879 292.012867 39.341877 292.700213 41.141568 C 293.398053 42.936013 293.744349 44.882618 293.744349 46.981384 C 293.744349 49.080149 293.398053 51.021507 292.700213 52.810705 C 292.012867 54.589409 291.068423 56.126755 289.861633 57.433236 C 288.649595 58.739718 287.227682 59.757619 285.585398 60.492187 C 283.937867 61.226755 282.148669 61.594039 280.207311 61.594039 C 278.669965 61.594039 277.274286 61.378916 276.030767 60.943422 C 274.782002 60.507928 273.54373 59.794348 272.321199 58.797434 L 272.321199 68.058237 C 272.26873 69.453916 271.896199 70.53478 271.203607 71.306077 C 270.516261 72.08262 269.577063 72.465645 268.391261 72.465645 C 267.200211 72.465645 266.240026 72.072126 265.505458 71.279842 C 264.781384 70.487558 264.419347 69.411941 264.419347 68.058237 Z M 278.785397 53.634471 C 279.693113 53.634471 280.553607 53.456075 281.366879 53.099285 C 282.174904 52.742495 282.888484 52.270273 283.497126 51.677372 C 284.116262 51.079223 284.604225 50.386631 284.961015 49.604841 C 285.317805 48.812557 285.4962 47.95731 285.4962 47.0391 C 285.4962 46.094655 285.317805 45.20268 284.961015 44.373667 C 284.604225 43.539408 284.126756 42.831075 283.52336 42.238173 C 282.935706 41.640025 282.23262 41.162556 281.424595 40.805766 C 280.611323 40.448976 279.729842 40.270581 278.785397 40.270581 C 277.877681 40.270581 277.017187 40.448976 276.203916 40.805766 C 275.390644 41.162556 274.687557 41.640025 274.089409 42.238173 C 273.496508 42.831075 273.024286 43.528914 272.667496 44.342186 C 272.310705 45.155458 272.13231 46.031692 272.13231 46.981384 C 272.13231 47.899594 272.310705 48.765334 272.667496 49.578606 C 273.024286 50.376137 273.496508 51.079223 274.089409 51.677372 C 274.687557 52.270273 275.390644 52.742495 276.203916 53.099285 C 277.017187 53.456075 277.877681 53.634471 278.785397 53.634471 Z M 309.532313 51.85052 C 310.760091 52.926137 312.187251 53.461322 313.808548 53.461322 C 314.600832 53.461322 315.366881 53.335396 316.101449 53.083545 C 316.836017 52.821199 317.59682 52.390952 318.389104 51.792804 C 318.866573 51.436014 319.291573 51.189409 319.664104 51.052989 C 320.041882 50.921816 320.451141 50.853606 320.886635 50.853606 C 322.035709 50.853606 322.980153 51.231384 323.725215 51.981693 C 324.480771 52.726754 324.858549 53.655458 324.858549 54.767804 C 324.858549 55.596816 324.617191 56.362866 324.144968 57.055458 C 323.672746 57.742804 322.91719 58.445891 321.883548 59.159471 C 320.781696 59.951755 319.51719 60.55515 318.084783 60.969656 C 316.668116 61.384162 315.240955 61.594039 313.808548 61.594039 C 311.835708 61.594039 309.957313 61.20052 308.168115 60.408236 C 306.394658 59.610706 304.825831 58.545582 303.472127 57.202372 C 302.128917 55.859162 301.063794 54.295582 300.27151 52.516878 C 299.484473 50.732927 299.096201 48.844038 299.096201 46.865952 C 299.096201 44.882618 299.479226 43.014717 300.240028 41.257001 C 301.011325 39.494037 302.060707 37.956692 303.388177 36.629222 C 304.720893 35.296506 306.258239 34.247123 307.994967 33.486321 C 309.736943 32.709778 311.59435 32.326753 313.577684 32.326753 C 315.162252 32.326753 316.704844 32.589099 318.200215 33.124284 C 319.711326 33.654222 321.038795 34.378296 322.187869 35.296506 C 323.336944 36.204222 324.255154 37.253605 324.942499 38.444655 C 325.640339 39.619963 325.986635 40.868729 325.986635 42.180457 C 325.986635 43.051445 325.74003 43.770272 325.24682 44.342186 C 324.75361 44.9141 323.914104 45.480766 322.723055 46.036939 Z M 317.318733 41.702988 C 316.605153 40.590642 315.435091 40.039716 313.808548 40.039716 C 312.071819 40.039716 310.576449 40.61163 309.327683 41.760704 C 308.084165 42.915025 307.381078 44.336939 307.228918 46.036939 Z M 332.875833 56.126755 L 332.875833 38.255766 C 332.875833 37.662864 332.886327 37.180148 332.907315 36.802371 C 332.928302 36.42984 332.944043 36.115025 332.965031 35.863173 C 332.986018 35.600827 333.033241 35.37521 333.111944 35.181074 C 333.185401 34.976445 333.290339 34.777062 333.416265 34.572432 C 334.208549 33.187247 335.331389 32.499901 336.790031 32.499901 C 338.416574 32.499901 339.623364 33.271197 340.415648 34.819037 C 342.320278 33.155765 344.361328 32.326753 346.53355 32.326753 C 347.24713 32.326753 347.913489 32.452679 348.522131 32.715025 C 349.136019 32.966876 349.676452 33.313173 350.127686 33.74342 C 350.584168 34.178914 350.946205 34.698358 351.213797 35.296506 C 351.497131 35.884161 351.638797 36.519037 351.638797 37.195889 C 351.638797 38.502371 351.171822 39.60947 350.243118 40.517186 C 349.319661 41.424902 348.196822 41.876136 346.879846 41.876136 C 346.328921 41.876136 345.90392 41.81842 345.604846 41.702988 C 345.316266 41.587556 344.796822 41.30947 344.041266 40.863482 C 343.443118 40.517186 342.923673 40.344038 342.488179 40.344038 C 341.85855 40.344038 341.417809 40.616877 341.155463 41.167803 C 340.903611 41.718729 340.777686 42.647433 340.777686 43.953914 L 340.777686 57.029224 C 340.730463 58.372434 340.357932 59.437557 339.660093 60.229841 C 338.977994 61.022125 338.038796 61.420891 336.847747 61.420891 C 335.661944 61.420891 334.701759 61.016878 333.967191 60.203607 C 333.23787 59.390335 332.875833 58.330459 332.875833 57.029224 Z M 332.875833 56.126755 " stroke="#ff66c4" stroke-width="2.226761" stroke-opacity="1" stroke-miterlimit="4"/><g mask="url(#6641afff5e)"><g transform="matrix(1, 0, 0, 1, 170, 47)"><g clip-path="url(#ce6e5b7c94)"><g clip-path="url(#5ea07d616d)"><g clip-path="url(#b359387c25)"><path fill="#ff66c4" d="M 1.105469 1.109375 L 19.113281 1.109375 L 19.113281 16.867188 L 1.105469 16.867188 Z M 1.105469 1.109375 " fill-opacity="1" fill-rule="nonzero"/></g></g></g></g></g><g fill="#ffb3e1" fill-opacity="1"><g transform="translate(205.394244, 61.265479)"><g><path d="M 4 -4.953125 C 4.007812 -4.703125 4.070312 -4.457031 4.1875 -4.21875 C 4.3125 -3.988281 4.460938 -3.789062 4.640625 -3.625 C 4.828125 -3.46875 5.035156 -3.34375 5.265625 -3.25 C 5.492188 -3.15625 5.742188 -3.109375 6.015625 -3.109375 C 6.273438 -3.109375 6.523438 -3.160156 6.765625 -3.265625 C 7.015625 -3.367188 7.234375 -3.507812 7.421875 -3.6875 C 7.609375 -3.863281 7.753906 -4.066406 7.859375 -4.296875 C 7.960938 -4.523438 8.015625 -4.765625 8.015625 -5.015625 C 8.015625 -5.460938 7.859375 -5.875 7.546875 -6.25 C 7.234375 -6.632812 6.851562 -6.90625 6.40625 -7.0625 C 6.226562 -7.101562 6.09375 -7.132812 6 -7.15625 C 5.90625 -7.1875 5.832031 -7.210938 5.78125 -7.234375 C 5.726562 -7.265625 5.691406 -7.289062 5.671875 -7.3125 C 5.648438 -7.332031 5.613281 -7.363281 5.5625 -7.40625 C 5.476562 -7.5 5.410156 -7.613281 5.359375 -7.75 C 5.316406 -7.894531 5.296875 -8.046875 5.296875 -8.203125 C 5.296875 -8.691406 5.460938 -9.007812 5.796875 -9.15625 L 6.34375 -9.453125 C 6.550781 -9.566406 6.722656 -9.71875 6.859375 -9.90625 C 6.992188 -10.101562 7.0625 -10.3125 7.0625 -10.53125 C 7.0625 -10.84375 6.945312 -11.113281 6.71875 -11.34375 C 6.488281 -11.570312 6.222656 -11.6875 5.921875 -11.6875 C 5.378906 -11.6875 4.976562 -11.316406 4.71875 -10.578125 C 4.570312 -10.191406 4.382812 -9.914062 4.15625 -9.75 C 3.925781 -9.59375 3.613281 -9.515625 3.21875 -9.515625 C 2.695312 -9.515625 2.273438 -9.679688 1.953125 -10.015625 C 1.628906 -10.347656 1.46875 -10.78125 1.46875 -11.3125 C 1.46875 -11.6875 1.570312 -12.082031 1.78125 -12.5 C 2 -12.925781 2.300781 -13.332031 2.6875 -13.71875 C 3.5625 -14.582031 4.617188 -15.015625 5.859375 -15.015625 C 6.460938 -15.015625 7.035156 -14.90625 7.578125 -14.6875 C 8.128906 -14.46875 8.613281 -14.164062 9.03125 -13.78125 C 9.457031 -13.40625 9.796875 -12.96875 10.046875 -12.46875 C 10.296875 -11.96875 10.421875 -11.441406 10.421875 -10.890625 C 10.421875 -10.460938 10.347656 -10.0625 10.203125 -9.6875 C 10.054688 -9.320312 9.8125 -8.945312 9.46875 -8.5625 C 9.769531 -8.375 10 -8.21875 10.15625 -8.09375 C 10.3125 -7.96875 10.453125 -7.8125 10.578125 -7.625 C 10.859375 -7.300781 11.082031 -6.90625 11.25 -6.4375 C 11.414062 -5.976562 11.5 -5.519531 11.5 -5.0625 C 11.5 -4.351562 11.347656 -3.675781 11.046875 -3.03125 C 10.753906 -2.394531 10.351562 -1.835938 9.84375 -1.359375 C 9.34375 -0.878906 8.757812 -0.492188 8.09375 -0.203125 C 7.425781 0.078125 6.734375 0.21875 6.015625 0.21875 C 5.285156 0.21875 4.585938 0.078125 3.921875 -0.203125 C 3.253906 -0.484375 2.671875 -0.859375 2.171875 -1.328125 C 1.671875 -1.804688 1.269531 -2.351562 0.96875 -2.96875 C 0.664062 -3.59375 0.515625 -4.242188 0.515625 -4.921875 C 0.515625 -5.472656 0.679688 -5.925781 1.015625 -6.28125 C 1.347656 -6.632812 1.769531 -6.8125 2.28125 -6.8125 C 2.757812 -6.8125 3.148438 -6.675781 3.453125 -6.40625 C 3.753906 -6.144531 3.925781 -5.800781 3.96875 -5.375 Z M 4 -4.953125 "/></g></g></g><g fill="#ffb3e1" fill-opacity="1"><g transform="translate(221.056317, 61.265479)"><g><path d="M 3.59375 0 C 2.28125 -0.03125 1.625 -0.6875 1.625 -1.96875 L 1.625 -12.828125 C 1.644531 -14.140625 2.300781 -14.796875 3.59375 -14.796875 L 6.859375 -14.796875 C 7.992188 -14.796875 8.945312 -14.675781 9.71875 -14.4375 C 10.5 -14.207031 11.238281 -13.816406 11.9375 -13.265625 C 12.851562 -12.523438 13.5625 -11.644531 14.0625 -10.625 C 14.570312 -9.601562 14.828125 -8.515625 14.828125 -7.359375 C 14.828125 -6.722656 14.742188 -6.097656 14.578125 -5.484375 C 14.410156 -4.878906 14.171875 -4.304688 13.859375 -3.765625 C 13.554688 -3.222656 13.179688 -2.722656 12.734375 -2.265625 C 12.285156 -1.804688 11.789062 -1.40625 11.25 -1.0625 C 10.09375 -0.351562 8.628906 0 6.859375 0 Z M 6.453125 -3.078125 C 7.191406 -3.078125 7.789062 -3.125 8.25 -3.21875 C 8.707031 -3.320312 9.128906 -3.5 9.515625 -3.75 C 10.109375 -4.132812 10.570312 -4.644531 10.90625 -5.28125 C 11.25 -5.914062 11.421875 -6.609375 11.421875 -7.359375 C 11.421875 -7.992188 11.300781 -8.570312 11.0625 -9.09375 C 10.832031 -9.625 10.5 -10.070312 10.0625 -10.4375 C 9.625 -10.8125 9.101562 -11.101562 8.5 -11.3125 C 7.894531 -11.519531 7.222656 -11.625 6.484375 -11.625 L 5.015625 -11.625 L 5.015625 -3.078125 Z M 6.453125 -3.078125 "/></g></g></g><g fill="#ffb3e1" fill-opacity="1"><g transform="translate(240.045877, 61.265479)"><g/></g></g><g fill="#ffb3e1" fill-opacity="1"><g transform="translate(249.319152, 61.265479)"><g><path d="M 0.59375 -5.28125 C 0.59375 -6.019531 0.738281 -6.722656 1.03125 -7.390625 C 1.320312 -8.054688 1.710938 -8.632812 2.203125 -9.125 C 2.703125 -9.625 3.28125 -10.015625 3.9375 -10.296875 C 4.59375 -10.585938 5.289062 -10.734375 6.03125 -10.734375 C 6.59375 -10.734375 7.148438 -10.644531 7.703125 -10.46875 C 8.265625 -10.289062 8.773438 -10.046875 9.234375 -9.734375 C 9.628906 -9.453125 9.90625 -9.195312 10.0625 -8.96875 C 10.21875 -8.738281 10.296875 -8.472656 10.296875 -8.171875 C 10.296875 -7.753906 10.148438 -7.40625 9.859375 -7.125 C 9.566406 -6.84375 9.207031 -6.703125 8.78125 -6.703125 C 8.601562 -6.703125 8.457031 -6.722656 8.34375 -6.765625 C 8.226562 -6.804688 8.066406 -6.910156 7.859375 -7.078125 C 7.523438 -7.328125 7.238281 -7.503906 7 -7.609375 C 6.757812 -7.710938 6.484375 -7.765625 6.171875 -7.765625 C 5.816406 -7.765625 5.476562 -7.695312 5.15625 -7.5625 C 4.84375 -7.425781 4.570312 -7.242188 4.34375 -7.015625 C 4.113281 -6.785156 3.929688 -6.519531 3.796875 -6.21875 C 3.660156 -5.914062 3.59375 -5.597656 3.59375 -5.265625 C 3.59375 -4.898438 3.660156 -4.566406 3.796875 -4.265625 C 3.929688 -3.960938 4.113281 -3.703125 4.34375 -3.484375 C 4.570312 -3.265625 4.835938 -3.085938 5.140625 -2.953125 C 5.441406 -2.816406 5.769531 -2.75 6.125 -2.75 C 6.582031 -2.75 6.957031 -2.847656 7.25 -3.046875 C 7.300781 -3.066406 7.390625 -3.117188 7.515625 -3.203125 C 7.640625 -3.296875 7.804688 -3.421875 8.015625 -3.578125 C 8.171875 -3.691406 8.316406 -3.773438 8.453125 -3.828125 C 8.597656 -3.878906 8.753906 -3.90625 8.921875 -3.90625 C 9.335938 -3.90625 9.6875 -3.757812 9.96875 -3.46875 C 10.257812 -3.1875 10.40625 -2.835938 10.40625 -2.421875 C 10.40625 -2.097656 10.28125 -1.78125 10.03125 -1.46875 C 9.78125 -1.15625 9.453125 -0.875 9.046875 -0.625 C 8.640625 -0.375 8.179688 -0.171875 7.671875 -0.015625 C 7.160156 0.140625 6.632812 0.21875 6.09375 0.21875 C 5.34375 0.21875 4.628906 0.078125 3.953125 -0.203125 C 3.285156 -0.492188 2.703125 -0.890625 2.203125 -1.390625 C 1.710938 -1.898438 1.320312 -2.488281 1.03125 -3.15625 C 0.738281 -3.820312 0.59375 -4.53125 0.59375 -5.28125 Z M 0.59375 -5.28125 "/></g></g></g><g fill="#ffb3e1" fill-opacity="1"><g transform="translate(263.672401, 61.265479)"><g><path d="M 1.328125 -1.8125 L 1.328125 -8.5 C 1.328125 -8.71875 1.332031 -8.894531 1.34375 -9.03125 C 1.351562 -9.175781 1.359375 -9.296875 1.359375 -9.390625 C 1.367188 -9.492188 1.390625 -9.582031 1.421875 -9.65625 C 1.453125 -9.726562 1.488281 -9.800781 1.53125 -9.875 C 1.820312 -10.394531 2.242188 -10.65625 2.796875 -10.65625 C 3.398438 -10.65625 3.851562 -10.363281 4.15625 -9.78125 C 4.863281 -10.40625 5.625 -10.71875 6.4375 -10.71875 C 6.695312 -10.71875 6.941406 -10.664062 7.171875 -10.5625 C 7.398438 -10.46875 7.597656 -10.335938 7.765625 -10.171875 C 7.941406 -10.015625 8.082031 -9.828125 8.1875 -9.609375 C 8.289062 -9.390625 8.34375 -9.148438 8.34375 -8.890625 C 8.34375 -8.410156 8.164062 -8 7.8125 -7.65625 C 7.46875 -7.3125 7.050781 -7.140625 6.5625 -7.140625 C 6.351562 -7.140625 6.191406 -7.160156 6.078125 -7.203125 C 5.972656 -7.253906 5.78125 -7.359375 5.5 -7.515625 C 5.28125 -7.648438 5.085938 -7.71875 4.921875 -7.71875 C 4.691406 -7.71875 4.523438 -7.613281 4.421875 -7.40625 C 4.328125 -7.195312 4.28125 -6.851562 4.28125 -6.375 L 4.28125 -1.484375 C 4.269531 -0.984375 4.132812 -0.582031 3.875 -0.28125 C 3.613281 0.0078125 3.257812 0.15625 2.8125 0.15625 C 2.375 0.15625 2.015625 0.00390625 1.734375 -0.296875 C 1.460938 -0.597656 1.328125 -0.992188 1.328125 -1.484375 Z M 1.328125 -1.8125 "/></g></g></g><g fill="#ffb3e1" fill-opacity="1"><g transform="translate(275.518941, 61.265479)"><g><path d="M 6.140625 -10.71875 C 6.898438 -10.71875 7.613281 -10.570312 8.28125 -10.28125 C 8.945312 -9.988281 9.523438 -9.59375 10.015625 -9.09375 C 10.515625 -8.601562 10.90625 -8.023438 11.1875 -7.359375 C 11.476562 -6.703125 11.625 -5.988281 11.625 -5.21875 C 11.625 -4.476562 11.476562 -3.773438 11.1875 -3.109375 C 10.90625 -2.453125 10.507812 -1.875 10 -1.375 C 9.5 -0.882812 8.914062 -0.492188 8.25 -0.203125 C 7.582031 0.078125 6.875 0.21875 6.125 0.21875 C 5.363281 0.21875 4.644531 0.078125 3.96875 -0.203125 C 3.300781 -0.484375 2.71875 -0.863281 2.21875 -1.34375 C 1.726562 -1.832031 1.332031 -2.398438 1.03125 -3.046875 C 0.738281 -3.703125 0.59375 -4.398438 0.59375 -5.140625 C 0.59375 -5.929688 0.738281 -6.664062 1.03125 -7.34375 C 1.320312 -8.019531 1.710938 -8.601562 2.203125 -9.09375 C 2.703125 -9.59375 3.285156 -9.988281 3.953125 -10.28125 C 4.628906 -10.570312 5.359375 -10.71875 6.140625 -10.71875 Z M 6.140625 -7.765625 C 5.785156 -7.765625 5.453125 -7.695312 5.140625 -7.5625 C 4.835938 -7.425781 4.570312 -7.242188 4.34375 -7.015625 C 4.113281 -6.785156 3.929688 -6.515625 3.796875 -6.203125 C 3.671875 -5.898438 3.609375 -5.5625 3.609375 -5.1875 C 3.609375 -4.863281 3.675781 -4.550781 3.8125 -4.25 C 3.945312 -3.957031 4.128906 -3.703125 4.359375 -3.484375 C 4.585938 -3.265625 4.851562 -3.085938 5.15625 -2.953125 C 5.457031 -2.828125 5.78125 -2.765625 6.125 -2.765625 C 6.46875 -2.765625 6.789062 -2.832031 7.09375 -2.96875 C 7.394531 -3.101562 7.660156 -3.28125 7.890625 -3.5 C 8.117188 -3.726562 8.296875 -3.992188 8.421875 -4.296875 C 8.554688 -4.597656 8.625 -4.921875 8.625 -5.265625 C 8.625 -5.617188 8.554688 -5.945312 8.421875 -6.25 C 8.296875 -6.550781 8.117188 -6.8125 7.890625 -7.03125 C 7.671875 -7.25 7.410156 -7.425781 7.109375 -7.5625 C 6.804688 -7.695312 6.484375 -7.765625 6.140625 -7.765625 Z M 6.140625 -7.765625 "/></g></g></g><g fill="#ffb3e1" fill-opacity="1"><g transform="translate(291.247561, 61.265479)"><g><path d="M 0.59375 -5.28125 C 0.59375 -6.019531 0.738281 -6.722656 1.03125 -7.390625 C 1.320312 -8.054688 1.710938 -8.632812 2.203125 -9.125 C 2.703125 -9.625 3.28125 -10.015625 3.9375 -10.296875 C 4.59375 -10.585938 5.289062 -10.734375 6.03125 -10.734375 C 6.59375 -10.734375 7.148438 -10.644531 7.703125 -10.46875 C 8.265625 -10.289062 8.773438 -10.046875 9.234375 -9.734375 C 9.628906 -9.453125 9.90625 -9.195312 10.0625 -8.96875 C 10.21875 -8.738281 10.296875 -8.472656 10.296875 -8.171875 C 10.296875 -7.753906 10.148438 -7.40625 9.859375 -7.125 C 9.566406 -6.84375 9.207031 -6.703125 8.78125 -6.703125 C 8.601562 -6.703125 8.457031 -6.722656 8.34375 -6.765625 C 8.226562 -6.804688 8.066406 -6.910156 7.859375 -7.078125 C 7.523438 -7.328125 7.238281 -7.503906 7 -7.609375 C 6.757812 -7.710938 6.484375 -7.765625 6.171875 -7.765625 C 5.816406 -7.765625 5.476562 -7.695312 5.15625 -7.5625 C 4.84375 -7.425781 4.570312 -7.242188 4.34375 -7.015625 C 4.113281 -6.785156 3.929688 -6.519531 3.796875 -6.21875 C 3.660156 -5.914062 3.59375 -5.597656 3.59375 -5.265625 C 3.59375 -4.898438 3.660156 -4.566406 3.796875 -4.265625 C 3.929688 -3.960938 4.113281 -3.703125 4.34375 -3.484375 C 4.570312 -3.265625 4.835938 -3.085938 5.140625 -2.953125 C 5.441406 -2.816406 5.769531 -2.75 6.125 -2.75 C 6.582031 -2.75 6.957031 -2.847656 7.25 -3.046875 C 7.300781 -3.066406 7.390625 -3.117188 7.515625 -3.203125 C 7.640625 -3.296875 7.804688 -3.421875 8.015625 -3.578125 C 8.171875 -3.691406 8.316406 -3.773438 8.453125 -3.828125 C 8.597656 -3.878906 8.753906 -3.90625 8.921875 -3.90625 C 9.335938 -3.90625 9.6875 -3.757812 9.96875 -3.46875 C 10.257812 -3.1875 10.40625 -2.835938 10.40625 -2.421875 C 10.40625 -2.097656 10.28125 -1.78125 10.03125 -1.46875 C 9.78125 -1.15625 9.453125 -0.875 9.046875 -0.625 C 8.640625 -0.375 8.179688 -0.171875 7.671875 -0.015625 C 7.160156 0.140625 6.632812 0.21875 6.09375 0.21875 C 5.34375 0.21875 4.628906 0.078125 3.953125 -0.203125 C 3.285156 -0.492188 2.703125 -0.890625 2.203125 -1.390625 C 1.710938 -1.898438 1.320312 -2.488281 1.03125 -3.15625 C 0.738281 -3.820312 0.59375 -4.53125 0.59375 -5.28125 Z M 0.59375 -5.28125 "/></g></g></g><g fill="#ffb3e1" fill-opacity="1"><g transform="translate(305.600804, 61.265479)"><g><path d="M 1.328125 -1.8125 L 1.328125 -13.15625 C 1.347656 -13.65625 1.488281 -14.050781 1.75 -14.34375 C 2.019531 -14.644531 2.375 -14.796875 2.8125 -14.796875 C 3.257812 -14.796875 3.613281 -14.644531 3.875 -14.34375 C 4.144531 -14.039062 4.28125 -13.644531 4.28125 -13.15625 L 4.28125 -10.1875 C 4.625 -10.394531 4.941406 -10.535156 5.234375 -10.609375 C 5.535156 -10.679688 5.875 -10.71875 6.25 -10.71875 C 7.070312 -10.71875 7.8125 -10.539062 8.46875 -10.1875 C 9.132812 -9.84375 9.671875 -9.351562 10.078125 -8.71875 C 10.222656 -8.5 10.335938 -8.289062 10.421875 -8.09375 C 10.515625 -7.90625 10.585938 -7.695312 10.640625 -7.46875 C 10.691406 -7.25 10.726562 -7.003906 10.75 -6.734375 C 10.769531 -6.472656 10.78125 -6.160156 10.78125 -5.796875 L 10.78125 -1.484375 C 10.769531 -0.984375 10.628906 -0.582031 10.359375 -0.28125 C 10.097656 0.0078125 9.742188 0.15625 9.296875 0.15625 C 8.847656 0.15625 8.488281 0.00390625 8.21875 -0.296875 C 7.957031 -0.597656 7.828125 -0.992188 7.828125 -1.484375 L 7.828125 -5.5 C 7.828125 -5.84375 7.804688 -6.101562 7.765625 -6.28125 C 7.734375 -6.457031 7.675781 -6.632812 7.59375 -6.8125 C 7.457031 -7.101562 7.25 -7.332031 6.96875 -7.5 C 6.6875 -7.664062 6.390625 -7.75 6.078125 -7.75 C 5.785156 -7.75 5.5 -7.671875 5.21875 -7.515625 C 4.9375 -7.359375 4.722656 -7.15625 4.578125 -6.90625 C 4.472656 -6.726562 4.394531 -6.53125 4.34375 -6.3125 C 4.300781 -6.09375 4.28125 -5.820312 4.28125 -5.5 L 4.28125 -1.484375 C 4.269531 -0.984375 4.132812 -0.582031 3.875 -0.28125 C 3.613281 0.0078125 3.257812 0.15625 2.8125 0.15625 C 2.375 0.15625 2.015625 0.00390625 1.734375 -0.296875 C 1.460938 -0.597656 1.328125 -0.992188 1.328125 -1.484375 Z M 1.328125 -1.8125 "/></g></g></g><g fill="#ffb3e1" fill-opacity="1"><g transform="translate(321.129778, 61.265479)"><g><path d="M 4.5 -3.421875 C 4.957031 -3.015625 5.488281 -2.8125 6.09375 -2.8125 C 6.394531 -2.8125 6.679688 -2.859375 6.953125 -2.953125 C 7.222656 -3.054688 7.507812 -3.21875 7.8125 -3.4375 C 7.988281 -3.570312 8.144531 -3.664062 8.28125 -3.71875 C 8.425781 -3.769531 8.578125 -3.796875 8.734375 -3.796875 C 9.171875 -3.796875 9.53125 -3.65625 9.8125 -3.375 C 10.09375 -3.09375 10.234375 -2.742188 10.234375 -2.328125 C 10.234375 -2.015625 10.144531 -1.726562 9.96875 -1.46875 C 9.789062 -1.21875 9.507812 -0.957031 9.125 -0.6875 C 8.707031 -0.394531 8.234375 -0.171875 7.703125 -0.015625 C 7.171875 0.140625 6.632812 0.21875 6.09375 0.21875 C 5.351562 0.21875 4.648438 0.0703125 3.984375 -0.21875 C 3.328125 -0.519531 2.742188 -0.921875 2.234375 -1.421875 C 1.734375 -1.921875 1.332031 -2.503906 1.03125 -3.171875 C 0.738281 -3.835938 0.59375 -4.539062 0.59375 -5.28125 C 0.59375 -6.019531 0.738281 -6.71875 1.03125 -7.375 C 1.320312 -8.03125 1.710938 -8.601562 2.203125 -9.09375 C 2.703125 -9.59375 3.273438 -9.988281 3.921875 -10.28125 C 4.578125 -10.570312 5.273438 -10.71875 6.015625 -10.71875 C 6.609375 -10.71875 7.1875 -10.617188 7.75 -10.421875 C 8.3125 -10.222656 8.804688 -9.953125 9.234375 -9.609375 C 9.660156 -9.265625 10.003906 -8.867188 10.265625 -8.421875 C 10.523438 -7.984375 10.65625 -7.519531 10.65625 -7.03125 C 10.65625 -6.707031 10.5625 -6.4375 10.375 -6.21875 C 10.1875 -6.007812 9.867188 -5.800781 9.421875 -5.59375 Z M 7.40625 -7.203125 C 7.144531 -7.617188 6.707031 -7.828125 6.09375 -7.828125 C 5.445312 -7.828125 4.890625 -7.613281 4.421875 -7.1875 C 3.960938 -6.757812 3.703125 -6.226562 3.640625 -5.59375 Z M 7.40625 -7.203125 "/></g></g></g><g fill="#ffb3e1" fill-opacity="1"><g transform="translate(335.727055, 61.265479)"><g><path d="M 1.84375 -1.8125 L 1.84375 -7.828125 L 1.6875 -7.828125 C 1.207031 -7.828125 0.832031 -7.945312 0.5625 -8.1875 C 0.289062 -8.425781 0.15625 -8.75 0.15625 -9.15625 C 0.15625 -10.070312 0.71875 -10.519531 1.84375 -10.5 L 1.84375 -12.40625 C 1.851562 -12.914062 1.988281 -13.316406 2.25 -13.609375 C 2.519531 -13.898438 2.878906 -14.046875 3.328125 -14.046875 C 3.753906 -14.046875 4.101562 -13.894531 4.375 -13.59375 C 4.65625 -13.289062 4.796875 -12.894531 4.796875 -12.40625 L 4.796875 -10.5 L 5.4375 -10.5 C 5.875 -10.476562 6.226562 -10.347656 6.5 -10.109375 C 6.769531 -9.878906 6.90625 -9.5625 6.90625 -9.15625 C 6.90625 -8.78125 6.765625 -8.460938 6.484375 -8.203125 C 6.210938 -7.953125 5.863281 -7.828125 5.4375 -7.828125 L 4.796875 -7.828125 L 4.796875 -1.484375 C 4.773438 -0.984375 4.628906 -0.582031 4.359375 -0.28125 C 4.097656 0.0078125 3.75 0.15625 3.3125 0.15625 C 2.875 0.15625 2.519531 0.00390625 2.25 -0.296875 C 1.976562 -0.597656 1.84375 -0.992188 1.84375 -1.484375 Z M 1.84375 -1.8125 "/></g></g></g><path stroke-linecap="butt" transform="matrix(0.744485, 0, 0, 0.744485, 196.899041, 37.950364)" fill="none" stroke-linejoin="miter" d="M 15.456598 23.357722 C 15.477586 23.693525 15.566783 24.013587 15.724191 24.323155 C 15.886845 24.632723 16.086228 24.895068 16.33808 25.110192 C 16.584685 25.330562 16.857524 25.50371 17.167092 25.634883 C 17.47666 25.766056 17.812462 25.829019 18.169253 25.829019 C 18.526043 25.829019 18.872339 25.760809 19.197648 25.619142 C 19.522956 25.477476 19.811537 25.288587 20.063388 25.052476 C 20.309993 24.816365 20.504129 24.543525 20.640549 24.239204 C 20.782216 23.929636 20.855672 23.604327 20.855672 23.263278 C 20.855672 22.66513 20.645796 22.108957 20.226043 21.594759 C 19.811537 21.080562 19.302586 20.718525 18.709685 20.519142 C 18.468327 20.461426 18.284685 20.414204 18.153512 20.372228 C 18.022339 20.3355 17.922648 20.304019 17.854438 20.272537 C 17.786228 20.246302 17.739006 20.214821 17.702277 20.18334 C 17.676043 20.151858 17.62882 20.104636 17.571104 20.04692 C 17.455672 19.926241 17.366475 19.77408 17.303512 19.590438 C 17.245796 19.401549 17.214314 19.191673 17.214314 18.971302 C 17.214314 18.315438 17.434685 17.890438 17.870178 17.691055 L 18.61524 17.302784 C 18.893327 17.145376 19.124191 16.9355 19.302586 16.678401 C 19.486228 16.421302 19.575425 16.143216 19.575425 15.844142 C 19.575425 15.424389 19.418018 15.062352 19.10845 14.75803 C 18.804129 14.448463 18.452586 14.291055 18.05382 14.291055 C 17.314006 14.291055 16.77882 14.789512 16.437771 15.786426 C 16.238388 16.300623 15.986536 16.673154 15.682215 16.888278 C 15.377894 17.108648 14.952894 17.218833 14.417709 17.218833 C 13.719869 17.218833 13.153203 16.993216 12.712462 16.547228 C 12.276968 16.095994 12.056598 15.513586 12.056598 14.800006 C 12.056598 14.306796 12.203511 13.776858 12.486845 13.210191 C 12.780672 12.643524 13.184684 12.097845 13.704129 11.583648 C 14.868944 10.413586 16.290857 9.825931 17.959376 9.825931 C 18.772648 9.825931 19.549191 9.978092 20.278512 10.277166 C 21.018327 10.570993 21.668944 10.975006 22.235611 11.483956 C 22.802278 11.98766 23.253512 12.575314 23.589315 13.252166 C 23.930364 13.923771 24.098265 14.632105 24.098265 15.366673 C 24.098265 15.943833 23.998574 16.484265 23.799191 16.977475 C 23.599808 17.470685 23.2745 17.979636 22.818018 18.49908 C 23.216784 18.756179 23.521105 18.966055 23.725734 19.139204 C 23.935611 19.307105 24.129747 19.511735 24.308142 19.747846 C 24.68592 20.18334 24.984994 20.718525 25.205364 21.342908 C 25.420488 21.96729 25.530673 22.586426 25.530673 23.205562 C 25.530673 24.1605 25.33129 25.06297 24.937772 25.918216 C 24.539006 26.773463 23.998574 27.523772 23.321722 28.169143 C 22.64487 28.809266 21.86308 29.328711 20.971105 29.716982 C 20.079129 30.105254 19.145179 30.29939 18.169253 30.29939 C 17.193327 30.29939 16.259376 30.110501 15.3674 29.732723 C 14.475425 29.354945 13.688388 28.845994 13.011536 28.211118 C 12.334684 27.576241 11.794252 26.841673 11.39024 26.007414 C 10.98098 25.173155 10.776351 24.29692 10.776351 23.389204 C 10.776351 22.649389 11.001968 22.040747 11.447956 21.568525 C 11.89919 21.091056 12.471104 20.854945 13.163697 20.854945 C 13.798573 20.854945 14.323265 21.03334 14.727277 21.395377 C 15.136536 21.74692 15.3674 22.213895 15.425117 22.791056 Z M 35.961538 30.000316 C 34.193328 29.963587 33.306599 29.076859 33.306599 27.345377 L 33.306599 12.779944 C 33.343328 11.006487 34.230056 10.125005 35.961538 10.125005 L 40.342711 10.125005 C 41.869563 10.125005 43.155057 10.282413 44.199193 10.602475 C 45.238082 10.917289 46.229748 11.447228 47.163699 12.181796 C 48.396724 13.173462 49.351662 14.354018 50.023267 15.723463 C 50.700119 17.098154 51.035922 18.556796 51.035922 20.104636 C 51.035922 20.959883 50.925736 21.799389 50.710613 22.623155 C 50.490242 23.44692 50.175428 24.223463 49.755675 24.952784 C 49.341168 25.671612 48.832218 26.343217 48.234069 26.957105 C 47.641168 27.576241 46.97481 28.111427 46.240242 28.567908 C 44.692403 29.522846 42.72481 30.000316 40.342711 30.000316 Z M 39.802279 25.8605 C 40.799192 25.8605 41.60197 25.792291 42.221106 25.666365 C 42.834995 25.535192 43.401662 25.299081 43.915859 24.963278 C 44.708143 24.443834 45.337773 23.761735 45.789008 22.906488 C 46.245489 22.051241 46.476353 21.11729 46.476353 20.104636 C 46.476353 19.249389 46.313699 18.472846 45.993637 17.769759 C 45.678822 17.061426 45.227588 16.458031 44.639933 15.964821 C 44.057526 15.466364 43.359686 15.078092 42.546415 14.800006 C 41.733143 14.527166 40.825427 14.3855 39.83376 14.3855 L 37.866168 14.3855 L 37.866168 25.8605 Z M 69.903824 22.906488 C 69.903824 21.909574 70.092713 20.970377 70.475738 20.078401 C 70.864009 19.186426 71.388701 18.404636 72.055059 17.743525 C 72.726664 17.07192 73.503207 16.547228 74.384689 16.164203 C 75.26617 15.775932 76.205368 15.581796 77.197035 15.581796 C 77.957837 15.581796 78.702899 15.697228 79.447961 15.938586 C 80.193022 16.174697 80.875121 16.500006 81.48901 16.919759 C 82.029442 17.297537 82.401973 17.643833 82.61185 17.953401 C 82.821726 18.257722 82.926665 18.619759 82.926665 19.034265 C 82.926665 19.590438 82.732529 20.052167 82.344257 20.435191 C 81.955985 20.812969 81.473269 21.001858 80.896109 21.001858 C 80.654751 21.001858 80.460615 20.970377 80.297961 20.912661 C 80.140553 20.849698 79.920183 20.708031 79.642096 20.492907 C 79.206603 20.157105 78.823578 19.920994 78.493022 19.779327 C 78.167714 19.63766 77.80043 19.569451 77.380677 19.569451 C 76.903207 19.569451 76.446726 19.658648 76.021726 19.837043 C 75.591479 20.015438 75.224195 20.262043 74.914627 20.571611 C 74.610306 20.875932 74.368948 21.232722 74.185306 21.641982 C 74.012158 22.045994 73.92296 22.481488 73.92296 22.937969 C 73.92296 23.415439 74.012158 23.861426 74.185306 24.265439 C 74.368948 24.669451 74.610306 25.020994 74.914627 25.320068 C 75.224195 25.619142 75.586232 25.855254 75.990244 26.033649 C 76.399504 26.212044 76.840244 26.306488 77.317714 26.306488 C 77.931602 26.306488 78.440553 26.175315 78.834072 25.918216 C 78.897035 25.881488 79.012467 25.802784 79.180368 25.687352 C 79.348269 25.566673 79.573887 25.404019 79.851973 25.204636 C 80.072343 25.047229 80.276973 24.931797 80.465862 24.863587 C 80.654751 24.79013 80.85938 24.753402 81.074504 24.753402 C 81.630677 24.753402 82.097652 24.947537 82.485924 25.335809 C 82.874195 25.724081 83.068331 26.196303 83.068331 26.757723 C 83.068331 27.193217 82.90043 27.618217 82.559381 28.03797 C 82.228825 28.452476 81.782837 28.830254 81.237158 29.171303 C 80.686232 29.507106 80.072343 29.774698 79.390245 29.984575 C 78.702899 30.194451 78.005059 30.29939 77.286232 30.29939 C 76.278825 30.29939 75.318639 30.105254 74.410923 29.716982 C 73.508454 29.328711 72.726664 28.798772 72.055059 28.12192 C 71.388701 27.450315 70.864009 26.663278 70.475738 25.771303 C 70.092713 24.874081 69.903824 23.919142 69.903824 22.906488 Z M 90.162159 27.555254 L 90.162159 18.583031 C 90.162159 18.289204 90.167406 18.047846 90.1779 17.858957 C 90.188393 17.670068 90.198887 17.51266 90.209381 17.386734 C 90.214628 17.255562 90.240863 17.140129 90.277591 17.040438 C 90.319566 16.940747 90.372035 16.841055 90.434998 16.736117 C 90.828517 16.043524 91.395184 15.697228 92.129752 15.697228 C 92.943023 15.697228 93.546418 16.0855 93.945184 16.862043 C 94.900122 16.027784 95.92327 15.608031 97.014629 15.608031 C 97.376666 15.608031 97.707221 15.67624 98.011542 15.807413 C 98.326357 15.933339 98.59395 16.106487 98.819567 16.321611 C 99.050431 16.541981 99.228826 16.79908 99.365246 17.098154 C 99.506913 17.397228 99.575123 17.712043 99.575123 18.053092 C 99.575123 18.708957 99.344258 19.26513 98.877283 19.721611 C 98.415555 20.178093 97.848888 20.40371 97.193024 20.40371 C 96.914937 20.40371 96.699814 20.372228 96.5529 20.314512 C 96.405987 20.256796 96.143641 20.11513 95.765863 19.894759 C 95.466789 19.721611 95.204443 19.632414 94.98932 19.632414 C 94.669258 19.632414 94.448888 19.768833 94.317715 20.04692 C 94.191789 20.325006 94.128826 20.786735 94.128826 21.442599 L 94.128826 28.006488 C 94.102591 28.68334 93.918949 29.218525 93.567406 29.612044 C 93.226357 30.010809 92.754134 30.210192 92.155986 30.210192 C 91.557838 30.210192 91.075122 30.005562 90.707838 29.60155 C 90.345801 29.192291 90.162159 28.662352 90.162159 28.006488 Z M 112.545494 15.608031 C 113.552901 15.608031 114.502593 15.802166 115.394568 16.190438 C 116.29179 16.573463 117.073581 17.098154 117.739939 17.769759 C 118.406297 18.436117 118.936235 19.21266 119.31926 20.104636 C 119.707531 20.996611 119.89642 21.962043 119.89642 22.995685 C 119.89642 23.987352 119.707531 24.92655 119.31926 25.818525 C 118.936235 26.700007 118.40105 27.471303 117.724198 28.137661 C 117.047346 28.804019 116.265556 29.328711 115.368334 29.716982 C 114.476358 30.105254 113.52142 30.29939 112.508765 30.29939 C 111.496111 30.29939 110.541173 30.110501 109.633457 29.732723 C 108.730987 29.354945 107.94395 28.835501 107.277592 28.179636 C 106.611234 27.523772 106.081296 26.76297 105.68253 25.891982 C 105.289012 25.015747 105.094876 24.081797 105.094876 23.09013 C 105.094876 22.0355 105.283765 21.054327 105.66679 20.141364 C 106.055061 19.223154 106.585 18.436117 107.246111 17.769759 C 107.917716 17.098154 108.699506 16.573463 109.601975 16.190438 C 110.509691 15.802166 111.490864 15.608031 112.545494 15.608031 Z M 112.545494 19.569451 C 112.062778 19.569451 111.61679 19.658648 111.197037 19.837043 C 110.782531 20.015438 110.415247 20.262043 110.105679 20.571611 C 109.801358 20.875932 109.565247 21.237969 109.392099 21.657722 C 109.229444 22.072229 109.145494 22.52871 109.145494 23.032414 C 109.145494 23.467908 109.234691 23.882414 109.407839 24.281179 C 109.586234 24.674698 109.827592 25.020994 110.13716 25.320068 C 110.446728 25.619142 110.803518 25.850007 111.212778 26.017908 C 111.622037 26.191056 112.052284 26.275007 112.508765 26.275007 C 112.970494 26.275007 113.400741 26.185809 113.81 26.007414 C 114.219259 25.823772 114.570803 25.587661 114.880371 25.293834 C 115.189938 24.989513 115.431297 24.637969 115.604445 24.22871 C 115.788087 23.824698 115.877284 23.389204 115.877284 22.937969 C 115.877284 22.4605 115.788087 22.019759 115.604445 21.6105 C 115.431297 21.206488 115.195185 20.854945 114.890864 20.55587 C 114.597037 20.256796 114.245494 20.015438 113.836235 19.837043 C 113.432222 19.658648 113.001975 19.569451 112.545494 19.569451 Z M 126.218952 22.906488 C 126.218952 21.909574 126.413087 20.970377 126.796112 20.078401 C 127.184384 19.186426 127.709075 18.404636 128.375433 17.743525 C 129.041791 17.07192 129.818335 16.547228 130.699816 16.164203 C 131.586545 15.775932 132.525742 15.581796 133.517409 15.581796 C 134.272965 15.581796 135.023273 15.697228 135.763088 15.938586 C 136.513397 16.174697 137.195496 16.500006 137.809385 16.919759 C 138.349817 17.297537 138.722348 17.643833 138.932224 17.953401 C 139.136854 18.257722 139.241792 18.619759 139.241792 19.034265 C 139.241792 19.590438 139.047656 20.052167 138.659385 20.435191 C 138.271113 20.812969 137.788397 21.001858 137.211236 21.001858 C 136.975125 21.001858 136.775742 20.970377 136.618335 20.912661 C 136.455681 20.849698 136.240557 20.708031 135.962471 20.492907 C 135.526977 20.157105 135.143952 19.920994 134.813397 19.779327 C 134.488088 19.63766 134.115557 19.569451 133.701051 19.569451 C 133.218335 19.569451 132.7671 19.658648 132.336853 19.837043 C 131.911853 20.015438 131.544569 20.262043 131.235001 20.571611 C 130.925433 20.875932 130.684075 21.232722 130.50568 21.641982 C 130.332532 22.045994 130.243335 22.481488 130.243335 22.937969 C 130.243335 23.415439 130.332532 23.861426 130.50568 24.265439 C 130.684075 24.669451 130.925433 25.020994 131.235001 25.320068 C 131.544569 25.619142 131.901359 25.855254 132.310619 26.033649 C 132.719878 26.212044 133.160619 26.306488 133.632841 26.306488 C 134.251977 26.306488 134.755681 26.175315 135.154446 25.918216 C 135.217409 25.881488 135.332841 25.802784 135.495495 25.687352 C 135.668644 25.566673 135.894261 25.404019 136.172347 25.204636 C 136.392718 25.047229 136.597347 24.931797 136.786236 24.863587 C 136.975125 24.79013 137.174508 24.753402 137.394878 24.753402 C 137.945804 24.753402 138.418027 24.947537 138.806298 25.335809 C 139.19457 25.724081 139.388706 26.196303 139.388706 26.757723 C 139.388706 27.193217 139.220804 27.618217 138.879755 28.03797 C 138.543952 28.452476 138.103212 28.830254 137.557533 29.171303 C 137.006607 29.507106 136.392718 29.774698 135.705372 29.984575 C 135.023273 30.194451 134.320187 30.29939 133.606606 30.29939 C 132.593952 30.29939 131.639014 30.105254 130.731298 29.716982 C 129.828828 29.328711 129.041791 28.798772 128.375433 28.12192 C 127.709075 27.450315 127.184384 26.663278 126.796112 25.771303 C 126.413087 24.874081 126.218952 23.919142 126.218952 22.906488 Z M 146.482533 27.555254 L 146.482533 12.328709 C 146.503521 11.651857 146.687163 11.116672 147.043953 10.717907 C 147.400743 10.324388 147.878212 10.125005 148.476361 10.125005 C 149.074509 10.125005 149.551978 10.329635 149.908768 10.733647 C 150.265558 11.142907 150.4492 11.672845 150.4492 12.328709 L 150.4492 16.321611 C 150.900435 16.043524 151.330682 15.859882 151.729447 15.760191 C 152.122966 15.6605 152.579447 15.608031 153.093645 15.608031 C 154.185003 15.608031 155.17667 15.844142 156.068645 16.30587 C 156.965867 16.772845 157.684695 17.433957 158.225127 18.289204 C 158.424509 18.588278 158.581917 18.866364 158.697349 19.123463 C 158.818028 19.380562 158.912472 19.658648 158.980682 19.957722 C 159.048892 20.256796 159.096114 20.582105 159.127596 20.944142 C 159.159077 21.300932 159.180065 21.725932 159.180065 22.224389 L 159.180065 28.006488 C 159.159077 28.68334 158.970188 29.218525 158.608151 29.612044 C 158.251361 30.010809 157.773892 30.210192 157.175744 30.210192 C 156.577596 30.210192 156.100127 30.005562 155.743336 29.60155 C 155.391793 29.192291 155.213398 28.662352 155.213398 28.006488 L 155.213398 22.607414 C 155.213398 22.150932 155.187164 21.804636 155.134694 21.568525 C 155.082225 21.332414 155.003522 21.091056 154.882843 20.854945 C 154.704447 20.456179 154.426361 20.146611 154.048583 19.931488 C 153.670805 19.70587 153.27204 19.595685 152.857534 19.595685 C 152.458768 19.595685 152.070497 19.700623 151.692719 19.915747 C 151.320188 20.125623 151.031608 20.398463 150.832225 20.729019 C 150.690558 20.970377 150.590867 21.232722 150.533151 21.52655 C 150.475435 21.809883 150.4492 22.17192 150.4492 22.607414 L 150.4492 28.006488 C 150.422966 28.68334 150.234077 29.218525 149.88778 29.612044 C 149.541484 30.010809 149.074509 30.210192 148.476361 30.210192 C 147.878212 30.210192 147.395496 30.005562 147.028212 29.60155 C 146.666175 29.192291 146.482533 28.662352 146.482533 28.006488 Z M 171.594263 25.409266 C 172.213399 25.949698 172.92698 26.217291 173.745498 26.217291 C 174.139017 26.217291 174.522041 26.154328 174.894572 26.028402 C 175.261856 25.897229 175.644881 25.682105 176.043647 25.377784 C 176.279758 25.199389 176.494881 25.07871 176.68377 25.0105 C 176.872659 24.94229 177.077289 24.905562 177.292412 24.905562 C 177.869573 24.905562 178.347042 25.094451 178.719573 25.472229 C 179.09735 25.850007 179.286239 26.311735 179.286239 26.873155 C 179.286239 27.287661 179.16556 27.670686 178.929449 28.022229 C 178.693338 28.363278 178.31556 28.714822 177.796116 29.076859 C 177.239943 29.475624 176.605066 29.774698 175.891486 29.984575 C 175.177906 30.194451 174.459078 30.29939 173.745498 30.29939 C 172.753831 30.29939 171.809387 30.100007 170.912165 29.701241 C 170.020189 29.302476 169.233152 28.767291 168.5563 28.095686 C 167.879448 27.418834 167.344263 26.637044 166.945498 25.745068 C 166.557226 24.847846 166.357843 23.903402 166.357843 22.906488 C 166.357843 21.909574 166.551979 20.975624 166.935004 20.088895 C 167.323276 19.207414 167.847967 18.436117 168.514325 17.769759 C 169.180683 17.098154 169.951979 16.573463 170.822967 16.190438 C 171.699202 15.802166 172.633152 15.608031 173.624819 15.608031 C 174.42235 15.608031 175.193646 15.74445 175.949202 16.012043 C 176.704758 16.274389 177.371116 16.641673 177.948276 17.098154 C 178.525437 17.554636 178.987165 18.084574 179.328215 18.677475 C 179.679758 19.270377 179.852906 19.894759 179.852906 20.55587 C 179.852906 20.991364 179.732227 21.353401 179.485622 21.641982 C 179.23377 21.925315 178.814017 22.208648 178.215869 22.491982 Z M 175.503214 20.314512 C 175.146424 19.758339 174.55877 19.480253 173.745498 19.480253 C 172.869264 19.480253 172.118955 19.768833 171.494572 20.345994 C 170.870189 20.923154 170.518646 21.636735 170.439942 22.491982 Z M 187.634079 27.555254 L 187.634079 19.480253 L 187.418956 19.480253 C 186.784079 19.480253 186.285623 19.322846 185.913092 19.008031 C 185.551055 18.687969 185.367413 18.247228 185.367413 17.691055 C 185.367413 16.458031 186.122968 15.865129 187.634079 15.907105 L 187.634079 13.341364 C 187.64982 12.643524 187.838709 12.103092 188.200746 11.71482 C 188.557536 11.326549 189.035005 11.132413 189.62266 11.132413 C 190.19982 11.132413 190.67729 11.337043 191.044573 11.746302 C 191.411857 12.155561 191.595499 12.685499 191.595499 13.341364 L 191.595499 15.907105 L 192.46124 15.907105 C 193.054142 15.928092 193.531611 16.095994 193.888401 16.416055 C 194.245191 16.73087 194.428833 17.15587 194.428833 17.691055 C 194.428833 18.2105 194.245191 18.640747 193.87266 18.976549 C 193.505376 19.312352 193.033154 19.480253 192.46124 19.480253 L 191.595499 19.480253 L 191.595499 28.006488 C 191.579759 28.68334 191.385623 29.218525 191.028833 29.612044 C 190.672043 30.010809 190.194573 30.210192 189.596425 30.210192 C 189.024512 30.210192 188.552289 30.005562 188.185005 29.60155 C 187.817721 29.192291 187.634079 28.662352 187.634079 28.006488 Z M 187.634079 27.555254 " stroke="#ff66c4" stroke-width="1.11759" stroke-opacity="1" stroke-miterlimit="4"/><g mask="url(#f5a1e410da)"><g transform="matrix(1, 0, 0, 1, 356, 47)"><g clip-path="url(#330d761ddc)"><g clip-path="url(#c6169f5df9)"><g clip-path="url(#e9013dac9b)"><path fill="#ff66c4" d="M 0.808594 1.109375 L 18.816406 1.109375 L 18.816406 16.867188 L 0.808594 16.867188 Z M 0.808594 1.109375 " fill-opacity="1" fill-rule="nonzero"/></g></g></g></g></g></svg>