<svg xmlns="http://www.w3.org/2000/svg" xmlns:xlink="http://www.w3.org/1999/xlink" width="500" zoomAndPan="magnify" viewBox="0 0 375 374.999991" height="500" preserveAspectRatio="xMidYMid meet" version="1.0"><defs><filter x="0%" y="0%" width="100%" height="100%" id="a2ad0e0b43"><feColorMatrix values="0 0 0 0 1 0 0 0 0 1 0 0 0 0 1 0 0 0 1 0" color-interpolation-filters="sRGB"/></filter><g/><mask id="1fbd79df70"><g filter="url(#a2ad0e0b43)"><rect x="-37.5" width="450" fill="#000000" y="-37.499999" height="449.999989" fill-opacity="0.7373"/></g></mask><clipPath id="c9f3f97ea9"><path d="M 0.441406 0.320312 L 27.800781 0.320312 L 27.800781 22 L 0.441406 22 Z M 0.441406 0.320312 " clip-rule="nonzero"/></clipPath><clipPath id="e2aa09b1f8"><path d="M 1.59375 4.28125 C -0.613281 7.921875 0.941406 11.464844 2.898438 13.347656 L 8.691406 18.902344 C 11.839844 21.925781 16.816406 21.902344 19.9375 18.855469 L 25.535156 13.386719 C 27.355469 11.363281 28.054688 9.214844 27.667969 6.828125 C 27.132812 3.519531 24.40625 0.957031 21.042969 0.589844 C 18.976562 0.367188 16.984375 0.953125 15.429688 2.246094 C 15.007812 2.59375 14.636719 2.980469 14.308594 3.40625 C 13.921875 2.921875 13.46875 2.484375 12.953125 2.09375 C 11.164062 0.734375 8.886719 0.191406 6.699219 0.613281 C 4.628906 1.011719 2.765625 2.347656 1.59375 4.28125 " clip-rule="nonzero"/></clipPath><clipPath id="0d1c7b75ad"><rect x="0" width="28" y="0" height="25"/></clipPath><mask id="b7aea57e43"><g filter="url(#a2ad0e0b43)"><rect x="-37.5" width="450" fill="#000000" y="-37.499999" height="449.999989" fill-opacity="0.7373"/></g></mask><clipPath id="18735da573"><path d="M 0.558594 0.320312 L 28.160156 0.320312 L 28.160156 22 L 0.558594 22 Z M 0.558594 0.320312 " clip-rule="nonzero"/></clipPath><clipPath id="89ada6e046"><path d="M 1.832031 4.28125 C -0.378906 7.921875 1.179688 11.464844 3.136719 13.347656 L 8.929688 18.902344 C 12.078125 21.925781 17.054688 21.902344 20.175781 18.855469 L 25.773438 13.386719 C 27.59375 11.363281 28.292969 9.214844 27.902344 6.828125 C 27.367188 3.519531 24.644531 0.957031 21.28125 0.589844 C 19.214844 0.367188 17.222656 0.953125 15.664062 2.246094 C 15.246094 2.59375 14.871094 2.980469 14.546875 3.40625 C 14.160156 2.921875 13.707031 2.484375 13.191406 2.09375 C 11.402344 0.734375 9.125 0.191406 6.9375 0.613281 C 4.863281 1.011719 3.003906 2.347656 1.832031 4.28125 " clip-rule="nonzero"/></clipPath><clipPath id="2cc1be27e6"><rect x="0" width="29" y="0" height="25"/></clipPath></defs><rect x="-37.5" width="450" fill="#ffffff" y="-37.499999" height="449.999989" fill-opacity="1"/><rect x="-37.5" width="450" fill="#ffffff" y="-37.499999" height="449.999989" fill-opacity="1"/><rect x="-37.5" width="450" fill="#fef6ff" y="-37.499999" height="449.999989" fill-opacity="1"/><g fill="#ffb3e1" fill-opacity="1"><g transform="translate(57.556143, 196.645981)"><g><path d="M 5.78125 1.078125 C 6.125 1.179688 6.46875 1.234375 6.8125 1.234375 C 7.632812 1.234375 8.300781 0.550781 8.8125 -0.8125 L 9.53125 -2.65625 L 1.734375 -18.640625 L 1.390625 -19.3125 C 1.046875 -20.09375 0.875 -20.773438 0.875 -21.359375 C 0.875 -22.242188 1.222656 -23 1.921875 -23.625 C 2.617188 -24.257812 3.410156 -24.578125 4.296875 -24.578125 C 5.765625 -24.578125 6.859375 -23.796875 7.578125 -22.234375 L 7.890625 -21.5625 L 12.90625 -10.453125 L 17.515625 -21.3125 L 17.828125 -22.078125 C 18.578125 -23.742188 19.71875 -24.578125 21.25 -24.578125 C 22.175781 -24.578125 23 -24.234375 23.71875 -23.546875 C 24.4375 -22.867188 24.796875 -22.085938 24.796875 -21.203125 C 24.796875 -20.828125 24.734375 -20.441406 24.609375 -20.046875 C 24.492188 -19.660156 24.28125 -19.140625 23.96875 -18.484375 L 14.1875 2.09375 C 13.707031 3.082031 13.335938 3.800781 13.078125 4.25 C 12.828125 4.695312 12.515625 5.160156 12.140625 5.640625 C 11.453125 6.492188 10.597656 7.164062 9.578125 7.65625 C 8.554688 8.15625 7.5 8.40625 6.40625 8.40625 C 5.582031 8.40625 4.800781 8.285156 4.0625 8.046875 C 3.332031 7.804688 2.691406 7.476562 2.140625 7.0625 C 1.597656 6.65625 1.164062 6.1875 0.84375 5.65625 C 0.519531 5.125 0.359375 4.550781 0.359375 3.9375 C 0.359375 3.050781 0.65625 2.273438 1.25 1.609375 C 1.851562 0.941406 2.5625 0.609375 3.375 0.609375 C 3.894531 0.609375 4.375 0.675781 4.8125 0.8125 Z M 5.78125 1.078125 "/></g></g></g><g fill="#ffb3e1" fill-opacity="1"><g transform="translate(84.498779, 196.645981)"><g><path d="M 22.328125 -4.203125 C 22.328125 -3.316406 22.273438 -2.660156 22.171875 -2.234375 C 22.078125 -1.804688 21.875 -1.382812 21.5625 -0.96875 C 20.875 -0.0820312 19.953125 0.359375 18.796875 0.359375 C 18.078125 0.359375 17.460938 0.195312 16.953125 -0.125 C 16.441406 -0.445312 16 -0.984375 15.625 -1.734375 C 14.632812 -0.953125 13.675781 -0.390625 12.75 -0.046875 C 11.832031 0.296875 10.859375 0.46875 9.828125 0.46875 C 8.640625 0.46875 7.53125 0.242188 6.5 -0.203125 C 5.476562 -0.648438 4.582031 -1.273438 3.8125 -2.078125 C 3.039062 -2.878906 2.441406 -3.804688 2.015625 -4.859375 C 1.597656 -5.921875 1.390625 -7.066406 1.390625 -8.296875 C 1.390625 -9.554688 1.617188 -10.734375 2.078125 -11.828125 C 2.535156 -12.921875 3.164062 -13.867188 3.96875 -14.671875 C 4.769531 -15.472656 5.707031 -16.101562 6.78125 -16.5625 C 7.863281 -17.03125 9.035156 -17.265625 10.296875 -17.265625 C 11.148438 -17.265625 11.976562 -17.144531 12.78125 -16.90625 C 13.582031 -16.664062 14.441406 -16.304688 15.359375 -15.828125 C 15.359375 -17.085938 15.128906 -17.972656 14.671875 -18.484375 C 14.210938 -19.003906 13.4375 -19.265625 12.34375 -19.265625 C 11.800781 -19.265625 11.1875 -19.175781 10.5 -19 L 8.859375 -18.546875 C 8.378906 -18.367188 7.976562 -18.253906 7.65625 -18.203125 C 7.332031 -18.148438 7.035156 -18.125 6.765625 -18.125 C 5.972656 -18.125 5.328125 -18.378906 4.828125 -18.890625 C 4.335938 -19.410156 4.09375 -20.0625 4.09375 -20.84375 C 4.09375 -22.175781 4.84375 -23.242188 6.34375 -24.046875 C 7.851562 -24.847656 9.816406 -25.25 12.234375 -25.25 C 13.910156 -25.25 15.441406 -25.019531 16.828125 -24.5625 C 18.210938 -24.101562 19.347656 -23.425781 20.234375 -22.53125 C 20.984375 -21.75 21.519531 -20.785156 21.84375 -19.640625 C 22.164062 -18.492188 22.328125 -17 22.328125 -15.15625 Z M 15.359375 -8.5 C 15.359375 -9.488281 15.039062 -10.320312 14.40625 -11 C 13.78125 -11.6875 12.972656 -12.03125 11.984375 -12.03125 C 11.066406 -12.03125 10.28125 -11.695312 9.625 -11.03125 C 8.976562 -10.363281 8.65625 -9.554688 8.65625 -8.609375 C 8.65625 -7.617188 8.976562 -6.796875 9.625 -6.140625 C 10.28125 -5.492188 11.101562 -5.171875 12.09375 -5.171875 C 13.039062 -5.171875 13.820312 -5.484375 14.4375 -6.109375 C 15.050781 -6.742188 15.359375 -7.539062 15.359375 -8.5 Z M 15.359375 -8.5 "/></g></g></g><g fill="#ffb3e1" fill-opacity="1"><g transform="translate(111.543857, 196.645981)"><g><path d="M 3.078125 -4.203125 L 3.078125 -19.609375 C 3.078125 -20.128906 3.082031 -20.550781 3.09375 -20.875 C 3.113281 -21.195312 3.128906 -21.46875 3.140625 -21.6875 C 3.160156 -21.914062 3.203125 -22.113281 3.265625 -22.28125 C 3.335938 -22.445312 3.425781 -22.617188 3.53125 -22.796875 C 4.21875 -23.984375 5.191406 -24.578125 6.453125 -24.578125 C 7.847656 -24.578125 8.890625 -23.914062 9.578125 -22.59375 C 11.210938 -24.019531 12.972656 -24.734375 14.859375 -24.734375 C 15.472656 -24.734375 16.039062 -24.625 16.5625 -24.40625 C 17.09375 -24.1875 17.554688 -23.890625 17.953125 -23.515625 C 18.347656 -23.140625 18.664062 -22.691406 18.90625 -22.171875 C 19.144531 -21.660156 19.265625 -21.113281 19.265625 -20.53125 C 19.265625 -19.40625 18.859375 -18.453125 18.046875 -17.671875 C 17.242188 -16.890625 16.28125 -16.5 15.15625 -16.5 C 14.675781 -16.5 14.304688 -16.546875 14.046875 -16.640625 C 13.796875 -16.742188 13.347656 -16.984375 12.703125 -17.359375 C 12.191406 -17.671875 11.75 -17.828125 11.375 -17.828125 C 10.820312 -17.828125 10.4375 -17.585938 10.21875 -17.109375 C 10 -16.628906 9.890625 -15.828125 9.890625 -14.703125 L 9.890625 -3.4375 C 9.847656 -2.269531 9.53125 -1.34375 8.9375 -0.65625 C 8.34375 0.0195312 7.53125 0.359375 6.5 0.359375 C 5.476562 0.359375 4.648438 0.0078125 4.015625 -0.6875 C 3.390625 -1.382812 3.078125 -2.300781 3.078125 -3.4375 Z M 3.078125 -4.203125 "/></g></g></g><g fill="#ffb3e1" fill-opacity="1"><g transform="translate(132.647284, 196.645981)"><g><path d="M 2.921875 -4.203125 L 2.921875 -12.859375 C 2.921875 -14.523438 3.109375 -15.960938 3.484375 -17.171875 C 3.859375 -18.390625 4.472656 -19.546875 5.328125 -20.640625 C 6.347656 -21.941406 7.609375 -22.945312 9.109375 -23.65625 C 10.617188 -24.375 12.191406 -24.734375 13.828125 -24.734375 C 15.742188 -24.734375 17.5625 -24.242188 19.28125 -23.265625 C 21.007812 -22.296875 22.382812 -20.976562 23.40625 -19.3125 C 23.882812 -18.519531 24.25 -17.550781 24.5 -16.40625 C 24.757812 -15.269531 24.890625 -14.019531 24.890625 -12.65625 L 24.890625 -3.4375 C 24.859375 -2.269531 24.535156 -1.34375 23.921875 -0.65625 C 23.304688 0.0195312 22.503906 0.359375 21.515625 0.359375 C 20.484375 0.359375 19.648438 0.0078125 19.015625 -0.6875 C 18.390625 -1.382812 18.078125 -2.300781 18.078125 -3.4375 L 18.078125 -12.03125 C 18.078125 -13.0625 18.039062 -13.796875 17.96875 -14.234375 C 17.90625 -14.679688 17.789062 -15.128906 17.625 -15.578125 C 17.3125 -16.253906 16.804688 -16.8125 16.109375 -17.25 C 15.410156 -17.695312 14.664062 -17.921875 13.875 -17.921875 C 12.6875 -17.921875 11.695312 -17.492188 10.90625 -16.640625 C 10.125 -15.785156 9.734375 -14.742188 9.734375 -13.515625 L 9.734375 -3.4375 C 9.703125 -2.269531 9.378906 -1.34375 8.765625 -0.65625 C 8.148438 0.0195312 7.328125 0.359375 6.296875 0.359375 C 5.304688 0.359375 4.492188 0.0078125 3.859375 -0.6875 C 3.234375 -1.382812 2.921875 -2.300781 2.921875 -3.4375 Z M 2.921875 -4.203125 "/></g></g></g><g fill="#ffb3e1" fill-opacity="1"><g transform="translate(162.30465, 196.645981)"><g><path d="M 11.578125 -24.796875 C 12.671875 -24.796875 13.710938 -24.664062 14.703125 -24.40625 C 15.691406 -24.144531 16.550781 -23.789062 17.28125 -23.34375 C 18.019531 -22.90625 18.609375 -22.394531 19.046875 -21.8125 C 19.492188 -21.238281 19.71875 -20.625 19.71875 -19.96875 C 19.71875 -19.1875 19.410156 -18.488281 18.796875 -17.875 C 18.179688 -17.257812 17.460938 -16.953125 16.640625 -16.953125 C 16.203125 -16.953125 15.769531 -17.03125 15.34375 -17.1875 C 14.914062 -17.34375 14.378906 -17.609375 13.734375 -17.984375 C 12.910156 -18.453125 12.328125 -18.765625 11.984375 -18.921875 C 11.640625 -19.078125 11.28125 -19.15625 10.90625 -19.15625 C 10.53125 -19.15625 10.222656 -19.035156 9.984375 -18.796875 C 9.742188 -18.554688 9.625 -18.285156 9.625 -17.984375 C 9.625 -17.398438 9.914062 -16.9375 10.5 -16.59375 C 11.082031 -16.25 12.160156 -15.875 13.734375 -15.46875 C 14.890625 -15.15625 15.773438 -14.890625 16.390625 -14.671875 C 17.003906 -14.453125 17.582031 -14.207031 18.125 -13.9375 C 19.1875 -13.351562 20.003906 -12.539062 20.578125 -11.5 C 21.160156 -10.457031 21.453125 -9.285156 21.453125 -7.984375 C 21.453125 -6.722656 21.210938 -5.570312 20.734375 -4.53125 C 20.265625 -3.488281 19.59375 -2.59375 18.71875 -1.84375 C 17.851562 -1.09375 16.8125 -0.507812 15.59375 -0.09375 C 14.382812 0.3125 13.0625 0.515625 11.625 0.515625 C 10.289062 0.515625 9.007812 0.328125 7.78125 -0.046875 C 6.550781 -0.421875 5.457031 -0.914062 4.5 -1.53125 C 3.550781 -2.144531 2.796875 -2.851562 2.234375 -3.65625 C 1.671875 -4.457031 1.390625 -5.304688 1.390625 -6.203125 C 1.390625 -7.117188 1.695312 -7.925781 2.3125 -8.625 C 2.925781 -9.332031 3.65625 -9.6875 4.5 -9.6875 C 5.082031 -9.6875 5.65625 -9.539062 6.21875 -9.25 C 6.78125 -8.957031 7.40625 -8.519531 8.09375 -7.9375 C 8.601562 -7.488281 9.035156 -7.128906 9.390625 -6.859375 C 9.753906 -6.585938 10.082031 -6.375 10.375 -6.21875 C 10.664062 -6.070312 10.945312 -5.972656 11.21875 -5.921875 C 11.488281 -5.867188 11.796875 -5.84375 12.140625 -5.84375 C 12.816406 -5.84375 13.378906 -6.007812 13.828125 -6.34375 C 14.273438 -6.6875 14.5 -7.113281 14.5 -7.625 C 14.5 -8.445312 13.742188 -9.03125 12.234375 -9.375 C 11.285156 -9.613281 10.242188 -9.921875 9.109375 -10.296875 C 7.984375 -10.671875 7.0625 -11.03125 6.34375 -11.375 C 5.21875 -11.945312 4.3125 -12.78125 3.625 -13.875 C 2.945312 -14.96875 2.609375 -16.148438 2.609375 -17.421875 C 2.609375 -18.847656 3.039062 -20.175781 3.90625 -21.40625 C 4.78125 -22.632812 5.953125 -23.539062 7.421875 -24.125 C 8.585938 -24.570312 9.972656 -24.796875 11.578125 -24.796875 Z M 11.578125 -24.796875 "/></g></g></g><g fill="#ffb3e1" fill-opacity="1"><g transform="translate(186.993556, 196.645981)"><g><path d="M 3.078125 -4.203125 L 3.078125 -30.375 C 3.109375 -31.53125 3.429688 -32.445312 4.046875 -33.125 C 4.660156 -33.8125 5.476562 -34.15625 6.5 -34.15625 C 7.53125 -34.15625 8.351562 -33.804688 8.96875 -33.109375 C 9.582031 -32.410156 9.890625 -31.5 9.890625 -30.375 L 9.890625 -23.515625 C 10.671875 -23.984375 11.398438 -24.300781 12.078125 -24.46875 C 12.765625 -24.644531 13.550781 -24.734375 14.4375 -24.734375 C 16.320312 -24.734375 18.03125 -24.332031 19.5625 -23.53125 C 21.101562 -22.726562 22.332031 -21.59375 23.25 -20.125 C 23.59375 -19.613281 23.863281 -19.132812 24.0625 -18.6875 C 24.269531 -18.25 24.429688 -17.773438 24.546875 -17.265625 C 24.671875 -16.753906 24.757812 -16.191406 24.8125 -15.578125 C 24.863281 -14.960938 24.890625 -14.226562 24.890625 -13.375 L 24.890625 -3.4375 C 24.859375 -2.269531 24.535156 -1.34375 23.921875 -0.65625 C 23.304688 0.0195312 22.484375 0.359375 21.453125 0.359375 C 20.429688 0.359375 19.613281 0.0078125 19 -0.6875 C 18.382812 -1.382812 18.078125 -2.300781 18.078125 -3.4375 L 18.078125 -12.703125 C 18.078125 -13.484375 18.035156 -14.078125 17.953125 -14.484375 C 17.867188 -14.898438 17.722656 -15.3125 17.515625 -15.71875 C 17.210938 -16.40625 16.734375 -16.9375 16.078125 -17.3125 C 15.429688 -17.6875 14.75 -17.875 14.03125 -17.875 C 13.351562 -17.875 12.6875 -17.691406 12.03125 -17.328125 C 11.382812 -16.972656 10.890625 -16.503906 10.546875 -15.921875 C 10.304688 -15.515625 10.132812 -15.0625 10.03125 -14.5625 C 9.9375 -14.070312 9.890625 -13.453125 9.890625 -12.703125 L 9.890625 -3.4375 C 9.847656 -2.269531 9.53125 -1.34375 8.9375 -0.65625 C 8.34375 0.0195312 7.53125 0.359375 6.5 0.359375 C 5.476562 0.359375 4.648438 0.0078125 4.015625 -0.6875 C 3.390625 -1.382812 3.078125 -2.300781 3.078125 -3.4375 Z M 3.078125 -4.203125 "/></g></g></g><g fill="#ffb3e1" fill-opacity="1"><g transform="translate(216.599691, 196.645981)"><g><path d="M 22.328125 -4.203125 C 22.328125 -3.316406 22.273438 -2.660156 22.171875 -2.234375 C 22.078125 -1.804688 21.875 -1.382812 21.5625 -0.96875 C 20.875 -0.0820312 19.953125 0.359375 18.796875 0.359375 C 18.078125 0.359375 17.460938 0.195312 16.953125 -0.125 C 16.441406 -0.445312 16 -0.984375 15.625 -1.734375 C 14.632812 -0.953125 13.675781 -0.390625 12.75 -0.046875 C 11.832031 0.296875 10.859375 0.46875 9.828125 0.46875 C 8.640625 0.46875 7.53125 0.242188 6.5 -0.203125 C 5.476562 -0.648438 4.582031 -1.273438 3.8125 -2.078125 C 3.039062 -2.878906 2.441406 -3.804688 2.015625 -4.859375 C 1.597656 -5.921875 1.390625 -7.066406 1.390625 -8.296875 C 1.390625 -9.554688 1.617188 -10.734375 2.078125 -11.828125 C 2.535156 -12.921875 3.164062 -13.867188 3.96875 -14.671875 C 4.769531 -15.472656 5.707031 -16.101562 6.78125 -16.5625 C 7.863281 -17.03125 9.035156 -17.265625 10.296875 -17.265625 C 11.148438 -17.265625 11.976562 -17.144531 12.78125 -16.90625 C 13.582031 -16.664062 14.441406 -16.304688 15.359375 -15.828125 C 15.359375 -17.085938 15.128906 -17.972656 14.671875 -18.484375 C 14.210938 -19.003906 13.4375 -19.265625 12.34375 -19.265625 C 11.800781 -19.265625 11.1875 -19.175781 10.5 -19 L 8.859375 -18.546875 C 8.378906 -18.367188 7.976562 -18.253906 7.65625 -18.203125 C 7.332031 -18.148438 7.035156 -18.125 6.765625 -18.125 C 5.972656 -18.125 5.328125 -18.378906 4.828125 -18.890625 C 4.335938 -19.410156 4.09375 -20.0625 4.09375 -20.84375 C 4.09375 -22.175781 4.84375 -23.242188 6.34375 -24.046875 C 7.851562 -24.847656 9.816406 -25.25 12.234375 -25.25 C 13.910156 -25.25 15.441406 -25.019531 16.828125 -24.5625 C 18.210938 -24.101562 19.347656 -23.425781 20.234375 -22.53125 C 20.984375 -21.75 21.519531 -20.785156 21.84375 -19.640625 C 22.164062 -18.492188 22.328125 -17 22.328125 -15.15625 Z M 15.359375 -8.5 C 15.359375 -9.488281 15.039062 -10.320312 14.40625 -11 C 13.78125 -11.6875 12.972656 -12.03125 11.984375 -12.03125 C 11.066406 -12.03125 10.28125 -11.695312 9.625 -11.03125 C 8.976562 -10.363281 8.65625 -9.554688 8.65625 -8.609375 C 8.65625 -7.617188 8.976562 -6.796875 9.625 -6.140625 C 10.28125 -5.492188 11.101562 -5.171875 12.09375 -5.171875 C 13.039062 -5.171875 13.820312 -5.484375 14.4375 -6.109375 C 15.050781 -6.742188 15.359375 -7.539062 15.359375 -8.5 Z M 15.359375 -8.5 "/></g></g></g><g fill="#ffb3e1" fill-opacity="1"><g transform="translate(243.64477, 196.645981)"><g><path d="M 3.078125 5.328125 L 3.078125 -20.1875 C 3.078125 -21 3.109375 -21.609375 3.171875 -22.015625 C 3.242188 -22.429688 3.378906 -22.8125 3.578125 -23.15625 C 4.128906 -24.101562 5.050781 -24.578125 6.34375 -24.578125 C 7.957031 -24.578125 9.035156 -23.757812 9.578125 -22.125 C 10.671875 -23.082031 11.742188 -23.753906 12.796875 -24.140625 C 13.859375 -24.535156 15.109375 -24.734375 16.546875 -24.734375 C 18.253906 -24.734375 19.832031 -24.414062 21.28125 -23.78125 C 22.726562 -23.15625 23.972656 -22.28125 25.015625 -21.15625 C 26.054688 -20.03125 26.875 -18.6875 27.46875 -17.125 C 28.070312 -15.570312 28.375 -13.894531 28.375 -12.09375 C 28.375 -10.28125 28.070312 -8.601562 27.46875 -7.0625 C 26.875 -5.53125 26.054688 -4.203125 25.015625 -3.078125 C 23.972656 -1.953125 22.742188 -1.070312 21.328125 -0.4375 C 19.910156 0.195312 18.367188 0.515625 16.703125 0.515625 C 15.367188 0.515625 14.160156 0.328125 13.078125 -0.046875 C 12.003906 -0.421875 10.941406 -1.035156 9.890625 -1.890625 L 9.890625 6.09375 C 9.847656 7.289062 9.53125 8.222656 8.9375 8.890625 C 8.34375 9.554688 7.53125 9.890625 6.5 9.890625 C 5.476562 9.890625 4.648438 9.546875 4.015625 8.859375 C 3.390625 8.179688 3.078125 7.257812 3.078125 6.09375 Z M 15.46875 -6.34375 C 16.25 -6.34375 16.988281 -6.492188 17.6875 -6.796875 C 18.394531 -7.109375 19.007812 -7.519531 19.53125 -8.03125 C 20.0625 -8.550781 20.476562 -9.148438 20.78125 -9.828125 C 21.09375 -10.515625 21.25 -11.25 21.25 -12.03125 C 21.25 -12.851562 21.09375 -13.625 20.78125 -14.34375 C 20.476562 -15.0625 20.070312 -15.675781 19.5625 -16.1875 C 19.050781 -16.695312 18.445312 -17.101562 17.75 -17.40625 C 17.050781 -17.71875 16.289062 -17.875 15.46875 -17.875 C 14.6875 -17.875 13.941406 -17.71875 13.234375 -17.40625 C 12.535156 -17.101562 11.929688 -16.695312 11.421875 -16.1875 C 10.910156 -15.675781 10.5 -15.066406 10.1875 -14.359375 C 9.882812 -13.660156 9.734375 -12.90625 9.734375 -12.09375 C 9.734375 -11.300781 9.882812 -10.554688 10.1875 -9.859375 C 10.5 -9.160156 10.910156 -8.550781 11.421875 -8.03125 C 11.929688 -7.519531 12.535156 -7.109375 13.234375 -6.796875 C 13.941406 -6.492188 14.6875 -6.34375 15.46875 -6.34375 Z M 15.46875 -6.34375 "/></g></g></g><g fill="#ffb3e1" fill-opacity="1"><g transform="translate(275.248537, 196.645981)"><g><path d="M 10.390625 -7.890625 C 11.453125 -6.960938 12.679688 -6.5 14.078125 -6.5 C 14.765625 -6.5 15.421875 -6.609375 16.046875 -6.828125 C 16.679688 -7.054688 17.34375 -7.425781 18.03125 -7.9375 C 18.4375 -8.25 18.800781 -8.460938 19.125 -8.578125 C 19.445312 -8.703125 19.800781 -8.765625 20.1875 -8.765625 C 21.175781 -8.765625 21.992188 -8.4375 22.640625 -7.78125 C 23.285156 -7.132812 23.609375 -6.332031 23.609375 -5.375 C 23.609375 -4.65625 23.398438 -4 22.984375 -3.40625 C 22.578125 -2.8125 21.929688 -2.207031 21.046875 -1.59375 C 20.085938 -0.90625 18.992188 -0.378906 17.765625 -0.015625 C 16.535156 0.335938 15.304688 0.515625 14.078125 0.515625 C 12.378906 0.515625 10.757812 0.175781 9.21875 -0.5 C 7.6875 -1.1875 6.335938 -2.109375 5.171875 -3.265625 C 4.015625 -4.429688 3.09375 -5.78125 2.40625 -7.3125 C 1.726562 -8.851562 1.390625 -10.476562 1.390625 -12.1875 C 1.390625 -13.894531 1.71875 -15.507812 2.375 -17.03125 C 3.039062 -18.550781 3.945312 -19.878906 5.09375 -21.015625 C 6.238281 -22.160156 7.5625 -23.066406 9.0625 -23.734375 C 10.5625 -24.398438 12.164062 -24.734375 13.875 -24.734375 C 15.238281 -24.734375 16.570312 -24.503906 17.875 -24.046875 C 19.175781 -23.585938 20.320312 -22.960938 21.3125 -22.171875 C 22.300781 -21.390625 23.09375 -20.484375 23.6875 -19.453125 C 24.28125 -18.429688 24.578125 -17.359375 24.578125 -16.234375 C 24.578125 -15.484375 24.363281 -14.859375 23.9375 -14.359375 C 23.507812 -13.867188 22.785156 -13.382812 21.765625 -12.90625 Z M 17.109375 -16.640625 C 16.492188 -17.597656 15.484375 -18.078125 14.078125 -18.078125 C 12.578125 -18.078125 11.289062 -17.582031 10.21875 -16.59375 C 9.144531 -15.601562 8.539062 -14.375 8.40625 -12.90625 Z M 17.109375 -16.640625 "/></g></g></g><g fill="#ffb3e1" fill-opacity="1"><g transform="translate(302.703385, 196.645981)"><g><path d="M 3.078125 -4.203125 L 3.078125 -19.609375 C 3.078125 -20.128906 3.082031 -20.550781 3.09375 -20.875 C 3.113281 -21.195312 3.128906 -21.46875 3.140625 -21.6875 C 3.160156 -21.914062 3.203125 -22.113281 3.265625 -22.28125 C 3.335938 -22.445312 3.425781 -22.617188 3.53125 -22.796875 C 4.21875 -23.984375 5.191406 -24.578125 6.453125 -24.578125 C 7.847656 -24.578125 8.890625 -23.914062 9.578125 -22.59375 C 11.210938 -24.019531 12.972656 -24.734375 14.859375 -24.734375 C 15.472656 -24.734375 16.039062 -24.625 16.5625 -24.40625 C 17.09375 -24.1875 17.554688 -23.890625 17.953125 -23.515625 C 18.347656 -23.140625 18.664062 -22.691406 18.90625 -22.171875 C 19.144531 -21.660156 19.265625 -21.113281 19.265625 -20.53125 C 19.265625 -19.40625 18.859375 -18.453125 18.046875 -17.671875 C 17.242188 -16.890625 16.28125 -16.5 15.15625 -16.5 C 14.675781 -16.5 14.304688 -16.546875 14.046875 -16.640625 C 13.796875 -16.742188 13.347656 -16.984375 12.703125 -17.359375 C 12.191406 -17.671875 11.75 -17.828125 11.375 -17.828125 C 10.820312 -17.828125 10.4375 -17.585938 10.21875 -17.109375 C 10 -16.628906 9.890625 -15.828125 9.890625 -14.703125 L 9.890625 -3.4375 C 9.847656 -2.269531 9.53125 -1.34375 8.9375 -0.65625 C 8.34375 0.0195312 7.53125 0.359375 6.5 0.359375 C 5.476562 0.359375 4.648438 0.0078125 4.015625 -0.6875 C 3.390625 -1.382812 3.078125 -2.300781 3.078125 -3.4375 Z M 3.078125 -4.203125 "/></g></g></g><path stroke-linecap="butt" transform="matrix(1.100419, 0, 0, 1.100419, 53.1944, 142.662221)" fill="none" stroke-linejoin="miter" d="M 7.167843 47.977005 C 7.480224 48.069299 7.789055 48.115446 8.101436 48.115446 C 8.843341 48.115446 9.450354 47.494234 9.918926 46.24826 L 10.564986 44.579861 L 3.486717 30.054145 L 3.167236 29.454232 C 2.858405 28.740725 2.702215 28.119513 2.702215 27.590595 C 2.702215 26.777694 3.021695 26.089036 3.657107 25.521071 C 4.292518 24.946006 5.013124 24.658473 5.815375 24.658473 C 7.150094 24.658473 8.140484 25.36843 8.793644 26.791894 L 9.077627 27.406006 L 13.63555 37.498042 L 17.827844 27.633192 L 18.101178 26.940984 C 18.789836 25.418127 19.833472 24.658473 21.224988 24.658473 C 22.059187 24.658473 22.801092 24.967305 23.454252 25.588517 C 24.103863 26.209729 24.430443 26.923236 24.430443 27.725487 C 24.430443 28.066266 24.377196 28.417695 24.270703 28.783322 C 24.167759 29.138301 23.972521 29.606872 23.692088 30.192587 L 14.806978 48.910598 C 14.366805 49.812243 14.029576 50.461854 13.79529 50.862979 C 13.568104 51.264105 13.284121 51.686529 12.939792 52.126702 C 12.31858 52.897005 11.544727 53.507568 10.611134 53.954841 C 9.68109 54.409213 8.719099 54.6364 7.725159 54.6364 C 6.983254 54.6364 6.276847 54.526356 5.609488 54.30627 C 4.945678 54.086183 4.359964 53.791551 3.859444 53.422373 C 3.362475 53.049646 2.964899 52.620122 2.666717 52.137352 C 2.379184 51.658131 2.237193 51.139862 2.237193 50.578996 C 2.237193 49.776745 2.503427 49.073888 3.042994 48.466875 C 3.589661 47.859862 4.232172 47.55813 4.974076 47.55813 C 5.446198 47.55813 5.879271 47.622026 6.280397 47.749819 Z M 46.687589 43.181246 C 46.687589 43.990597 46.637892 44.590511 46.538498 44.977437 C 46.449753 45.364364 46.261615 45.740641 45.984731 46.113368 C 45.363519 46.922719 44.52577 47.330944 43.471484 47.330944 C 42.818324 47.330944 42.257458 47.181853 41.788887 46.887221 C 41.327415 46.592589 40.926289 46.102719 40.58551 45.42116 C 39.683865 46.131117 38.810618 46.642286 37.969319 46.954667 C 37.13867 47.263498 36.254773 47.419689 35.32118 47.419689 C 34.238496 47.419689 33.230357 47.220901 32.300314 46.819775 C 31.366721 46.408 30.55382 45.840035 29.858063 45.112329 C 29.158755 44.384623 28.619188 43.539775 28.232262 42.577783 C 27.845335 41.615792 27.650097 40.575705 27.650097 39.453973 C 27.650097 38.310943 27.859534 37.242458 28.278409 36.248518 C 28.693733 35.258128 29.265249 34.395531 29.992954 33.667825 C 30.72776 32.93302 31.583258 32.357955 32.562998 31.94263 C 33.539189 31.523756 34.600574 31.317868 35.743605 31.317868 C 36.524557 31.317868 37.277111 31.427912 38.004817 31.647998 C 38.732523 31.857435 39.517025 32.180466 40.358324 32.613539 C 40.358324 31.466959 40.145337 30.664708 39.719363 30.203236 C 39.304038 29.734665 38.601181 29.496829 37.607241 29.496829 C 37.113821 29.496829 36.556505 29.574924 35.935293 29.724015 L 34.447933 30.146439 C 34.00776 30.30618 33.642132 30.409124 33.343951 30.451721 C 33.049318 30.497868 32.779535 30.522717 32.53815 30.522717 C 31.817543 30.522717 31.235379 30.288431 30.788106 29.826959 C 30.340833 29.358387 30.117197 28.765573 30.117197 28.055617 C 30.117197 26.841591 30.798755 25.872499 32.161872 25.144794 C 33.528539 24.417088 35.310531 24.05501 37.514947 24.05501 C 39.037804 24.05501 40.42577 24.264447 41.675294 24.679772 C 42.931917 25.095097 43.968454 25.709209 44.777805 26.52211 C 45.459363 27.232067 45.949234 28.108863 46.243866 29.1454 C 46.538498 30.185487 46.687589 31.545054 46.687589 33.227652 Z M 40.358324 39.272934 C 40.358324 38.371289 40.070791 37.608086 39.492176 36.986873 C 38.917111 36.365661 38.178756 36.05683 37.277111 36.05683 C 36.442912 36.05683 35.732955 36.358562 35.140141 36.965575 C 34.550877 37.572588 34.256245 38.310943 34.256245 39.18064 C 34.256245 40.082285 34.550877 40.82774 35.140141 41.420554 C 35.732955 42.002718 36.47841 42.2938 37.380055 42.2938 C 38.242652 42.2938 38.956159 42.009818 39.517025 41.441852 C 40.077891 40.866787 40.358324 40.142631 40.358324 39.272934 Z M 53.762308 43.181246 L 53.762308 29.170249 C 53.762308 28.705227 53.769408 28.32895 53.787157 28.030768 C 53.801356 27.736136 53.815555 27.491201 53.829754 27.292413 C 53.847503 27.090075 53.883001 26.912586 53.943347 26.759946 C 54.007243 26.600205 54.085339 26.440465 54.184733 26.280725 C 54.805945 25.198041 55.686291 24.658473 56.832872 24.658473 C 58.103694 24.658473 59.051487 25.261937 59.672699 26.475963 C 61.163608 25.173192 62.764561 24.520032 64.468457 24.520032 C 65.029323 24.520032 65.547591 24.622976 66.026812 24.828863 C 66.509583 25.024101 66.932007 25.293885 67.286985 25.634664 C 67.641964 25.975443 67.925947 26.380119 68.138934 26.84869 C 68.35902 27.313712 68.469064 27.807132 68.469064 28.339599 C 68.469064 29.361937 68.106986 30.228085 67.37928 30.941591 C 66.651574 31.655098 65.771228 32.010076 64.74179 32.010076 C 64.308717 32.010076 63.975037 31.963929 63.740751 31.875184 C 63.513565 31.78289 63.10534 31.562803 62.512526 31.214924 C 62.043954 30.941591 61.639279 30.806699 61.2985 30.806699 C 60.80508 30.806699 60.457201 31.019686 60.251314 31.45276 C 60.056075 31.885834 59.956681 32.613539 59.956681 33.635877 L 59.956681 43.887653 C 59.917634 44.93839 59.626552 45.776139 59.083435 46.397351 C 58.543867 47.018563 57.809062 47.330944 56.875469 47.330944 C 55.945425 47.330944 55.192871 47.011463 54.614256 46.376052 C 54.046291 45.737091 53.762308 44.909991 53.762308 43.887653 Z M 72.792701 43.181246 L 72.792701 35.318475 C 72.792701 33.795617 72.96309 32.482197 73.303869 31.385314 C 73.651748 30.277781 74.212614 29.230595 74.986467 28.236656 C 75.91651 27.061677 77.066641 26.149383 78.429758 25.496222 C 79.792875 24.846612 81.223438 24.520032 82.714347 24.520032 C 84.450191 24.520032 86.100841 24.963755 87.669845 25.851201 C 89.23885 26.727997 90.488374 27.931374 91.418417 29.454232 C 91.851491 30.164188 92.185171 31.040985 92.419456 32.077522 C 92.653742 33.117609 92.770885 34.257089 92.770885 35.499514 L 92.770885 43.887653 C 92.742487 44.93839 92.447855 45.776139 91.886989 46.397351 C 91.326123 47.018563 90.594867 47.330944 89.693222 47.330944 C 88.759629 47.330944 88.007075 47.011463 87.43201 46.376052 C 86.864044 45.737091 86.580062 44.909991 86.580062 43.887653 L 86.580062 36.05683 C 86.580062 35.130336 86.548114 34.470076 86.487767 34.065401 C 86.427421 33.657176 86.317378 33.252501 86.157637 32.851375 C 85.877205 32.230163 85.419282 31.718994 84.783871 31.317868 C 84.14491 30.906093 83.470451 30.703756 82.760494 30.703756 C 81.67781 30.703756 80.776165 31.094232 80.055559 31.875184 C 79.342052 32.645487 78.987074 33.59328 78.987074 34.715012 L 78.987074 43.887653 C 78.955126 44.93839 78.660494 45.776139 78.099628 46.397351 C 77.545861 47.018563 76.803957 47.330944 75.873913 47.330944 C 74.972268 47.330944 74.233913 47.011463 73.655298 46.376052 C 73.080233 45.737091 72.792701 44.909991 72.792701 43.887653 Z M 107.619632 24.473885 C 108.613571 24.473885 109.554264 24.591027 110.44881 24.828863 C 111.350455 25.056049 112.134957 25.36843 112.802316 25.769556 C 113.469676 26.170681 114.002143 26.639253 114.403269 27.168171 C 114.815044 27.700638 115.017382 28.257954 115.017382 28.850768 C 115.017382 29.564275 114.736949 30.199686 114.176083 30.760552 C 113.622317 31.314318 112.972706 31.587652 112.223702 31.587652 C 111.822576 31.587652 111.42855 31.520206 111.041624 31.385314 C 110.654697 31.239773 110.164827 30.998388 109.575563 30.657608 C 108.823009 30.224535 108.294091 29.940552 107.98171 29.80566 C 107.679978 29.660119 107.353398 29.589123 107.005519 29.589123 C 106.66474 29.589123 106.384307 29.699167 106.16422 29.919253 C 105.951233 30.13224 105.84829 30.377175 105.84829 30.657608 C 105.84829 31.186526 106.107424 31.608951 106.629242 31.917782 C 107.16171 32.230163 108.14145 32.570942 109.575563 32.94012 C 110.626299 33.220552 111.4321 33.465488 111.982316 33.667825 C 112.543182 33.866613 113.07565 34.09025 113.576169 34.338734 C 114.538161 34.871202 115.280066 35.609557 115.801884 36.557349 C 116.334352 37.494492 116.597036 38.555878 116.597036 39.737956 C 116.597036 40.888086 116.380499 41.938822 115.950975 42.886614 C 115.517901 43.823757 114.903789 44.640208 114.108637 45.328866 C 113.320585 46.010424 112.372793 46.539342 111.26881 46.90852 C 110.168377 47.281247 108.96855 47.465836 107.665779 47.465836 C 106.451753 47.465836 105.287424 47.295446 104.165692 46.954667 C 103.05106 46.613888 102.05712 46.163065 101.187423 45.602199 C 100.324826 45.041333 99.632618 44.398822 99.117899 43.671117 C 98.61028 42.943411 98.358245 42.173108 98.358245 41.363757 C 98.358245 40.529558 98.635128 39.794752 99.185345 39.159341 C 99.746211 38.52038 100.41357 38.204449 101.187423 38.204449 C 101.716341 38.204449 102.238159 38.335791 102.745778 38.602025 C 103.260497 38.85761 103.828462 39.251636 104.449675 39.784103 C 104.918246 40.185229 105.315822 40.511809 105.642402 40.760294 C 105.968982 41.012328 106.260064 41.207567 106.515649 41.353108 C 106.781883 41.487999 107.041017 41.580294 107.289502 41.622891 C 107.541536 41.669038 107.821969 41.693887 108.130801 41.693887 C 108.752013 41.693887 109.263182 41.537696 109.664307 41.225315 C 110.065433 40.916484 110.267771 40.529558 110.267771 40.068086 C 110.267771 39.319081 109.586212 38.786614 108.223095 38.477783 C 107.349848 38.264796 106.402056 37.987912 105.379718 37.647133 C 104.35738 37.306354 103.519631 36.979774 102.870021 36.670943 C 101.847683 36.138475 101.024133 35.378821 100.402921 34.384882 C 99.781709 33.390942 99.472877 32.318907 99.472877 31.168777 C 99.472877 29.866007 99.863354 28.65553 100.651406 27.544448 C 101.450107 26.422716 102.511493 25.599166 103.846211 25.077348 C 104.900497 24.676222 106.157121 24.473885 107.619632 24.473885 Z M 122.326387 43.181246 L 122.326387 19.394144 C 122.358335 18.343408 122.649417 17.505659 123.203184 16.884446 C 123.76405 16.263234 124.509504 15.950853 125.443097 15.950853 C 126.373141 15.950853 127.118595 16.270334 127.679461 16.905745 C 128.240327 17.541156 128.52076 18.371806 128.52076 19.394144 L 128.52076 25.634664 C 129.234267 25.20159 129.901626 24.910508 130.522838 24.757867 C 131.144051 24.601677 131.854007 24.520032 132.659808 24.520032 C 134.363705 24.520032 135.911411 24.88566 137.306476 25.609815 C 138.70864 26.337521 139.830372 27.370508 140.671671 28.701677 C 140.980502 29.173799 141.225437 29.606872 141.410026 30.007998 C 141.598165 30.412673 141.747255 30.845747 141.853749 31.317868 C 141.956693 31.77934 142.034788 32.290509 142.080935 32.851375 C 142.134182 33.412241 142.15903 34.0796 142.15903 34.849903 L 142.15903 43.887653 C 142.127082 44.93839 141.83245 45.776139 141.271584 46.397351 C 140.710719 47.018563 139.965264 47.330944 139.03522 47.330944 C 138.101627 47.330944 137.356173 47.011463 136.795307 46.376052 C 136.24154 45.737091 135.964657 44.909991 135.964657 43.887653 L 135.964657 35.453367 C 135.964657 34.73986 135.92206 34.200293 135.840415 33.827566 C 135.765869 33.458388 135.634527 33.085661 135.453488 32.712933 C 135.173055 32.091721 134.736432 31.6125 134.147168 31.271721 C 133.554354 30.923842 132.933142 30.749903 132.283531 30.749903 C 131.662319 30.749903 131.055306 30.916743 130.466042 31.246873 C 129.880327 31.573453 129.433055 31.999427 129.124223 32.521245 C 128.904137 32.893972 128.747946 33.305747 128.659202 33.76012 C 128.566907 34.207392 128.52076 34.771808 128.52076 35.453367 L 128.52076 43.887653 C 128.481713 44.93839 128.19063 45.776139 127.647513 46.397351 C 127.107946 47.018563 126.373141 47.330944 125.443097 47.330944 C 124.509504 47.330944 123.75695 47.011463 123.178335 46.376052 C 122.61037 45.737091 122.326387 44.909991 122.326387 43.887653 Z M 166.734185 43.181246 C 166.734185 43.990597 166.684488 44.590511 166.585094 44.977437 C 166.49635 45.364364 166.308211 45.740641 166.027778 46.113368 C 165.406566 46.922719 164.568817 47.330944 163.518081 47.330944 C 162.864921 47.330944 162.304055 47.181853 161.835483 46.887221 C 161.374011 46.592589 160.972886 46.102719 160.632107 45.42116 C 159.730461 46.131117 158.857215 46.642286 158.015916 46.954667 C 157.181716 47.263498 156.30137 47.419689 155.367777 47.419689 C 154.285093 47.419689 153.276954 47.220901 152.346911 46.819775 C 151.413317 46.408 150.600417 45.840035 149.901109 45.112329 C 149.205352 44.384623 148.662235 43.539775 148.278858 42.577783 C 147.891932 41.615792 147.696694 40.575705 147.696694 39.453973 C 147.696694 38.310943 147.906131 37.242458 148.321456 36.248518 C 148.74033 35.258128 149.311845 34.395531 150.039551 33.667825 C 150.774356 32.93302 151.629854 32.357955 152.606045 31.94263 C 153.585785 31.523756 154.643621 31.317868 155.790201 31.317868 C 156.571154 31.317868 157.323708 31.427912 158.051414 31.647998 C 158.779119 31.857435 159.563622 32.180466 160.40492 32.613539 C 160.40492 31.466959 160.191933 30.664708 159.765959 30.203236 C 159.350635 29.734665 158.644228 29.496829 157.653838 29.496829 C 157.160418 29.496829 156.603102 29.574924 155.981889 29.724015 L 154.49453 30.146439 C 154.054357 30.30618 153.685179 30.409124 153.390547 30.451721 C 153.095915 30.497868 152.826131 30.522717 152.584746 30.522717 C 151.86414 30.522717 151.281975 30.288431 150.834703 29.826959 C 150.38743 29.358387 150.163793 28.765573 150.163793 28.055617 C 150.163793 26.841591 150.845352 25.872499 152.208469 25.144794 C 153.571586 24.417088 155.357127 24.05501 157.561543 24.05501 C 159.084401 24.05501 160.472366 24.264447 161.72189 24.679772 C 162.978514 25.095097 164.015051 25.709209 164.824402 26.52211 C 165.50596 27.232067 165.99583 28.108863 166.290462 29.1454 C 166.585094 30.185487 166.734185 31.545054 166.734185 33.227652 Z M 160.40492 39.272934 C 160.40492 38.371289 160.113838 37.608086 159.538773 36.986873 C 158.963708 36.365661 158.225353 36.05683 157.323708 36.05683 C 156.489509 36.05683 155.779552 36.358562 155.186738 36.965575 C 154.597474 37.572588 154.299292 38.310943 154.299292 39.18064 C 154.299292 40.082285 154.597474 40.82774 155.186738 41.420554 C 155.779552 42.002718 156.525006 42.2938 157.426652 42.2938 C 158.289249 42.2938 159.002756 42.009818 159.563622 41.441852 C 160.124487 40.866787 160.40492 40.142631 160.40492 39.272934 Z M 173.808905 51.84272 L 173.808905 28.65553 C 173.808905 27.913625 173.840853 27.356309 173.901199 26.987132 C 173.961546 26.614404 174.085788 26.273625 174.273927 25.964794 C 174.767347 25.091547 175.605096 24.658473 176.787174 24.658473 C 178.242585 24.658473 179.218776 25.403928 179.719295 26.894837 C 180.709685 26.02514 181.689425 25.411028 182.651417 25.056049 C 183.613408 24.697521 184.74579 24.520032 186.04856 24.520032 C 187.603366 24.520032 189.037478 24.807564 190.354448 25.382629 C 191.674968 25.954145 192.807349 26.752846 193.755141 27.782283 C 194.702934 28.804621 195.444839 30.022197 195.980856 31.431461 C 196.527523 32.840726 196.800856 34.367133 196.800856 36.010683 C 196.800856 37.654233 196.527523 39.17709 195.980856 40.579255 C 195.444839 41.97432 194.702934 43.181246 193.755141 44.203584 C 192.807349 45.225922 191.689167 46.028173 190.400596 46.603238 C 189.112024 47.178303 187.709859 47.465836 186.187002 47.465836 C 184.980075 47.465836 183.890292 47.295446 182.910551 46.954667 C 181.934361 46.613888 180.96527 46.053022 180.003278 45.272069 L 180.003278 52.534927 C 179.96423 53.624711 179.673148 54.473109 179.126481 55.080123 C 178.590464 55.687136 177.855659 55.988867 176.922066 55.988867 C 175.992022 55.988867 175.235918 55.680036 174.660853 55.058824 C 174.092888 54.437612 173.808905 53.596313 173.808905 52.534927 Z M 185.07237 41.225315 C 185.782326 41.225315 186.456785 41.086874 187.095747 40.806441 C 187.731158 40.526008 188.288474 40.153281 188.764145 39.691809 C 189.250465 39.223237 189.633842 38.68012 189.914275 38.066008 C 190.194708 37.444795 190.33315 36.773886 190.33315 36.05683 C 190.33315 35.314925 190.194708 34.615618 189.914275 33.966007 C 189.633842 33.312847 189.257565 32.755531 188.788994 32.294059 C 188.323972 31.825487 187.777305 31.44921 187.138344 31.168777 C 186.502933 30.888344 185.814275 30.749903 185.07237 30.749903 C 184.358863 30.749903 183.684404 30.888344 183.048993 31.168777 C 182.413581 31.44921 181.859815 31.825487 181.387694 32.294059 C 180.926222 32.755531 180.557044 33.305747 180.276611 33.941159 C 179.996179 34.57657 179.854187 35.268778 179.854187 36.010683 C 179.854187 36.731289 179.996179 37.409298 180.276611 38.044709 C 180.557044 38.673021 180.926222 39.223237 181.387694 39.691809 C 181.859815 40.153281 182.413581 40.526008 183.048993 40.806441 C 183.684404 41.086874 184.358863 41.225315 185.07237 41.225315 Z M 209.175403 39.83025 C 210.140945 40.671549 211.255577 41.090424 212.529949 41.090424 C 213.151161 41.090424 213.751075 40.99103 214.32614 40.795792 C 214.901205 40.589904 215.501118 40.252675 216.122331 39.784103 C 216.491508 39.50367 216.825188 39.308432 217.11982 39.205488 C 217.418002 39.098995 217.733933 39.045748 218.074712 39.045748 C 218.976357 39.045748 219.718262 39.34038 220.303976 39.929644 C 220.89324 40.515359 221.191422 41.243064 221.191422 42.112761 C 221.191422 42.765922 221.003284 43.362285 220.634106 43.908952 C 220.261379 44.44497 219.672115 44.995186 218.859214 45.556052 C 217.996617 46.177264 217.002677 46.652935 215.880945 46.975966 C 214.769863 47.302546 213.651681 47.465836 212.529949 47.465836 C 210.985793 47.465836 209.509083 47.157005 208.110468 46.535792 C 206.715403 45.91103 205.487178 45.076831 204.425792 44.022545 C 203.375056 42.968259 202.537307 41.747134 201.916095 40.352069 C 201.301982 38.949904 200.993151 37.473194 200.993151 35.918388 C 200.993151 34.367133 201.294883 32.901072 201.891246 31.520206 C 202.49826 30.14289 203.321809 28.932413 204.358346 27.895876 C 205.405533 26.84869 206.608909 26.02869 207.972027 25.428776 C 209.335144 24.825313 210.794105 24.520032 212.34891 24.520032 C 213.591335 24.520032 214.798261 24.729469 215.97324 25.144794 C 217.155318 25.563668 218.195405 26.131634 219.09705 26.84869 C 219.998695 27.562197 220.719301 28.385747 221.258868 29.31579 C 221.801985 30.242284 222.075319 31.218474 222.075319 32.247912 C 222.075319 32.92947 221.88363 33.493886 221.496704 33.941159 C 221.109777 34.388431 220.449517 34.832154 219.519474 35.272328 Z M 215.281032 31.875184 C 214.720166 31.001937 213.804322 30.565314 212.529949 30.565314 C 211.166832 30.565314 209.995403 31.016137 209.019213 31.917782 C 208.039472 32.819427 207.492806 33.937609 207.368563 35.272328 Z M 227.47809 43.181246 L 227.47809 29.170249 C 227.47809 28.705227 227.485189 28.32895 227.499389 28.030768 C 227.517137 27.736136 227.531337 27.491201 227.545536 27.292413 C 227.563285 27.090075 227.598782 26.912586 227.659129 26.759946 C 227.719475 26.600205 227.80112 26.440465 227.896964 26.280725 C 228.521726 25.198041 229.402073 24.658473 230.545103 24.658473 C 231.819476 24.658473 232.767268 25.261937 233.38848 26.475963 C 234.87939 25.173192 236.480342 24.520032 238.184238 24.520032 C 238.745104 24.520032 239.263373 24.622976 239.739044 24.828863 C 240.225364 25.024101 240.647789 25.293885 241.002767 25.634664 C 241.357745 25.975443 241.641728 26.380119 241.854715 26.84869 C 242.074802 27.313712 242.184845 27.807132 242.184845 28.339599 C 242.184845 29.361937 241.819217 30.228085 241.091512 30.941591 C 240.367356 31.655098 239.487009 32.010076 238.457572 32.010076 C 238.024498 32.010076 237.690818 31.963929 237.456533 31.875184 C 237.229347 31.78289 236.821121 31.562803 236.228307 31.214924 C 235.759736 30.941591 235.355061 30.806699 235.014281 30.806699 C 234.520861 30.806699 234.172983 31.019686 233.967095 31.45276 C 233.771857 31.885834 233.672463 32.613539 233.672463 33.635877 L 233.672463 43.887653 C 233.633415 44.93839 233.342333 45.776139 232.795666 46.397351 C 232.259649 47.018563 231.524844 47.330944 230.59125 47.330944 C 229.661207 47.330944 228.905103 47.011463 228.330038 46.376052 C 227.762073 45.737091 227.47809 44.909991 227.47809 43.887653 Z M 227.47809 43.181246 " stroke="#ff66c4" stroke-width="1.745813" stroke-opacity="1" stroke-miterlimit="4"/><g mask="url(#1fbd79df70)"><g transform="matrix(1, 0, 0, 1, 19, 172)"><g clip-path="url(#0d1c7b75ad)"><g clip-path="url(#c9f3f97ea9)"><g clip-path="url(#e2aa09b1f8)"><path fill="#ff66c4" d="M 0.515625 0.472656 L 27.769531 0.472656 L 27.769531 24.320312 L 0.515625 24.320312 Z M 0.515625 0.472656 " fill-opacity="1" fill-rule="nonzero"/></g></g></g></g></g><g fill="#ffb3e1" fill-opacity="1"><g transform="translate(117.385845, 224.077966)"><g><path d="M 4.140625 -5.125 C 4.160156 -4.863281 4.226562 -4.613281 4.34375 -4.375 C 4.46875 -4.144531 4.625 -3.941406 4.8125 -3.765625 C 5.007812 -3.597656 5.226562 -3.460938 5.46875 -3.359375 C 5.707031 -3.265625 5.960938 -3.21875 6.234375 -3.21875 C 6.515625 -3.21875 6.78125 -3.269531 7.03125 -3.375 C 7.28125 -3.488281 7.5 -3.632812 7.6875 -3.8125 C 7.882812 -4 8.035156 -4.210938 8.140625 -4.453125 C 8.253906 -4.691406 8.3125 -4.941406 8.3125 -5.203125 C 8.3125 -5.660156 8.148438 -6.085938 7.828125 -6.484375 C 7.503906 -6.890625 7.113281 -7.164062 6.65625 -7.3125 C 6.46875 -7.363281 6.320312 -7.40625 6.21875 -7.4375 C 6.125 -7.46875 6.050781 -7.492188 6 -7.515625 C 5.945312 -7.535156 5.90625 -7.554688 5.875 -7.578125 C 5.851562 -7.609375 5.820312 -7.644531 5.78125 -7.6875 C 5.6875 -7.78125 5.613281 -7.898438 5.5625 -8.046875 C 5.519531 -8.191406 5.5 -8.347656 5.5 -8.515625 C 5.5 -9.023438 5.664062 -9.351562 6 -9.5 L 6.578125 -9.8125 C 6.796875 -9.925781 6.972656 -10.082031 7.109375 -10.28125 C 7.242188 -10.488281 7.3125 -10.707031 7.3125 -10.9375 C 7.3125 -11.257812 7.191406 -11.535156 6.953125 -11.765625 C 6.722656 -12.003906 6.453125 -12.125 6.140625 -12.125 C 5.578125 -12.125 5.164062 -11.742188 4.90625 -10.984375 C 4.75 -10.578125 4.550781 -10.289062 4.3125 -10.125 C 4.070312 -9.957031 3.75 -9.875 3.34375 -9.875 C 2.800781 -9.875 2.359375 -10.046875 2.015625 -10.390625 C 1.679688 -10.734375 1.515625 -11.179688 1.515625 -11.734375 C 1.515625 -12.117188 1.625 -12.53125 1.84375 -12.96875 C 2.070312 -13.40625 2.382812 -13.820312 2.78125 -14.21875 C 3.6875 -15.125 4.785156 -15.578125 6.078125 -15.578125 C 6.703125 -15.578125 7.296875 -15.460938 7.859375 -15.234375 C 8.429688 -15.003906 8.9375 -14.691406 9.375 -14.296875 C 9.8125 -13.910156 10.160156 -13.457031 10.421875 -12.9375 C 10.679688 -12.414062 10.8125 -11.867188 10.8125 -11.296875 C 10.8125 -10.859375 10.734375 -10.445312 10.578125 -10.0625 C 10.429688 -9.675781 10.179688 -9.285156 9.828125 -8.890625 C 10.128906 -8.679688 10.359375 -8.507812 10.515625 -8.375 C 10.679688 -8.25 10.835938 -8.097656 10.984375 -7.921875 C 11.273438 -7.578125 11.503906 -7.164062 11.671875 -6.6875 C 11.835938 -6.207031 11.921875 -5.726562 11.921875 -5.25 C 11.921875 -4.507812 11.765625 -3.804688 11.453125 -3.140625 C 11.148438 -2.484375 10.738281 -1.90625 10.21875 -1.40625 C 9.695312 -0.914062 9.085938 -0.519531 8.390625 -0.21875 C 7.703125 0.0820312 6.984375 0.234375 6.234375 0.234375 C 5.484375 0.234375 4.757812 0.0859375 4.0625 -0.203125 C 3.375 -0.492188 2.769531 -0.882812 2.25 -1.375 C 1.726562 -1.875 1.3125 -2.441406 1 -3.078125 C 0.6875 -3.722656 0.53125 -4.398438 0.53125 -5.109375 C 0.53125 -5.679688 0.703125 -6.148438 1.046875 -6.515625 C 1.390625 -6.878906 1.832031 -7.0625 2.375 -7.0625 C 2.863281 -7.0625 3.265625 -6.921875 3.578125 -6.640625 C 3.890625 -6.367188 4.070312 -6.007812 4.125 -5.5625 Z M 4.140625 -5.125 "/></g></g></g><g fill="#ffb3e1" fill-opacity="1"><g transform="translate(133.630678, 224.077966)"><g><path d="M 3.734375 0 C 2.367188 -0.03125 1.6875 -0.710938 1.6875 -2.046875 L 1.6875 -13.296875 C 1.707031 -14.660156 2.390625 -15.34375 3.734375 -15.34375 L 7.109375 -15.34375 C 8.296875 -15.34375 9.289062 -15.21875 10.09375 -14.96875 C 10.894531 -14.726562 11.65625 -14.328125 12.375 -13.765625 C 13.332031 -12.992188 14.070312 -12.078125 14.59375 -11.015625 C 15.113281 -9.960938 15.375 -8.835938 15.375 -7.640625 C 15.375 -6.984375 15.289062 -6.332031 15.125 -5.6875 C 14.957031 -5.050781 14.710938 -4.453125 14.390625 -3.890625 C 14.066406 -3.335938 13.671875 -2.820312 13.203125 -2.34375 C 12.742188 -1.875 12.234375 -1.460938 11.671875 -1.109375 C 10.472656 -0.367188 8.953125 0 7.109375 0 Z M 6.703125 -3.203125 C 7.460938 -3.203125 8.082031 -3.25 8.5625 -3.34375 C 9.039062 -3.445312 9.476562 -3.628906 9.875 -3.890625 C 10.488281 -4.285156 10.972656 -4.8125 11.328125 -5.46875 C 11.679688 -6.132812 11.859375 -6.859375 11.859375 -7.640625 C 11.859375 -8.296875 11.734375 -8.894531 11.484375 -9.4375 C 11.234375 -9.988281 10.882812 -10.457031 10.4375 -10.84375 C 9.988281 -11.226562 9.445312 -11.523438 8.8125 -11.734375 C 8.1875 -11.953125 7.488281 -12.0625 6.71875 -12.0625 L 5.203125 -12.0625 L 5.203125 -3.203125 Z M 6.703125 -3.203125 "/></g></g></g><g fill="#ffb3e1" fill-opacity="1"><g transform="translate(153.326343, 224.077966)"><g/></g></g><g fill="#ffb3e1" fill-opacity="1"><g transform="translate(162.945556, 224.077966)"><g><path d="M 0.625 -5.484375 C 0.625 -6.242188 0.769531 -6.96875 1.0625 -7.65625 C 1.363281 -8.351562 1.769531 -8.957031 2.28125 -9.46875 C 2.800781 -9.976562 3.398438 -10.382812 4.078125 -10.6875 C 4.765625 -10.988281 5.492188 -11.140625 6.265625 -11.140625 C 6.847656 -11.140625 7.425781 -11.046875 8 -10.859375 C 8.570312 -10.679688 9.097656 -10.429688 9.578125 -10.109375 C 9.992188 -9.816406 10.28125 -9.550781 10.4375 -9.3125 C 10.59375 -9.070312 10.671875 -8.789062 10.671875 -8.46875 C 10.671875 -8.039062 10.519531 -7.679688 10.21875 -7.390625 C 9.925781 -7.097656 9.554688 -6.953125 9.109375 -6.953125 C 8.929688 -6.953125 8.78125 -6.972656 8.65625 -7.015625 C 8.53125 -7.066406 8.359375 -7.175781 8.140625 -7.34375 C 7.804688 -7.601562 7.507812 -7.785156 7.25 -7.890625 C 7 -8.003906 6.710938 -8.0625 6.390625 -8.0625 C 6.023438 -8.0625 5.675781 -7.988281 5.34375 -7.84375 C 5.019531 -7.707031 4.738281 -7.519531 4.5 -7.28125 C 4.257812 -7.039062 4.070312 -6.765625 3.9375 -6.453125 C 3.800781 -6.140625 3.734375 -5.804688 3.734375 -5.453125 C 3.734375 -5.085938 3.800781 -4.742188 3.9375 -4.421875 C 4.070312 -4.109375 4.257812 -3.835938 4.5 -3.609375 C 4.738281 -3.378906 5.015625 -3.195312 5.328125 -3.0625 C 5.640625 -2.925781 5.984375 -2.859375 6.359375 -2.859375 C 6.828125 -2.859375 7.21875 -2.957031 7.53125 -3.15625 C 7.570312 -3.1875 7.65625 -3.242188 7.78125 -3.328125 C 7.914062 -3.421875 8.09375 -3.546875 8.3125 -3.703125 C 8.476562 -3.828125 8.632812 -3.914062 8.78125 -3.96875 C 8.925781 -4.019531 9.082031 -4.046875 9.25 -4.046875 C 9.675781 -4.046875 10.039062 -3.894531 10.34375 -3.59375 C 10.644531 -3.300781 10.796875 -2.941406 10.796875 -2.515625 C 10.796875 -2.171875 10.664062 -1.835938 10.40625 -1.515625 C 10.144531 -1.191406 9.800781 -0.898438 9.375 -0.640625 C 8.957031 -0.378906 8.484375 -0.164062 7.953125 0 C 7.421875 0.15625 6.878906 0.234375 6.328125 0.234375 C 5.546875 0.234375 4.804688 0.0820312 4.109375 -0.21875 C 3.410156 -0.519531 2.800781 -0.929688 2.28125 -1.453125 C 1.769531 -1.972656 1.363281 -2.578125 1.0625 -3.265625 C 0.769531 -3.953125 0.625 -4.691406 0.625 -5.484375 Z M 0.625 -5.484375 "/></g></g></g><g fill="#ffb3e1" fill-opacity="1"><g transform="translate(177.833049, 224.077966)"><g><path d="M 1.375 -1.890625 L 1.375 -8.8125 C 1.375 -9.039062 1.378906 -9.226562 1.390625 -9.375 C 1.398438 -9.519531 1.40625 -9.640625 1.40625 -9.734375 C 1.414062 -9.835938 1.4375 -9.925781 1.46875 -10 C 1.5 -10.082031 1.539062 -10.160156 1.59375 -10.234375 C 1.894531 -10.773438 2.332031 -11.046875 2.90625 -11.046875 C 3.53125 -11.046875 3.992188 -10.75 4.296875 -10.15625 C 5.035156 -10.789062 5.828125 -11.109375 6.671875 -11.109375 C 6.953125 -11.109375 7.207031 -11.054688 7.4375 -10.953125 C 7.675781 -10.859375 7.882812 -10.726562 8.0625 -10.5625 C 8.238281 -10.394531 8.378906 -10.195312 8.484375 -9.96875 C 8.597656 -9.738281 8.65625 -9.492188 8.65625 -9.234375 C 8.65625 -8.722656 8.472656 -8.289062 8.109375 -7.9375 C 7.753906 -7.582031 7.320312 -7.40625 6.8125 -7.40625 C 6.59375 -7.40625 6.425781 -7.425781 6.3125 -7.46875 C 6.195312 -7.519531 5.992188 -7.628906 5.703125 -7.796875 C 5.472656 -7.941406 5.273438 -8.015625 5.109375 -8.015625 C 4.859375 -8.015625 4.679688 -7.90625 4.578125 -7.6875 C 4.484375 -7.46875 4.4375 -7.109375 4.4375 -6.609375 L 4.4375 -1.546875 C 4.425781 -1.023438 4.285156 -0.609375 4.015625 -0.296875 C 3.742188 0.00390625 3.378906 0.15625 2.921875 0.15625 C 2.460938 0.15625 2.085938 0 1.796875 -0.3125 C 1.515625 -0.625 1.375 -1.035156 1.375 -1.546875 Z M 1.375 -1.890625 "/></g></g></g><g fill="#ffb3e1" fill-opacity="1"><g transform="translate(190.120916, 224.077966)"><g><path d="M 6.375 -11.109375 C 7.15625 -11.109375 7.890625 -10.957031 8.578125 -10.65625 C 9.273438 -10.363281 9.878906 -9.957031 10.390625 -9.4375 C 10.898438 -8.925781 11.304688 -8.328125 11.609375 -7.640625 C 11.910156 -6.953125 12.0625 -6.207031 12.0625 -5.40625 C 12.0625 -4.644531 11.910156 -3.921875 11.609375 -3.234375 C 11.304688 -2.546875 10.894531 -1.945312 10.375 -1.4375 C 9.851562 -0.925781 9.25 -0.519531 8.5625 -0.21875 C 7.875 0.0820312 7.140625 0.234375 6.359375 0.234375 C 5.566406 0.234375 4.820312 0.0859375 4.125 -0.203125 C 3.425781 -0.492188 2.820312 -0.890625 2.3125 -1.390625 C 1.800781 -1.898438 1.390625 -2.492188 1.078125 -3.171875 C 0.773438 -3.847656 0.625 -4.570312 0.625 -5.34375 C 0.625 -6.15625 0.769531 -6.910156 1.0625 -7.609375 C 1.363281 -8.316406 1.769531 -8.925781 2.28125 -9.4375 C 2.800781 -9.957031 3.410156 -10.363281 4.109375 -10.65625 C 4.804688 -10.957031 5.5625 -11.109375 6.375 -11.109375 Z M 6.375 -8.0625 C 6.007812 -8.0625 5.664062 -7.988281 5.34375 -7.84375 C 5.019531 -7.707031 4.738281 -7.519531 4.5 -7.28125 C 4.257812 -7.039062 4.070312 -6.757812 3.9375 -6.4375 C 3.8125 -6.125 3.75 -5.773438 3.75 -5.390625 C 3.75 -5.046875 3.816406 -4.71875 3.953125 -4.40625 C 4.097656 -4.101562 4.285156 -3.835938 4.515625 -3.609375 C 4.753906 -3.378906 5.03125 -3.195312 5.34375 -3.0625 C 5.664062 -2.9375 6.003906 -2.875 6.359375 -2.875 C 6.703125 -2.875 7.03125 -2.941406 7.34375 -3.078125 C 7.664062 -3.222656 7.941406 -3.410156 8.171875 -3.640625 C 8.410156 -3.867188 8.597656 -4.140625 8.734375 -4.453125 C 8.878906 -4.765625 8.953125 -5.097656 8.953125 -5.453125 C 8.953125 -5.816406 8.878906 -6.15625 8.734375 -6.46875 C 8.597656 -6.789062 8.414062 -7.066406 8.1875 -7.296875 C 7.957031 -7.523438 7.6875 -7.707031 7.375 -7.84375 C 7.0625 -7.988281 6.726562 -8.0625 6.375 -8.0625 Z M 6.375 -8.0625 "/></g></g></g><g fill="#ffb3e1" fill-opacity="1"><g transform="translate(206.43476, 224.077966)"><g><path d="M 0.625 -5.484375 C 0.625 -6.242188 0.769531 -6.96875 1.0625 -7.65625 C 1.363281 -8.351562 1.769531 -8.957031 2.28125 -9.46875 C 2.800781 -9.976562 3.398438 -10.382812 4.078125 -10.6875 C 4.765625 -10.988281 5.492188 -11.140625 6.265625 -11.140625 C 6.847656 -11.140625 7.425781 -11.046875 8 -10.859375 C 8.570312 -10.679688 9.097656 -10.429688 9.578125 -10.109375 C 9.992188 -9.816406 10.28125 -9.550781 10.4375 -9.3125 C 10.59375 -9.070312 10.671875 -8.789062 10.671875 -8.46875 C 10.671875 -8.039062 10.519531 -7.679688 10.21875 -7.390625 C 9.925781 -7.097656 9.554688 -6.953125 9.109375 -6.953125 C 8.929688 -6.953125 8.78125 -6.972656 8.65625 -7.015625 C 8.53125 -7.066406 8.359375 -7.175781 8.140625 -7.34375 C 7.804688 -7.601562 7.507812 -7.785156 7.25 -7.890625 C 7 -8.003906 6.710938 -8.0625 6.390625 -8.0625 C 6.023438 -8.0625 5.675781 -7.988281 5.34375 -7.84375 C 5.019531 -7.707031 4.738281 -7.519531 4.5 -7.28125 C 4.257812 -7.039062 4.070312 -6.765625 3.9375 -6.453125 C 3.800781 -6.140625 3.734375 -5.804688 3.734375 -5.453125 C 3.734375 -5.085938 3.800781 -4.742188 3.9375 -4.421875 C 4.070312 -4.109375 4.257812 -3.835938 4.5 -3.609375 C 4.738281 -3.378906 5.015625 -3.195312 5.328125 -3.0625 C 5.640625 -2.925781 5.984375 -2.859375 6.359375 -2.859375 C 6.828125 -2.859375 7.21875 -2.957031 7.53125 -3.15625 C 7.570312 -3.1875 7.65625 -3.242188 7.78125 -3.328125 C 7.914062 -3.421875 8.09375 -3.546875 8.3125 -3.703125 C 8.476562 -3.828125 8.632812 -3.914062 8.78125 -3.96875 C 8.925781 -4.019531 9.082031 -4.046875 9.25 -4.046875 C 9.675781 -4.046875 10.039062 -3.894531 10.34375 -3.59375 C 10.644531 -3.300781 10.796875 -2.941406 10.796875 -2.515625 C 10.796875 -2.171875 10.664062 -1.835938 10.40625 -1.515625 C 10.144531 -1.191406 9.800781 -0.898438 9.375 -0.640625 C 8.957031 -0.378906 8.484375 -0.164062 7.953125 0 C 7.421875 0.15625 6.878906 0.234375 6.328125 0.234375 C 5.546875 0.234375 4.804688 0.0820312 4.109375 -0.21875 C 3.410156 -0.519531 2.800781 -0.929688 2.28125 -1.453125 C 1.769531 -1.972656 1.363281 -2.578125 1.0625 -3.265625 C 0.769531 -3.953125 0.625 -4.691406 0.625 -5.484375 Z M 0.625 -5.484375 "/></g></g></g><g fill="#ffb3e1" fill-opacity="1"><g transform="translate(221.322253, 224.077966)"><g><path d="M 1.375 -1.890625 L 1.375 -13.640625 C 1.394531 -14.171875 1.539062 -14.585938 1.8125 -14.890625 C 2.09375 -15.191406 2.460938 -15.34375 2.921875 -15.34375 C 3.378906 -15.34375 3.742188 -15.1875 4.015625 -14.875 C 4.296875 -14.5625 4.4375 -14.148438 4.4375 -13.640625 L 4.4375 -10.5625 C 4.789062 -10.78125 5.117188 -10.925781 5.421875 -11 C 5.734375 -11.070312 6.085938 -11.109375 6.484375 -11.109375 C 7.328125 -11.109375 8.09375 -10.925781 8.78125 -10.5625 C 9.476562 -10.207031 10.035156 -9.703125 10.453125 -9.046875 C 10.597656 -8.816406 10.71875 -8.597656 10.8125 -8.390625 C 10.90625 -8.191406 10.976562 -7.976562 11.03125 -7.75 C 11.082031 -7.519531 11.117188 -7.265625 11.140625 -6.984375 C 11.171875 -6.710938 11.1875 -6.382812 11.1875 -6 L 11.1875 -1.546875 C 11.164062 -1.023438 11.015625 -0.609375 10.734375 -0.296875 C 10.460938 0.00390625 10.097656 0.15625 9.640625 0.15625 C 9.179688 0.15625 8.8125 0 8.53125 -0.3125 C 8.257812 -0.625 8.125 -1.035156 8.125 -1.546875 L 8.125 -5.703125 C 8.125 -6.054688 8.101562 -6.328125 8.0625 -6.515625 C 8.03125 -6.703125 7.96875 -6.882812 7.875 -7.0625 C 7.738281 -7.375 7.523438 -7.613281 7.234375 -7.78125 C 6.941406 -7.945312 6.632812 -8.03125 6.3125 -8.03125 C 6 -8.03125 5.695312 -7.945312 5.40625 -7.78125 C 5.113281 -7.625 4.890625 -7.414062 4.734375 -7.15625 C 4.628906 -6.96875 4.550781 -6.765625 4.5 -6.546875 C 4.457031 -6.328125 4.4375 -6.046875 4.4375 -5.703125 L 4.4375 -1.546875 C 4.425781 -1.023438 4.285156 -0.609375 4.015625 -0.296875 C 3.742188 0.00390625 3.378906 0.15625 2.921875 0.15625 C 2.460938 0.15625 2.085938 0 1.796875 -0.3125 C 1.515625 -0.625 1.375 -1.035156 1.375 -1.546875 Z M 1.375 -1.890625 "/></g></g></g><g fill="#ffb3e1" fill-opacity="1"><g transform="translate(237.429046, 224.077966)"><g><path d="M 4.671875 -3.546875 C 5.148438 -3.128906 5.703125 -2.921875 6.328125 -2.921875 C 6.640625 -2.921875 6.9375 -2.96875 7.21875 -3.0625 C 7.5 -3.164062 7.789062 -3.332031 8.09375 -3.5625 C 8.28125 -3.707031 8.445312 -3.804688 8.59375 -3.859375 C 8.738281 -3.910156 8.894531 -3.9375 9.0625 -3.9375 C 9.507812 -3.9375 9.878906 -3.789062 10.171875 -3.5 C 10.460938 -3.207031 10.609375 -2.847656 10.609375 -2.421875 C 10.609375 -2.097656 10.515625 -1.800781 10.328125 -1.53125 C 10.148438 -1.257812 9.859375 -0.988281 9.453125 -0.71875 C 9.023438 -0.40625 8.535156 -0.164062 7.984375 0 C 7.429688 0.15625 6.878906 0.234375 6.328125 0.234375 C 5.554688 0.234375 4.828125 0.0820312 4.140625 -0.21875 C 3.453125 -0.53125 2.847656 -0.945312 2.328125 -1.46875 C 1.804688 -1.988281 1.390625 -2.59375 1.078125 -3.28125 C 0.773438 -3.976562 0.625 -4.710938 0.625 -5.484375 C 0.625 -6.242188 0.769531 -6.960938 1.0625 -7.640625 C 1.363281 -8.328125 1.769531 -8.925781 2.28125 -9.4375 C 2.800781 -9.957031 3.398438 -10.363281 4.078125 -10.65625 C 4.753906 -10.957031 5.472656 -11.109375 6.234375 -11.109375 C 6.847656 -11.109375 7.445312 -11.003906 8.03125 -10.796875 C 8.613281 -10.597656 9.125 -10.320312 9.5625 -9.96875 C 10.007812 -9.613281 10.367188 -9.207031 10.640625 -8.75 C 10.910156 -8.289062 11.046875 -7.804688 11.046875 -7.296875 C 11.046875 -6.960938 10.945312 -6.679688 10.75 -6.453125 C 10.5625 -6.234375 10.238281 -6.015625 9.78125 -5.796875 Z M 7.6875 -7.484375 C 7.40625 -7.910156 6.953125 -8.125 6.328125 -8.125 C 5.648438 -8.125 5.066406 -7.898438 4.578125 -7.453125 C 4.097656 -7.015625 3.832031 -6.460938 3.78125 -5.796875 Z M 7.6875 -7.484375 "/></g></g></g><g fill="#ffb3e1" fill-opacity="1"><g transform="translate(252.569614, 224.077966)"><g><path d="M 1.90625 -1.890625 L 1.90625 -8.125 L 1.75 -8.125 C 1.257812 -8.125 0.867188 -8.242188 0.578125 -8.484375 C 0.296875 -8.734375 0.15625 -9.070312 0.15625 -9.5 C 0.15625 -10.457031 0.738281 -10.921875 1.90625 -10.890625 L 1.90625 -12.859375 C 1.925781 -13.398438 2.070312 -13.816406 2.34375 -14.109375 C 2.625 -14.410156 2.992188 -14.5625 3.453125 -14.5625 C 3.898438 -14.5625 4.265625 -14.40625 4.546875 -14.09375 C 4.828125 -13.78125 4.96875 -13.367188 4.96875 -12.859375 L 4.96875 -10.890625 L 5.640625 -10.890625 C 6.097656 -10.867188 6.460938 -10.734375 6.734375 -10.484375 C 7.015625 -10.242188 7.15625 -9.914062 7.15625 -9.5 C 7.15625 -9.101562 7.015625 -8.773438 6.734375 -8.515625 C 6.453125 -8.253906 6.085938 -8.125 5.640625 -8.125 L 4.96875 -8.125 L 4.96875 -1.546875 C 4.957031 -1.023438 4.8125 -0.609375 4.53125 -0.296875 C 4.257812 0.00390625 3.890625 0.15625 3.421875 0.15625 C 2.984375 0.15625 2.617188 0 2.328125 -0.3125 C 2.046875 -0.625 1.90625 -1.035156 1.90625 -1.546875 Z M 1.90625 -1.890625 "/></g></g></g><path stroke-linecap="butt" transform="matrix(1.100419, 0, 0, 1.100419, 106.894406, 199.951643)" fill="none" stroke-linejoin="miter" d="M 12.374661 16.337453 C 12.38886 16.571739 12.449206 16.798925 12.562799 17.015462 C 12.676392 17.231999 12.818384 17.413038 12.992323 17.569228 C 13.166263 17.721869 13.357951 17.842561 13.574488 17.934856 C 13.791025 18.02715 14.02531 18.073297 14.277345 18.073297 C 14.52938 18.073297 14.770765 18.0236 14.997951 17.924206 C 15.228687 17.828362 15.434575 17.693471 15.604964 17.526631 C 15.778904 17.359791 15.917345 17.168102 16.016739 16.955115 C 16.112583 16.738579 16.16228 16.507843 16.16228 16.270007 C 16.16228 15.851133 16.016739 15.460656 15.725657 15.102128 C 15.431025 14.7365 15.076046 14.484466 14.657172 14.346024 C 14.490332 14.303427 14.35899 14.271479 14.266696 14.24308 C 14.177951 14.214682 14.106955 14.193383 14.057258 14.172085 C 14.011111 14.150786 13.975613 14.129487 13.950765 14.111738 C 13.933016 14.08689 13.901068 14.054942 13.85847 14.012344 C 13.776825 13.92715 13.716479 13.820656 13.670332 13.692864 C 13.631284 13.557972 13.609986 13.412431 13.609986 13.25624 C 13.609986 12.798318 13.762626 12.496587 14.067908 12.358145 L 14.589726 12.088362 C 14.788514 11.974768 14.948254 11.829227 15.076046 11.648188 C 15.200289 11.467149 15.264185 11.271911 15.264185 11.062474 C 15.264185 10.767842 15.154142 10.515807 14.937605 10.29927 C 14.724618 10.082734 14.476133 9.97269 14.1957 9.97269 C 13.680981 9.97269 13.301154 10.320569 13.063319 11.019877 C 12.924877 11.385504 12.747388 11.644639 12.530851 11.797279 C 12.317864 11.94992 12.019682 12.028015 11.643405 12.028015 C 11.157085 12.028015 10.759509 11.868275 10.447128 11.555894 C 10.141847 11.239963 9.989206 10.831738 9.989206 10.331218 C 9.989206 9.98334 10.0886 9.610612 10.290937 9.213036 C 10.493275 8.815461 10.777258 8.435634 11.142886 8.073556 C 11.962886 7.250006 12.960375 6.838231 14.131804 6.838231 C 14.703319 6.838231 15.246436 6.941175 15.761155 7.154162 C 16.275873 7.360049 16.733796 7.644032 17.134921 8.00256 C 17.532497 8.353989 17.848428 8.769313 18.082713 9.241435 C 18.320549 9.717106 18.441242 10.210526 18.441242 10.728794 C 18.441242 11.13347 18.370246 11.509747 18.231804 11.857626 C 18.093363 12.205504 17.862627 12.560483 17.543146 12.926111 C 17.820029 13.10715 18.033016 13.25624 18.182107 13.373383 C 18.327649 13.494076 18.46254 13.636067 18.590333 13.802907 C 18.856566 14.111738 19.066004 14.484466 19.218644 14.921089 C 19.371285 15.361262 19.445831 15.797886 19.445831 16.23096 C 19.445831 16.901869 19.307389 17.53373 19.026956 18.133644 C 18.750073 18.733557 18.370246 19.258925 17.894575 19.713298 C 17.422454 20.16412 16.872237 20.529748 16.243925 20.799532 C 15.619163 21.072865 14.962453 21.207757 14.277345 21.207757 C 13.595786 21.207757 12.939076 21.076415 12.310765 20.810181 C 11.686003 20.543947 11.135786 20.188969 10.656565 19.745246 C 10.184444 19.297973 9.804617 18.783254 9.517085 18.19754 C 9.233102 17.611825 9.09111 16.997713 9.09111 16.358752 C 9.09111 15.840483 9.247301 15.414509 9.559682 15.080829 C 9.875613 14.74715 10.276738 14.58031 10.763059 14.58031 C 11.210332 14.58031 11.575959 14.704552 11.863492 14.956587 C 12.147475 15.205072 12.310765 15.531652 12.353362 15.939877 Z M 26.761935 20.998319 C 25.519511 20.973471 24.898299 20.352259 24.898299 19.134683 L 24.898299 8.911305 C 24.926697 7.66888 25.547909 7.047668 26.761935 7.047668 L 29.836048 7.047668 C 30.911633 7.047668 31.813278 7.157712 32.544534 7.384898 C 33.275789 7.604984 33.971547 7.974162 34.628257 8.49243 C 35.494404 9.188188 36.161764 10.015288 36.637435 10.980829 C 37.109556 11.94282 37.347391 12.968708 37.347391 14.054942 C 37.347391 14.654855 37.269296 15.24057 37.116655 15.822734 C 36.964015 16.401349 36.740378 16.944466 36.445746 17.455635 C 36.154664 17.963254 35.799686 18.431826 35.380811 18.864899 C 34.961937 19.297973 34.493365 19.67425 33.978646 19.993731 C 32.888863 20.66464 31.507997 20.998319 29.836048 20.998319 Z M 29.459771 18.094596 C 30.159079 18.094596 30.723494 18.048449 31.156568 17.956155 C 31.589642 17.86386 31.983668 17.70057 32.345746 17.466284 C 32.903062 17.100657 33.343235 16.617886 33.662716 16.021522 C 33.982196 15.421609 34.141936 14.764899 34.141936 14.054942 C 34.141936 13.455028 34.031893 12.908362 33.804707 12.414942 C 33.58462 11.917972 33.26869 11.495548 32.856915 11.147669 C 32.448689 10.79624 31.958819 10.522907 31.383754 10.331218 C 30.812239 10.13598 30.176828 10.040136 29.48107 10.040136 L 28.100204 10.040136 L 28.100204 18.094596 Z M 50.577437 16.021522 C 50.577437 15.322215 50.712328 14.658405 50.982112 14.033643 C 51.255445 13.405331 51.624623 12.862214 52.089645 12.393643 C 52.561766 11.925071 53.104883 11.555894 53.726095 11.28611 C 54.343757 11.012777 55.004017 10.877885 55.699775 10.877885 C 56.232243 10.877885 56.757611 10.95953 57.279429 11.12637 C 57.804797 11.29321 58.280468 11.523946 58.713542 11.818578 C 59.093368 12.081262 59.356052 12.322647 59.501594 12.542734 C 59.647135 12.755721 59.72168 13.011305 59.72168 13.302388 C 59.72168 13.692864 59.583239 14.019444 59.313455 14.282128 C 59.040122 14.548362 58.699342 14.683254 58.294667 14.683254 C 58.127827 14.683254 57.989386 14.661955 57.875793 14.619358 C 57.765749 14.57676 57.613109 14.477366 57.41787 14.324725 C 57.112589 14.09044 56.842805 13.9236 56.612069 13.824206 C 56.381333 13.724812 56.122199 13.675115 55.827567 13.675115 C 55.490338 13.675115 55.174407 13.739011 54.872675 13.863254 C 54.574493 13.991046 54.315359 14.161435 54.098822 14.381522 C 53.882285 14.594509 53.711896 14.846544 53.587653 15.130526 C 53.463411 15.418059 53.403065 15.719791 53.403065 16.039271 C 53.403065 16.376501 53.463411 16.688882 53.587653 16.976414 C 53.711896 17.256847 53.882285 17.505332 54.098822 17.714769 C 54.315359 17.924206 54.567394 18.091046 54.854926 18.215289 C 55.138909 18.343081 55.44774 18.406977 55.78142 18.406977 C 56.214494 18.406977 56.569472 18.314683 56.849905 18.133644 C 56.896052 18.108795 56.974147 18.051999 57.09129 17.970354 C 57.208433 17.885159 57.368173 17.775116 57.566961 17.633124 C 57.719602 17.523081 57.861593 17.441436 57.992935 17.395289 C 58.127827 17.342042 58.269819 17.317193 58.422459 17.317193 C 58.812936 17.317193 59.143065 17.452085 59.412849 17.725419 C 59.686182 17.998752 59.824624 18.328882 59.824624 18.722908 C 59.824624 19.028189 59.703931 19.329921 59.466096 19.621003 C 59.23181 19.912086 58.919429 20.178319 58.536052 20.416155 C 58.152676 20.65399 57.719602 20.842129 57.236831 20.99122 C 56.757611 21.136761 56.26774 21.207757 55.763671 21.207757 C 55.053714 21.207757 54.382805 21.072865 53.743844 20.799532 C 53.111982 20.529748 52.561766 20.157021 52.089645 19.68135 C 51.624623 19.209228 51.255445 18.659012 50.982112 18.03425 C 50.712328 17.402388 50.577437 16.731479 50.577437 16.021522 Z M 64.797871 19.283774 L 64.797871 12.986457 C 64.797871 12.77702 64.801421 12.61018 64.808521 12.475288 C 64.81562 12.343946 64.81917 12.233903 64.82627 12.145158 C 64.833369 12.052864 64.851118 11.971219 64.879516 11.903773 C 64.904365 11.832777 64.939863 11.761781 64.98601 11.690786 C 65.266443 11.200916 65.660469 10.95953 66.175188 10.95953 C 66.746703 10.95953 67.172677 11.232864 67.45311 11.775981 C 68.124019 11.190266 68.841075 10.899184 69.607829 10.899184 C 69.859863 10.899184 70.094149 10.941781 70.307136 11.034076 C 70.527223 11.12282 70.715361 11.243513 70.875102 11.399703 C 71.034842 11.552344 71.162634 11.733383 71.258478 11.94282 C 71.357872 12.152258 71.407569 12.375894 71.407569 12.61373 C 71.407569 13.071652 71.240729 13.462128 70.914149 13.781609 C 70.587569 14.104639 70.193543 14.264379 69.732071 14.264379 C 69.536833 14.264379 69.387742 14.24308 69.281249 14.200483 C 69.178305 14.161435 68.993716 14.062041 68.731032 13.905851 C 68.518045 13.781609 68.337006 13.721262 68.184365 13.721262 C 67.960729 13.721262 67.804538 13.820656 67.712244 14.012344 C 67.6235 14.207583 67.580902 14.534163 67.580902 14.992085 L 67.580902 19.599705 C 67.563153 20.075376 67.431811 20.451653 67.186876 20.728536 C 66.945491 21.008969 66.615361 21.14741 66.196486 21.14741 C 65.777612 21.14741 65.440382 21.005419 65.181248 20.717887 C 64.925664 20.433904 64.797871 20.061176 64.797871 19.599705 Z M 80.505666 10.899184 C 81.212073 10.899184 81.879432 11.034076 82.507744 11.307409 C 83.136056 11.573643 83.682722 11.94282 84.151294 12.414942 C 84.619865 12.879963 84.989043 13.42663 85.258827 14.054942 C 85.53216 14.679704 85.667052 15.357713 85.667052 16.081869 C 85.667052 16.781176 85.53216 17.441436 85.258827 18.062648 C 84.989043 18.68386 84.616316 19.226977 84.140645 19.691999 C 83.668523 20.16057 83.114757 20.529748 82.486445 20.799532 C 81.858133 21.072865 81.190774 21.207757 80.477268 21.207757 C 79.77086 21.207757 79.096402 21.076415 78.46099 20.810181 C 77.829129 20.543947 77.275362 20.181869 76.806791 19.723947 C 76.338219 19.262475 75.965492 18.726458 75.688609 18.115895 C 75.411726 17.501782 75.273284 16.845072 75.273284 16.149314 C 75.273284 15.40741 75.408176 14.718752 75.677959 14.07979 C 75.951293 13.437279 76.32047 12.879963 76.785492 12.414942 C 77.254064 11.94282 77.80783 11.573643 78.439691 11.307409 C 79.078653 11.034076 79.763761 10.899184 80.505666 10.899184 Z M 80.505666 13.675115 C 80.168436 13.675115 79.852506 13.739011 79.557873 13.863254 C 79.266791 13.991046 79.011207 14.161435 78.79467 14.381522 C 78.578133 14.594509 78.411293 14.850094 78.29415 15.141176 C 78.177007 15.435808 78.120211 15.755288 78.120211 16.106717 C 78.120211 16.411998 78.180557 16.706631 78.30125 16.987064 C 78.429042 17.260397 78.599432 17.505332 78.812419 17.714769 C 79.032505 17.924206 79.28454 18.087497 79.568523 18.204639 C 79.856055 18.325332 80.157787 18.385678 80.477268 18.385678 C 80.800298 18.385678 81.105579 18.321782 81.393112 18.19754 C 81.677095 18.069748 81.929129 17.902908 82.142116 17.69702 C 82.362203 17.484033 82.532592 17.235548 82.653285 16.951566 C 82.781077 16.664033 82.841424 16.362302 82.841424 16.039271 C 82.841424 15.705591 82.781077 15.39676 82.653285 15.112778 C 82.532592 14.825245 82.365753 14.57676 82.152766 14.370873 C 81.946878 14.157886 81.698393 13.991046 81.41441 13.863254 C 81.126878 13.739011 80.825146 13.675115 80.505666 13.675115 Z M 90.100732 16.021522 C 90.100732 15.322215 90.232074 14.658405 90.501858 14.033643 C 90.775191 13.405331 91.144369 12.862214 91.60939 12.393643 C 92.081512 11.925071 92.624628 11.555894 93.245841 11.28611 C 93.863503 11.012777 94.523763 10.877885 95.22307 10.877885 C 95.751988 10.877885 96.277356 10.95953 96.799175 11.12637 C 97.324543 11.29321 97.803763 11.523946 98.236837 11.818578 C 98.613114 12.081262 98.875798 12.322647 99.021339 12.542734 C 99.16688 12.755721 99.241426 13.011305 99.241426 13.302388 C 99.241426 13.692864 99.106534 14.019444 98.833201 14.282128 C 98.559867 14.548362 98.222638 14.683254 97.817963 14.683254 C 97.651123 14.683254 97.509131 14.661955 97.399088 14.619358 C 97.285495 14.57676 97.132854 14.477366 96.937616 14.324725 C 96.632335 14.09044 96.362551 13.9236 96.131815 13.824206 C 95.901079 13.724812 95.641945 13.675115 95.350863 13.675115 C 95.013633 13.675115 94.694153 13.739011 94.395971 13.863254 C 94.094239 13.991046 93.835105 14.161435 93.618568 14.381522 C 93.402031 14.594509 93.231642 14.846544 93.107399 15.130526 C 92.983157 15.418059 92.92281 15.719791 92.92281 16.039271 C 92.92281 16.376501 92.983157 16.688882 93.107399 16.976414 C 93.231642 17.256847 93.402031 17.505332 93.618568 17.714769 C 93.835105 17.924206 94.08714 18.091046 94.374672 18.215289 C 94.658655 18.343081 94.971036 18.406977 95.304715 18.406977 C 95.734239 18.406977 96.092767 18.314683 96.369651 18.133644 C 96.415798 18.108795 96.493893 18.051999 96.611036 17.970354 C 96.731729 17.885159 96.887919 17.775116 97.086707 17.633124 C 97.239348 17.523081 97.381339 17.441436 97.516231 17.395289 C 97.647573 17.342042 97.789564 17.317193 97.945755 17.317193 C 98.332681 17.317193 98.662811 17.452085 98.936145 17.725419 C 99.205928 17.998752 99.34437 18.328882 99.34437 18.722908 C 99.34437 19.028189 99.223677 19.329921 98.985841 19.621003 C 98.751556 19.912086 98.442725 20.178319 98.055798 20.416155 C 97.672421 20.65399 97.239348 20.842129 96.760127 20.99122 C 96.277356 21.136761 95.787486 21.207757 95.283417 21.207757 C 94.57346 21.207757 93.902551 21.072865 93.267139 20.799532 C 92.631728 20.529748 92.081512 20.157021 91.60939 19.68135 C 91.144369 19.209228 90.775191 18.659012 90.501858 18.03425 C 90.232074 17.402388 90.100732 16.731479 90.100732 16.021522 Z M 104.317617 19.283774 L 104.317617 8.595374 C 104.331816 8.119703 104.463158 7.743426 104.711643 7.466543 C 104.963678 7.18611 105.297358 7.047668 105.716232 7.047668 C 106.135107 7.047668 106.472336 7.18966 106.724371 7.477192 C 106.976405 7.761175 107.100648 8.133902 107.100648 8.595374 L 107.100648 11.399703 C 107.420128 11.204465 107.72186 11.073123 107.998743 11.005677 C 108.279176 10.934682 108.598657 10.899184 108.960735 10.899184 C 109.727488 10.899184 110.423246 11.062474 111.048008 11.389054 C 111.679869 11.715634 112.183939 12.177106 112.560216 12.77702 C 112.702207 12.986457 112.81225 13.185245 112.893895 13.362734 C 112.97909 13.543773 113.042986 13.739011 113.092683 13.951998 C 113.13883 14.157886 113.174328 14.388622 113.195627 14.640656 C 113.216926 14.892691 113.231125 15.194423 113.231125 15.538752 L 113.231125 19.599705 C 113.216926 20.075376 113.082034 20.451653 112.829999 20.728536 C 112.577965 21.008969 112.244285 21.14741 111.82541 21.14741 C 111.406536 21.14741 111.072856 21.005419 110.820821 20.717887 C 110.572337 20.433904 110.448094 20.061176 110.448094 19.599705 L 110.448094 15.812085 C 110.448094 15.489055 110.426795 15.247669 110.391298 15.080829 C 110.3558 14.91399 110.299003 14.74715 110.217358 14.58031 C 110.089566 14.299877 109.894328 14.08334 109.628094 13.930699 C 109.36186 13.774509 109.084977 13.696414 108.790345 13.696414 C 108.513462 13.696414 108.240128 13.770959 107.973895 13.92005 C 107.711211 14.069141 107.512423 14.25728 107.370431 14.491565 C 107.274587 14.658405 107.203592 14.846544 107.160994 15.048881 C 107.121947 15.251219 107.100648 15.503254 107.100648 15.812085 L 107.100648 19.599705 C 107.082899 20.075376 106.951557 20.451653 106.706622 20.728536 C 106.465236 21.008969 106.135107 21.14741 105.716232 21.14741 C 105.297358 21.14741 104.960128 21.005419 104.700994 20.717887 C 104.445409 20.433904 104.317617 20.061176 104.317617 19.599705 Z M 121.942295 17.778665 C 122.375369 18.154942 122.875888 18.343081 123.447403 18.343081 C 123.727836 18.343081 123.99762 18.300484 124.256754 18.211739 C 124.515888 18.119445 124.782122 17.966804 125.062555 17.757367 C 125.229395 17.629574 125.378486 17.54438 125.513378 17.494683 C 125.64472 17.448535 125.786711 17.423687 125.942901 17.423687 C 126.347577 17.423687 126.681257 17.558579 126.943941 17.824813 C 127.206625 18.083947 127.341516 18.410527 127.341516 18.804553 C 127.341516 19.095635 127.256322 19.365419 127.089482 19.610354 C 126.922642 19.851739 126.656408 20.100224 126.29433 20.352259 C 125.903854 20.629142 125.460131 20.842129 124.956062 20.99122 C 124.455542 21.136761 123.951473 21.207757 123.447403 21.207757 C 122.755195 21.207757 122.091386 21.069315 121.463074 20.788882 C 120.834762 20.511999 120.284546 20.135722 119.808875 19.663601 C 119.333204 19.18793 118.956926 18.637713 118.680043 18.012951 C 118.40316 17.38109 118.264719 16.71728 118.264719 16.021522 C 118.264719 15.322215 118.39961 14.661955 118.669394 14.044293 C 118.939178 13.42308 119.311905 12.879963 119.776927 12.414942 C 120.245498 11.94282 120.788615 11.573643 121.399178 11.307409 C 122.013291 11.034076 122.670001 10.899184 123.365758 10.899184 C 123.926624 10.899184 124.469741 10.991478 124.995109 11.179617 C 125.527577 11.364206 125.996148 11.61979 126.400824 11.94282 C 126.805499 12.265851 127.128529 12.635028 127.369915 13.053903 C 127.61485 13.469228 127.739092 13.905851 127.739092 14.370873 C 127.739092 14.676154 127.653897 14.931739 127.479958 15.130526 C 127.306019 15.332864 127.007837 15.531652 126.588962 15.73044 Z M 124.686278 14.200483 C 124.434243 13.810007 124.022468 13.614769 123.447403 13.614769 C 122.83684 13.614769 122.311472 13.817106 121.871299 14.221782 C 121.431126 14.626457 121.186191 15.130526 121.129394 15.73044 Z M 133.19511 19.283774 L 133.19511 13.614769 L 133.046019 13.614769 C 132.598747 13.614769 132.247318 13.504725 131.988184 13.281089 C 131.732599 13.057453 131.604807 12.748621 131.604807 12.358145 C 131.604807 11.491998 132.133725 11.076673 133.19511 11.108621 L 133.19511 9.305331 C 133.20576 8.815461 133.340651 8.439184 133.592686 8.16585 C 133.844721 7.892517 134.1784 7.757625 134.593725 7.757625 C 134.998401 7.757625 135.32853 7.899616 135.587665 8.187149 C 135.846799 8.471132 135.978141 8.843859 135.978141 9.305331 L 135.978141 11.108621 L 136.585154 11.108621 C 137.000479 11.11927 137.334158 11.239963 137.586193 11.4636 C 137.838228 11.687236 137.96247 11.985418 137.96247 12.358145 C 137.96247 12.723773 137.834678 13.025505 137.575544 13.26334 C 137.31641 13.497626 136.98628 13.614769 136.585154 13.614769 L 135.978141 13.614769 L 135.978141 19.599705 C 135.963942 20.075376 135.82905 20.451653 135.577015 20.728536 C 135.324981 21.008969 134.991301 21.14741 134.572426 21.14741 C 134.171301 21.14741 133.841171 21.005419 133.582037 20.717887 C 133.322902 20.433904 133.19511 20.061176 133.19511 19.599705 Z M 133.19511 19.283774 " stroke="#ff66c4" stroke-width="0.784605" stroke-opacity="1" stroke-miterlimit="4"/><g mask="url(#b7aea57e43)"><g transform="matrix(1, 0, 0, 1, 328, 172)"><g clip-path="url(#2cc1be27e6)"><g clip-path="url(#18735da573)"><g clip-path="url(#89ada6e046)"><path fill="#ff66c4" d="M 0.75 0.472656 L 28.007812 0.472656 L 28.007812 24.320312 L 0.75 24.320312 Z M 0.75 0.472656 " fill-opacity="1" fill-rule="nonzero"/></g></g></g></g></g></svg>